<?xml version="1.0" encoding="utf-8"?>
<!-- Generator: Adobe Illustrator 16.0.0, SVG Export Plug-In . SVG Version: 6.00 Build 0)  -->
<!DOCTYPE svg PUBLIC "-//W3C//DTD SVG 1.1//EN" "http://www.w3.org/Graphics/SVG/1.1/DTD/svg11.dtd">
<svg version="1.1" id="Layer_1" xmlns="http://www.w3.org/2000/svg" xmlns:xlink="http://www.w3.org/1999/xlink" x="0px" y="0px"
	 width="800px" height="960px" viewBox="0 0 800 960" enable-background="new 0 0 800 960" xml:space="preserve">
<rect x="0.5" y="0.5" opacity="0.25" fill="#EB212E" enable-background="new    " width="1" height="1"/>
<rect x="799" y="959" opacity="0.25" fill="#EB212E" enable-background="new    " width="1" height="1"/>
<path fill="#F9F9F9" d="M80,50c-16.568,0-30,13.432-30,30c0,16.567,13.432,30,30,30c16.569,0,30-13.433,30-30
	C110,63.432,96.569,50,80,50z M80,107c-14.888,0-27-12.112-27-27c0-14.386,11.307-26.175,25.5-26.956v40.358l-8.649-8.965
	l-2.179,1.704L80.001,99.12l12.327-12.979l-2.179-1.704L81.5,93.403V53.044C95.693,53.825,107,65.614,107,80
	C107,94.888,94.888,107,80,107z"/>
<path fill="#414042" d="M239.998,50C223.432,50,210,63.432,210,80c0,16.567,13.432,30,29.998,30C256.568,110,270,96.567,270,80
	C270,63.432,256.568,50,239.998,50z M239.998,107C225.111,107,213,94.888,213,80c0-14.386,11.307-26.175,25.5-26.956v40.358
	l-8.65-8.965l-2.178,1.704L240,99.121l12.328-12.979l-2.18-1.704l-8.648,8.966v-40.36C255.691,53.825,267,65.614,267,80
	C267,94.888,254.887,107,239.998,107z"/>
<g>
	<g>
		<g>
			<path fill="#FFFFFF" d="M83.257,230.588h1.299v4.886c0,0.15,0.032,0.26,0.082,0.326c0.056,0.071,0.146,0.104,0.266,0.104
				c0.096,0,0.218-0.046,0.365-0.134c0.144-0.092,0.277-0.204,0.401-0.345v-4.838h1.301v6.372H85.67v-0.705
				c-0.24,0.259-0.49,0.46-0.75,0.594c-0.261,0.133-0.512,0.207-0.756,0.207c-0.303,0-0.526-0.099-0.68-0.29
				c-0.152-0.188-0.228-0.473-0.228-0.85L83.257,230.588L83.257,230.588z"/>
			<polygon fill="#FFFFFF" points="74.876,228.323 75.828,231.776 75.919,231.776 76.829,228.323 78.315,228.323 76.611,233.38 
				76.611,236.96 75.146,236.96 75.146,233.538 73.4,228.323 			"/>
			<path fill="#FFFFFF" d="M81.686,230.89c-0.345-0.306-0.786-0.46-1.324-0.46c-0.591,0-1.065,0.146-1.414,0.438
				c-0.351,0.289-0.525,0.683-0.525,1.176v3.304c0,0.541,0.172,0.972,0.512,1.291c0.343,0.321,0.799,0.484,1.366,0.484
				c0.593,0,1.057-0.156,1.396-0.466c0.336-0.313,0.502-0.737,0.502-1.284v-3.292C82.199,231.599,82.03,231.198,81.686,230.89z
				 M80.873,235.469c0,0.17-0.053,0.307-0.156,0.404c-0.104,0.098-0.243,0.146-0.42,0.146c-0.171,0-0.304-0.045-0.395-0.146
				c-0.094-0.097-0.143-0.229-0.143-0.404v-3.472c0-0.141,0.053-0.25,0.15-0.337c0.1-0.087,0.229-0.128,0.387-0.128
				c0.173,0,0.312,0.041,0.418,0.128s0.158,0.196,0.158,0.337L80.873,235.469L80.873,235.469z"/>
			<g>
				<path fill="#FFFFFF" d="M86.612,243.366c-0.184,0-0.315,0.054-0.396,0.16c-0.079,0.103-0.119,0.278-0.119,0.521v0.583h1.021
					v-0.583c0-0.241-0.04-0.418-0.12-0.521C86.92,243.42,86.788,243.366,86.612,243.366z"/>
				<path fill="#FFFFFF" d="M82.625,243.346c-0.082,0-0.164,0.021-0.244,0.057c-0.081,0.039-0.16,0.1-0.239,0.181v3.604
					c0.094,0.094,0.185,0.165,0.273,0.204c0.09,0.041,0.183,0.063,0.28,0.063c0.141,0,0.244-0.041,0.312-0.125
					c0.064-0.082,0.098-0.212,0.098-0.397v-2.987c0-0.196-0.039-0.344-0.122-0.445C82.901,243.397,82.779,243.346,82.625,243.346z"
					/>
				<path fill="#FFFFFF" d="M87.752,238.968H73.244c-2.306,0-4.17,1.873-4.17,4.178v3.356c0,2.305,1.864,4.177,4.17,4.177h14.508
					c2.304,0,4.175-1.872,4.175-4.177v-3.356C91.927,240.841,90.056,238.968,87.752,238.968z M76.293,241.584h-1.35v6.702h-1.302
					v-6.702h-1.347v-1.144h3.998L76.293,241.584L76.293,241.584z M80.104,248.286h-1.156v-0.639
					c-0.215,0.234-0.436,0.414-0.668,0.536c-0.23,0.127-0.455,0.185-0.67,0.185c-0.27,0-0.469-0.082-0.604-0.259
					c-0.134-0.174-0.204-0.429-0.204-0.774v-4.836h1.156v4.438c0,0.137,0.025,0.234,0.073,0.294
					c0.048,0.064,0.128,0.093,0.236,0.093c0.083,0,0.191-0.037,0.321-0.118c0.131-0.085,0.248-0.188,0.359-0.314v-4.393h1.156
					L80.104,248.286L80.104,248.286z M84.296,247.091c0,0.407-0.089,0.718-0.271,0.939c-0.18,0.22-0.444,0.326-0.785,0.326
					c-0.227,0-0.428-0.04-0.604-0.125c-0.176-0.085-0.346-0.213-0.495-0.391v0.444H80.97v-7.846h1.171v2.525
					c0.157-0.172,0.321-0.31,0.495-0.401c0.177-0.091,0.354-0.136,0.533-0.136c0.366,0,0.646,0.122,0.839,0.367
					c0.194,0.25,0.287,0.606,0.287,1.083L84.296,247.091L84.296,247.091z M88.309,245.532h-2.213v1.088
					c0,0.304,0.036,0.516,0.113,0.636c0.076,0.119,0.207,0.176,0.391,0.176c0.191,0,0.327-0.05,0.404-0.149
					c0.074-0.102,0.113-0.32,0.113-0.661v-0.264h1.191v0.296c0,0.595-0.143,1.04-0.438,1.343c-0.287,0.299-0.721,0.445-1.298,0.445
					c-0.517,0-0.926-0.153-1.224-0.477c-0.295-0.315-0.446-0.753-0.446-1.313v-2.598c0-0.499,0.164-0.911,0.49-1.228
					c0.33-0.314,0.75-0.471,1.267-0.471c0.531,0,0.938,0.145,1.221,0.438c0.285,0.292,0.428,0.71,0.428,1.26L88.309,245.532
					L88.309,245.532z"/>
			</g>
		</g>
	</g>
	<g>
		<path fill="#FFFFFF" d="M80.499,223.75c8.685,0,15.75,7.064,15.75,15.75c0,8.685-7.065,15.75-15.75,15.75
			s-15.75-7.065-15.75-15.75C64.749,230.814,71.815,223.75,80.499,223.75 M80.499,222C70.835,222,63,229.836,63,239.5
			c0,9.666,7.835,17.5,17.499,17.5C90.165,257,98,249.166,98,239.5C98,229.836,90.165,222,80.499,222L80.499,222z"/>
	</g>
</g>
<g>
	<g>
		<g>
			<path fill="#414042" d="M243.257,230.588h1.299v4.886c0,0.15,0.032,0.26,0.082,0.326c0.056,0.071,0.146,0.104,0.266,0.104
				c0.096,0,0.218-0.046,0.365-0.134c0.144-0.092,0.277-0.204,0.401-0.345v-4.838h1.301v6.372h-1.301v-0.705
				c-0.24,0.259-0.49,0.46-0.75,0.594c-0.261,0.133-0.512,0.207-0.756,0.207c-0.303,0-0.526-0.099-0.68-0.29
				c-0.152-0.188-0.228-0.473-0.228-0.85L243.257,230.588L243.257,230.588z"/>
			<polygon fill="#414042" points="234.876,228.323 235.827,231.776 235.919,231.776 236.828,228.323 238.314,228.323 
				236.61,233.38 236.61,236.96 235.145,236.96 235.145,233.538 233.399,228.323 			"/>
			<path fill="#414042" d="M241.685,230.89c-0.345-0.306-0.786-0.46-1.324-0.46c-0.591,0-1.065,0.146-1.414,0.438
				c-0.351,0.289-0.525,0.683-0.525,1.176v3.304c0,0.541,0.172,0.972,0.512,1.291c0.343,0.321,0.799,0.484,1.366,0.484
				c0.593,0,1.057-0.156,1.396-0.466c0.336-0.313,0.502-0.737,0.502-1.284v-3.292C242.198,231.599,242.029,231.198,241.685,230.89z
				 M240.873,235.469c0,0.17-0.053,0.307-0.156,0.404c-0.104,0.098-0.243,0.146-0.42,0.146c-0.171,0-0.304-0.045-0.395-0.146
				c-0.094-0.097-0.143-0.229-0.143-0.404v-3.472c0-0.141,0.053-0.25,0.15-0.337c0.1-0.087,0.229-0.128,0.387-0.128
				c0.173,0,0.312,0.041,0.418,0.128s0.158,0.196,0.158,0.337L240.873,235.469L240.873,235.469z"/>
			<g>
				<path fill="#414042" d="M246.611,243.366c-0.184,0-0.315,0.054-0.396,0.16c-0.079,0.103-0.119,0.278-0.119,0.521v0.583h1.021
					v-0.583c0-0.241-0.04-0.418-0.12-0.521C246.92,243.42,246.787,243.366,246.611,243.366z"/>
				<path fill="#414042" d="M242.625,243.346c-0.082,0-0.164,0.021-0.244,0.057c-0.081,0.039-0.16,0.1-0.239,0.181v3.604
					c0.094,0.094,0.185,0.165,0.273,0.204c0.09,0.041,0.183,0.063,0.28,0.063c0.141,0,0.244-0.041,0.312-0.125
					c0.064-0.082,0.098-0.212,0.098-0.397v-2.987c0-0.196-0.039-0.344-0.122-0.445S242.778,243.346,242.625,243.346z"/>
				<path fill="#414042" d="M247.752,238.968h-14.508c-2.306,0-4.17,1.873-4.17,4.178v3.356c0,2.305,1.864,4.177,4.17,4.177h14.508
					c2.304,0,4.175-1.872,4.175-4.177v-3.356C251.927,240.841,250.056,238.968,247.752,238.968z M236.293,241.584h-1.35v6.702
					h-1.302v-6.702h-1.347v-1.144h3.998L236.293,241.584L236.293,241.584z M240.103,248.286h-1.156v-0.639
					c-0.215,0.234-0.436,0.414-0.668,0.536c-0.23,0.127-0.455,0.185-0.67,0.185c-0.27,0-0.469-0.082-0.604-0.259
					c-0.134-0.174-0.204-0.429-0.204-0.774v-4.836h1.156v4.438c0,0.137,0.025,0.234,0.073,0.294
					c0.048,0.064,0.128,0.093,0.236,0.093c0.083,0,0.191-0.037,0.321-0.118c0.131-0.085,0.248-0.188,0.359-0.314v-4.393h1.156
					L240.103,248.286L240.103,248.286z M244.296,247.091c0,0.407-0.089,0.718-0.271,0.939c-0.18,0.22-0.444,0.326-0.785,0.326
					c-0.227,0-0.428-0.04-0.604-0.125c-0.176-0.085-0.346-0.213-0.495-0.391v0.444h-1.171v-7.846h1.171v2.525
					c0.157-0.172,0.321-0.31,0.495-0.401c0.177-0.091,0.354-0.136,0.533-0.136c0.366,0,0.646,0.122,0.839,0.367
					c0.194,0.25,0.287,0.606,0.287,1.083L244.296,247.091L244.296,247.091z M248.309,245.532h-2.213v1.088
					c0,0.304,0.036,0.516,0.113,0.636c0.076,0.119,0.207,0.176,0.391,0.176c0.191,0,0.327-0.05,0.404-0.149
					c0.074-0.102,0.113-0.32,0.113-0.661v-0.264h1.191v0.296c0,0.595-0.143,1.04-0.438,1.343c-0.287,0.299-0.721,0.445-1.298,0.445
					c-0.517,0-0.926-0.153-1.224-0.477c-0.295-0.315-0.446-0.753-0.446-1.313v-2.598c0-0.499,0.164-0.911,0.49-1.228
					c0.33-0.314,0.75-0.471,1.267-0.471c0.531,0,0.938,0.145,1.221,0.438c0.285,0.292,0.428,0.71,0.428,1.26L248.309,245.532
					L248.309,245.532z"/>
			</g>
		</g>
	</g>
	<g>
		<path fill="#414042" d="M240.499,223.75c8.685,0,15.75,7.064,15.75,15.75c0,8.685-7.065,15.75-15.75,15.75
			s-15.75-7.065-15.75-15.75C224.749,230.814,231.814,223.75,240.499,223.75 M240.499,222c-9.664,0-17.499,7.836-17.499,17.5
			c0,9.666,7.835,17.5,17.499,17.5c9.666,0,17.501-7.834,17.501-17.5C258,229.836,250.165,222,240.499,222L240.499,222z"/>
	</g>
</g>
<g>
	<g>
		<path fill="#FFFFFF" d="M84.25,400.506h-2.453c0,3.918,0,8.744,0,8.744h-3.633c0,0,0-4.777,0-8.744h-1.728v-3.089h1.728v-1.999
			c0-1.433,0.68-3.669,3.667-3.669l2.691,0.011v3c0,0-1.635,0-1.953,0c-0.318,0-0.771,0.158-0.771,0.841v1.816h2.771L84.25,400.506z
			"/>
	</g>
	<path fill="#FFFFFF" d="M80.5,384.749c8.685,0,15.751,7.064,15.751,15.751c0,8.685-7.066,15.75-15.751,15.75
		c-8.684,0-15.75-7.065-15.75-15.75C64.749,391.814,71.816,384.749,80.5,384.749 M80.5,383c-9.664,0-17.5,7.836-17.5,17.5
		c0,9.666,7.835,17.5,17.5,17.5c9.666,0,17.5-7.834,17.5-17.5C98,390.836,90.166,383,80.5,383L80.5,383z"/>
</g>
<g>
	<g>
		<path fill="#414042" d="M244.248,400.506h-2.453c0,3.918,0,8.744,0,8.744h-3.633c0,0,0-4.777,0-8.744h-1.729v-3.089h1.729v-1.999
			c0-1.433,0.68-3.669,3.666-3.669l2.691,0.011v3c0,0-1.635,0-1.953,0s-0.771,0.158-0.771,0.841v1.816h2.771L244.248,400.506z"/>
	</g>
	<path fill="#414042" d="M240.498,384.749c8.686,0,15.752,7.064,15.752,15.751c0,8.685-7.066,15.75-15.752,15.75
		c-8.684,0-15.75-7.065-15.75-15.75C224.748,391.814,231.814,384.749,240.498,384.749 M240.498,383
		c-9.664,0-17.498,7.836-17.498,17.5c0,9.666,7.834,17.5,17.498,17.5c9.666,0,17.502-7.834,17.502-17.5
		C258,390.836,250.164,383,240.498,383L240.498,383z"/>
</g>
<g>
	<g>
		<path fill="#FFFFFF" d="M80.5,544.749c8.685,0,15.75,7.064,15.75,15.75c0,8.687-7.065,15.752-15.75,15.752
			s-15.75-7.065-15.75-15.752C64.749,551.814,71.815,544.749,80.5,544.749 M80.5,543c-9.664,0-17.5,7.836-17.5,17.499
			C63,570.166,70.835,578,80.5,578S98,570.166,98,560.499C98,550.836,90.164,543,80.5,543L80.5,543z"/>
	</g>
	<path fill="#FFFFFF" d="M87.457,556.932c0.009,0.153,0.011,0.309,0.011,0.463c0,4.745-3.61,10.217-10.215,10.217
		c-2.028,0-3.915-0.594-5.503-1.611c0.281,0.031,0.566,0.049,0.856,0.049c1.683,0,3.229-0.57,4.458-1.534
		c-1.57-0.029-2.896-1.069-3.354-2.493c0.22,0.041,0.444,0.062,0.676,0.062c0.329,0,0.646-0.046,0.946-0.125
		c-1.641-0.332-2.879-1.782-2.879-3.521c0-0.017,0-0.029,0-0.045c0.484,0.269,1.038,0.43,1.625,0.448
		c-0.963-0.645-1.597-1.743-1.597-2.989c0-0.657,0.178-1.274,0.486-1.804c1.771,2.171,4.417,3.602,7.4,3.75
		c-0.06-0.263-0.092-0.535-0.092-0.817c0-1.982,1.606-3.59,3.591-3.59c1.032,0,1.965,0.437,2.62,1.133
		c0.817-0.159,1.586-0.459,2.281-0.871c-0.27,0.841-0.837,1.542-1.579,1.985c0.727-0.084,1.419-0.278,2.062-0.562
		C88.769,555.794,88.161,556.426,87.457,556.932z"/>
</g>
<g>
	<g>
		<path fill="#414042" d="M240.5,544.749c8.685,0,15.75,7.064,15.75,15.75c0,8.687-7.065,15.752-15.75,15.752
			c-8.686,0-15.751-7.065-15.751-15.752C224.749,551.814,231.814,544.749,240.5,544.749 M240.5,543c-9.664,0-17.5,7.836-17.5,17.499
			c0,9.667,7.836,17.501,17.5,17.501s17.5-7.834,17.5-17.501C258,550.836,250.164,543,240.5,543L240.5,543z"/>
	</g>
	<path fill="#414042" d="M247.457,556.932c0.01,0.153,0.012,0.309,0.012,0.463c0,4.745-3.61,10.217-10.215,10.217
		c-2.028,0-3.915-0.594-5.504-1.611c0.281,0.031,0.566,0.049,0.857,0.049c1.682,0,3.229-0.57,4.457-1.534
		c-1.57-0.029-2.896-1.069-3.354-2.493c0.22,0.041,0.443,0.062,0.676,0.062c0.328,0,0.645-0.046,0.945-0.125
		c-1.641-0.332-2.879-1.782-2.879-3.521c0-0.017,0-0.029,0-0.045c0.484,0.269,1.038,0.43,1.625,0.448
		c-0.963-0.645-1.596-1.743-1.596-2.989c0-0.657,0.178-1.274,0.485-1.804c1.771,2.171,4.417,3.602,7.399,3.75
		c-0.06-0.263-0.092-0.535-0.092-0.817c0-1.982,1.606-3.59,3.591-3.59c1.032,0,1.966,0.437,2.62,1.133
		c0.816-0.159,1.586-0.459,2.281-0.871c-0.27,0.841-0.838,1.542-1.58,1.985c0.727-0.084,1.42-0.278,2.062-0.562
		C248.769,555.794,248.16,556.426,247.457,556.932z"/>
</g>
<g>
	<path fill="#FFFFFF" d="M42.966,739.862c-0.013-0.011-0.043-0.028-0.08-0.056c-0.053-0.034-0.125-0.084-0.174-0.119
		c-2.12-1.575-3.246-4.269-3.543-8.474c-0.211-2.936-0.042-5.967,0.122-8.898c0.037-0.674,0.075-1.345,0.107-2.013l0.04-0.803
		c0.027-0.526,0.053-1.053,0.078-1.577l0.004-0.086c0.068-1.336,0.002-1.645-0.171-1.826c-0.088-0.093-0.206-0.145-0.331-0.145
		c-0.328,0-0.52,0.294-0.579,0.405c-0.249,0.424-0.502,1.229-0.695,1.881c-0.02,0.064-0.033,0.111-0.04,0.132
		c-0.107,0.312-0.214,0.622-0.321,0.935c-0.455,1.331-0.926,2.708-1.48,4.018c-0.025,0.058-0.052,0.124-0.083,0.196
		c-0.265,0.642-1.066,2.576-1.851,2.612c0.553-2.249,1.03-4.461,1.035-6.719c0.001-2.649-0.636-4.081-1.892-4.255
		c-0.074-0.011-0.149-0.017-0.221-0.017c-2.038,0-2.141,3.807-2.175,5.057l-0.001,0.058c-0.059,2.136,0.081,4.769,1.647,6.385
		c-0.977,4.351-2.395,8.931-4.329,13.985c-0.06,0.15-0.041,0.316,0.052,0.454c0.108,0.158,0.315,0.267,0.517,0.267
		c0.214,0,0.393-0.117,0.469-0.309c0,0,0.152-0.385,0.209-0.528c0.188-0.479,0.372-0.959,0.553-1.439
		c0.479-1.271,0.944-2.553,1.382-3.813c1.032-2.974,1.81-5.482,2.433-7.856c0.096,0.017,0.191,0.024,0.287,0.024
		c1.736,0,2.708-2.614,3.229-4.02c0.033-0.089,0.063-0.171,0.091-0.244c0.292-0.77,0.563-1.552,0.824-2.329
		c-0.008,0.078-0.016,0.156-0.023,0.234c-0.279,2.797-0.567,5.688-0.466,8.551c0.198,5.642,1.797,9.429,4.739,11.249l0.12,0.075
		h0.126c0.372,0,0.521-0.432,0.538-0.479C43.193,740.133,43.089,739.95,42.966,739.862z M32.285,721.328
		c0.061-1.13,0.236-2.178,0.521-3.113c0.001-0.004,0.002-0.009,0.004-0.015c0.238,0.938,0.247,1.948,0.232,2.854
		c-0.021,1.27-0.126,2.495-0.312,3.659C32.238,723.604,32.232,722.298,32.285,721.328z"/>
	<path fill="#FFFFFF" d="M63.222,718.252c-0.089-0.195-0.31-0.405-0.582-0.405c-0.134,0-0.258,0.053-0.354,0.148
		c-0.181,0.187-4.847,4.994-7.657,7.877c-0.27-0.558-0.725-0.898-1.293-0.947c-0.052-0.005-0.104-0.007-0.156-0.007
		c-0.648,0-1.209,0.335-1.705,0.63c-0.062,0.037-0.123,0.072-0.184,0.107c-0.148,0.086-0.291,0.188-0.429,0.286
		c-0.139,0.1-0.36,0.256-0.478,0.299c-0.003-0.007-0.006-0.015-0.01-0.021c0.558-0.526,1.191-1.13,1.81-1.73
		c0.085-0.083,0.188-0.178,0.299-0.278c0.851-0.781,2.274-2.09,1.515-3.359c-0.196-0.311-0.505-0.479-0.87-0.479
		c-1.429,0-3.477,2.635-3.496,2.661c-0.687,0.979-0.98,1.98-0.873,2.986c-1.33,1.264-2.396,2.199-3.251,2.854
		c-1.06,0.79-1.848,1.189-2.341,1.189c0,0-0.001,0-0.002,0c-0.142,0-0.421-0.004-0.51-0.608c1.264-1.082,2.537-2.285,3.418-3.743
		c0.76-1.257,0.762-2.378,0.006-3.003l-0.015-0.014l-0.016-0.011c-0.241-0.163-0.501-0.246-0.775-0.246
		c-1.254,0-2.396,1.775-3.133,3.267c-0.398,0.806-0.906,2.014-0.829,3.37c-0.142,0.125-0.283,0.245-0.421,0.359
		c-0.16,0.132-0.215,0.35-0.142,0.555c0.076,0.212,0.292,0.425,0.561,0.425c0.1,0,0.195-0.029,0.275-0.088
		c0.375,0.815,1.042,0.954,1.453,0.954c0.814,0,1.872-0.504,3.144-1.499c0.319-0.225,2.059-1.644,3.004-2.464
		c0.308,0.428,0.706,0.531,1.021,0.531c0.603,0,1.238-0.374,1.852-0.734c0.392-0.23,0.797-0.471,1.07-0.527
		c0.013,0.011,0.069,0.085,0.093,0.264c0.034,0.25-0.024,0.479-0.062,0.528c-0.843,0.86-1.688,1.722-2.536,2.578
		c-1.646,1.666-3.076,3.203-3.903,5.153c-0.746,1.76-0.686,3.117,0.169,3.822c0.296,0.245,0.634,0.369,1.006,0.369l0,0
		c0.95,0,1.868-0.818,2.562-1.531c2.868-2.95,4.452-6.596,4.461-10.264c0.008-0.135,0.371-0.469,0.525-0.609
		c0.097-0.089,0.188-0.173,0.265-0.254l1.34-1.42c0.877-0.93,1.755-1.856,2.637-2.78l3.471-3.639
		C63.285,718.657,63.31,718.446,63.222,718.252z M48.049,736.05c0.224-0.655,0.57-1.316,1.124-2.146
		c1.011-1.514,2.329-2.866,3.602-4.178c0.078-0.08,0.156-0.159,0.235-0.24c-0.381,2.064-1.184,3.923-2.395,5.53
		c-0.028,0.037-0.064,0.086-0.107,0.146c-1.678,2.276-2.338,2.521-2.544,2.521c-0.017,0-0.028-0.002-0.038-0.006
		C47.738,737.389,47.779,736.841,48.049,736.05z M52.767,721.857c-0.213,0.354-0.773,1.055-2.193,2.427
		c0.143-0.272,0.332-0.56,0.566-0.855C51.558,722.901,52.316,722.146,52.767,721.857z M45.15,724.099
		c0.019,0.47-0.524,1.252-0.748,1.576l-0.074,0.105c-0.387,0.565-0.845,1.131-1.402,1.728c0.224-0.596,0.538-1.157,0.824-1.631
		C44.046,725.389,44.76,724.431,45.15,724.099z"/>
	<path fill="#FFFFFF" d="M77.03,729.389c-0.148,0-0.292,0.065-0.407,0.187c-0.367,0.38-1.167,1.251-1.872,2.02
		c-0.602,0.655-1.224,1.334-1.345,1.452c-1.122,1.092-2.849,2.662-4.876,3.693c-0.631,0.318-1.864,0.856-3.038,0.856
		c-0.867,0-1.501-0.287-1.939-0.877c-0.933-1.259-0.704-3.234-0.451-4.614c0.633-3.44,2.299-6.58,3.91-9.617l0.357-0.677
		c1.795-3.292,3.935-6.688,6.541-10.39c2.292-3.253,4.89-6.938,8.153-9.486l0.053-0.042c0.943-0.745,1.355-0.855,1.516-0.855
		c0.02,0,0.032,0.002,0.035,0.002c0,0,0,0,0.001,0c0.005,0.008,0.019,0.032,0.033,0.091c0.419,1.537-1.218,3.551-1.954,4.357
		c-0.149,0.146-0.197,0.361-0.123,0.561c0.08,0.211,0.281,0.354,0.501,0.354c0.127,0,0.251-0.049,0.348-0.134
		c1.157-1,2.388-2.831,2.53-4.666c0.052-0.668-0.066-1.146-0.361-1.467c-0.158-0.17-0.448-0.374-0.934-0.374
		c-1.12,0-2.574,1.073-2.853,1.287c-3.651,2.78-6.625,6.715-9.013,9.876c-4.968,6.576-9.524,13.104-10.694,20.633
		c-0.507,3.256,0.008,5.545,1.53,6.806c0.711,0.593,1.594,0.893,2.623,0.893l0,0c0.904,0,1.899-0.229,2.965-0.684
		c2.356-1.036,4.278-2.827,5.69-4.272c0.283-0.291,2.88-3.203,3.459-4.119c0.111-0.176,0.124-0.38,0.033-0.543
		C77.365,729.483,77.205,729.389,77.03,729.389z"/>
	<path fill="#FFFFFF" d="M110.615,713.4c-0.256-0.413-0.678-0.669-1.22-0.74c-0.116-0.016-0.235-0.022-0.355-0.022
		c-1.277,0-2.538,0.858-3.48,1.771c1.136-3.927,2.274-8.236,2.594-12.595c0.013-0.145-0.032-0.277-0.126-0.381
		c-0.096-0.104-0.233-0.163-0.385-0.163c-0.305,0-0.655,0.236-0.69,0.62c-0.035,0.395-0.083,0.811-0.141,1.238
		c-0.112,0.835-0.268,1.736-0.477,2.755c-0.391,1.907-0.915,3.953-1.601,6.255c-0.646,2.166-1.322,4.285-2.009,6.297
		c-0.764,2.234-0.38,2.435-0.165,2.545c0.063,0.03,0.131,0.048,0.202,0.048c0.365,0,0.533-0.32,0.982-1.179
		c0.483-0.922,1.214-2.312,2.271-3.432c0.678-0.718,2.32-2.124,3.042-2.124c0.092,0,0.152,0.011,0.202,0.168
		c0.101,0.433-0.154,1.174-0.292,1.574c-0.279,0.812-0.711,1.634-1.359,2.586c-1.248,1.834-2.729,3.396-4.283,4.52l-0.03,0.022
		c-0.587,0.428-0.907,0.574-1.067,0.626c0.018-0.327,0.162-0.693,0.28-0.995c0.062-0.157,0.136-0.327,0.223-0.514
		c0.071-0.146,0.06-0.318-0.029-0.462c-0.115-0.187-0.373-0.323-0.599-0.323c-0.192,0-0.362,0.102-0.44,0.263l-0.045,0.09
		c-0.361,0.719-1.208,2.396-0.113,3.063c0.194,0.112,0.414,0.17,0.653,0.17l0,0c0.852,0,1.757-0.72,2.355-1.193
		c0.065-0.053,0.125-0.1,0.179-0.143c1.717-1.327,4.77-4.072,5.916-7.53C110.794,715.668,111.171,714.298,110.615,713.4z"/>
	<path fill="#FFFFFF" d="M102.516,717.745c0.011-0.024,0.022-0.049,0.033-0.072c0.448-1.02,0.451-1.896,0.008-2.54
		c-0.356-0.517-0.955-0.801-1.685-0.801c-0.419,0-0.878,0.094-1.293,0.266c-1.285,0.532-2.243,1.624-3.012,2.823
		c-0.041-0.596-0.203-1.153-0.672-1.451c-0.174-0.109-0.362-0.167-0.557-0.167c-0.725,0-1.279,0.782-1.516,1.116
		c-0.707,0.996-1.232,2.109-1.74,3.188l-0.132,0.279c-0.463,1.003-0.764,1.539-0.955,1.825c-0.02-0.308-0.017-0.732,0.014-1.148
		c0.02-0.27,0.051-0.542,0.083-0.831c0.091-0.801,0.186-1.626,0.039-2.431l-0.004-0.021c-0.131-0.563-0.506-0.93-0.955-0.93
		c-0.218,0-0.431,0.086-0.633,0.254c-0.357,0.299-0.645,0.759-0.888,1.265c-0.043-0.363-0.126-0.702-0.268-0.985
		c-0.349-0.686-0.875-0.785-1.159-0.785c-0.467,0-0.967,0.262-1.373,0.718c-0.729,0.818-1.274,1.801-1.745,2.828
		c-0.011-0.42-0.084-0.718-0.218-0.915c-0.115-0.17-0.277-0.276-0.467-0.31l-0.022-0.005l-0.059-0.002
		c-0.583,0-0.892,0.708-1.077,1.132c-0.02,0.045-0.036,0.082-0.049,0.11c-0.173,0.355-0.504,1.148-0.855,1.99
		c-0.386,0.925-0.824,1.974-1.004,2.314l-0.057,0.112c-0.355,0.701-0.558,0.921-0.656,0.988c-0.078-0.188-0.178-0.766-0.038-2.037
		l0.062-0.425c0.16-1.08,0.227-1.527-0.013-1.806c-0.1-0.115-0.239-0.181-0.393-0.181c-0.432,0-0.746,0.361-1.472,1.45
		c-0.396,0.594-0.862,1.28-1.369,1.926c-0.752,0.955-1.888,2.396-3.238,2.586c-0.028,0.002-0.055,0.003-0.081,0.003l0,0
		c-0.277,0-0.38-0.106-0.44-0.202c-0.315-0.5-0.131-2.521,1.268-5.447c0.793-1.657,1.822-2.874,3.057-3.612
		c0.652-0.392,1.339-0.626,1.988-0.683c0.093-0.009,0.187-0.013,0.277-0.013c0.177,0,0.354,0.017,0.533,0.048
		c0.026,0.005,0.054,0.008,0.083,0.008c0.256,0,0.641-0.197,0.686-0.521c0.032-0.229-0.106-0.435-0.336-0.506
		c-0.432-0.146-0.885-0.223-1.347-0.223c-2.282,0-4.413,1.776-5.646,3.438c-0.659,0.888-1.217,1.917-1.81,3.337
		c-0.486,1.163-1.151,2.756-0.953,4.258c0.124,0.936,0.683,1.584,1.617,1.881c0.241,0.076,0.491,0.114,0.743,0.114
		c0.881,0,1.789-0.457,2.698-1.354c1.02-1.013,1.803-2.198,2.559-3.346c0.121-0.184,0.242-0.367,0.365-0.553
		c-0.11,1.297,0.015,2.172,0.375,2.61c0.189,0.229,0.443,0.355,0.743,0.362c1.202,0,1.975-1.882,2.437-3.006
		c0.051-0.123,0.096-0.232,0.136-0.327c0.142-0.329,0.278-0.668,0.409-0.995c0.085-0.212,0.171-0.426,0.26-0.64
		c-0.126,1.024-0.335,2.039-0.397,2.329v0.002c-0.034,0.13-0.01,0.271,0.069,0.387c0.123,0.181,0.347,0.262,0.515,0.262
		c0.187,0,0.345-0.095,0.425-0.251l0.009-0.02c0.189-0.371,0.656-1.293,0.906-1.815c0.565-1.188,1.937-3.653,2.655-4.346
		c0.068-0.064,0.119-0.104,0.152-0.124c0.078,0.16,0.16,0.601,0.138,1.236c-0.003,0.088-0.006,0.183-0.009,0.284
		c-0.025,0.871-0.068,2.329-0.476,3.896c-0.035,0.145,0,0.296,0.096,0.418c0.117,0.146,0.317,0.243,0.511,0.243
		c0.216,0,0.402-0.118,0.486-0.311l0.011-0.026c0.34-0.959,0.722-1.879,1.09-2.77c0.208-0.501,0.405-0.977,0.588-1.441l0.034-0.087
		c0.107-0.276,0.198-0.495,0.273-0.665c0.021,0.535-0.006,1.027-0.036,1.58c-0.009,0.158-0.018,0.32-0.025,0.487
		c-0.002,0.051-0.006,0.107-0.01,0.176c-0.05,0.776-0.142,2.221,0.849,2.497c0.058,0.016,0.118,0.022,0.179,0.022
		c0.711,0,1.366-1.062,2.399-3.149c0.073-0.148,0.138-0.279,0.191-0.383c0.115-0.227,0.223-0.452,0.331-0.682
		c0.199-0.419,0.388-0.812,0.616-1.19l0.063-0.104c0.236-0.391,0.62-1.024,0.87-1.182c0.054,0.107,0.128,0.401,0.121,1.188
		c0,0.06,0,0.106,0,0.145c0.004,0.268,0.004,0.536,0.004,0.805v0.334c-0.246,0.504-0.485,1.042-0.711,1.601
		c-0.818,2.021-1.469,4.226-1.933,6.556l-0.068,0.338c-0.343,1.707-0.771,3.831-0.352,5.613c0.164,0.695,0.621,1.146,1.167,1.146
		c0.454,0,0.868-0.312,1.137-0.87c0.739-1.583,0.972-3.514,1.176-5.217c0.037-0.299,0.072-0.594,0.109-0.882
		c0.274-2.104,0.463-4.161,0.561-6.112c0.004-0.092,0.005-0.188,0.005-0.283c0.001-0.228,0.002-0.44,0.067-0.597
		c0.161-0.376,0.329-0.743,0.499-1.091c0.206-0.417,0.438-0.843,0.707-1.302c0.654-1.111,1.681-2.601,3.037-2.677
		c0.038-0.002,0.075-0.003,0.111-0.003c0.44,0,0.521,0.159,0.548,0.212c0.243,0.479-0.312,1.764-0.801,2.438
		c-0.764,1.047-1.771,2.033-3.261,3.192c-0.13,0.099-0.238,0.295-0.152,0.552c0.063,0.188,0.281,0.489,0.592,0.489
		c0.101,0,0.197-0.031,0.277-0.094l0.015-0.011l0.013-0.013c0.321-0.291,0.661-0.579,0.989-0.859
		c1.261-1.073,2.565-2.182,3.324-3.788C102.497,717.785,102.507,717.765,102.516,717.745z M94.746,726.552
		c-0.148,1.03-0.314,2.001-0.498,2.93c-0.07,0.352-0.135,0.669-0.196,0.956c0.063-0.537,0.15-1.12,0.264-1.767
		C94.442,727.954,94.585,727.247,94.746,726.552z"/>
	<path fill="#FFFFFF" d="M132.427,729.948c-0.241,0-0.581-0.063-0.709-0.166c-0.234-0.188-0.229-0.377-0.153-0.832
		c0.058-0.354,0.131-0.791-0.14-1.185c-0.424-0.613-1.119-0.843-1.732-1.044c-0.169-0.056-0.328-0.105-0.474-0.165
		c-0.145-0.058-0.278-0.117-0.388-0.173c0.265-0.151,0.615-0.271,0.916-0.373c0.181-0.062,0.352-0.119,0.505-0.183l0.118-0.049
		c0.774-0.318,1.739-0.716,2.279-1.455c0.46-0.635,0.385-1.158,0.242-1.486c-0.639-1.458-3.92-1.859-3.953-1.864
		c-1.556-0.184-2.943-0.406-4.138-1.284c-1.118-0.876-1.799-2.19-2.024-3.909c-0.03-0.229-0.053-0.521-0.065-0.688
		c0.062-0.094,0.149-0.227,0.218-0.333c0.294-0.455,0.592-0.937,0.883-1.43c0.602-1.019,1.16-2.048,1.658-3.063
		c0.659-1.343,1.391-2.912,1.732-4.557l0.011-0.054c0.313-1.502,0.641-3.605-0.121-4.543c-0.253-0.312-0.608-0.477-1.026-0.477
		c-0.039,0-0.079,0.001-0.121,0.004c-1.582,0.114-2.319,2.31-2.759,3.619c-0.053,0.158-0.101,0.302-0.146,0.425
		c-1.22,3.395-1.798,6.412-1.766,9.229c0.004,0.325,0.026,0.733,0.04,0.944c-0.282,0.428-0.67,0.994-0.937,1.346
		c-0.046,0.062-0.096,0.128-0.149,0.197c-0.205,0.271-0.655,0.875-0.904,1.039c-0.006-0.016-0.012-0.027-0.018-0.041
		c-0.12-0.273-0.173-0.602-0.217-0.912c-0.116-0.823-0.126-1.674-0.122-2.321c0-0.087-0.002-0.175-0.004-0.265
		c-0.007-0.313-0.015-0.609,0.11-0.81c0.24-0.382,0.474-0.767,0.694-1.145c0.462-0.789,0.848-1.509,1.179-2.192
		c0.849-1.762,1.411-3.343,1.717-4.834l0.013-0.064c0.132-0.648,0.333-1.633-0.16-2.306c-0.269-0.367-0.6-0.443-0.83-0.443
		c-0.633,0-1.206,0.584-1.423,0.835c-2.198,2.543-2.347,6.511-2.455,9.405c-0.021,0.569-0.383,1.083-0.765,1.628
		c-0.085,0.121-0.17,0.241-0.25,0.361c-0.514,0.771-1.053,1.521-1.603,2.231c-0.755,0.978-1.687,2.183-2.764,3.064
		c0.549-0.749,0.971-1.464,1.28-2.167c0.081-0.184,0.772-1.818,0.227-2.654c-0.135-0.206-0.4-0.452-0.898-0.452
		c-0.053,0-0.109,0.004-0.168,0.01c-1.024,0.104-1.859,1.188-2.299,2.17c-0.444,0.988-0.716,2.494-0.122,3.66
		c-0.406,0.494-0.841,0.951-1.297,1.358c-0.144,0.118-0.198,0.312-0.139,0.499c0.062,0.192,0.296,0.459,0.577,0.459
		c0.104,0,0.204-0.034,0.287-0.104c0.539-0.454,1.045-0.98,1.37-1.336c0.13,0.068,0.287,0.118,0.471,0.118
		c0.336,0,0.696-0.157,1.133-0.495c0.306-0.233,0.458-0.356,0.69-0.571c1.6-1.419,3.118-3.444,4.272-5.126
		c0.027,0.567,0.081,1.165,0.184,1.756c0.068,0.388,0.161,0.917,0.443,1.341c0.083,0.128,0.338,0.517,0.846,0.517
		c0.427,0,0.8-0.324,1.023-0.52c0.475-0.414,0.878-0.886,1.272-1.405c0.383,1.651,1.128,2.925,2.221,3.791
		c0.634,0.503,1.388,0.898,2.241,1.179c0.486,0.16,1.428,0.346,1.716,0.395c0.161,0.027,0.449,0.066,0.681,0.1
		c0.137,0.02,0.248,0.033,0.281,0.039c0.574,0.104,1.069,0.236,1.511,0.409c0.761,0.299,1.111,0.615,1.131,0.707
		c-0.003,0.01-0.024,0.043-0.084,0.093c-0.479,0.388-1.081,0.612-1.719,0.854c-0.712,0.269-1.448,0.545-2.044,1.07
		c-0.487,0.43-0.684,0.864-0.587,1.293c0.195,0.863,1.518,1.24,2.483,1.516c0.223,0.063,0.434,0.124,0.539,0.168
		c0.533,0.221,0.523,0.275,0.47,0.581c-0.034,0.198-0.082,0.471-0.009,0.788c0.188,0.835,0.867,1.258,2.017,1.258
		c0.267,0,0.476-0.219,0.476-0.498c0-0.109-0.034-0.214-0.098-0.299C132.716,730.019,132.578,729.948,132.427,729.948z
		 M125.451,703.257c0.113-0.23,0.231-0.47,0.377-0.651c0.002,0.023,0.003,0.045,0.005,0.062c0.013,0.185-0.006,0.946-0.062,1.432
		c-0.13,1.143-0.359,2.184-0.699,3.186c-0.557,1.639-1.31,3.32-2.289,5.104c0.179-1.638,0.591-3.436,1.26-5.523
		c0.474-1.481,0.899-2.575,1.379-3.548L125.451,703.257z M120.076,706.302c0.193-0.594,0.464-1.173,0.806-1.721l0.048-0.078
		c0.214-0.35,0.371-0.569,0.484-0.709c-0.026,0.256-0.105,0.685-0.295,1.396l-0.034,0.132c-0.217,0.839-0.513,1.729-0.906,2.723
		c-0.26,0.656-0.564,1.336-0.918,2.051c0.002-0.019,0.005-0.035,0.007-0.055C119.454,708.648,119.72,707.424,120.076,706.302z
		 M111.422,718.829c0.018-0.631,0.239-1.294,0.534-1.771c0.268-0.412,0.485-0.681,0.652-0.854
		C112.44,716.95,111.869,718.066,111.422,718.829z"/>
</g>
<g>
	<path fill="#C6E3E5" d="M80.5,828.011c-28.993,0-52.5,23.505-52.5,52.5c0,28.993,23.507,52.5,52.5,52.5
		c28.992,0,52.499-23.507,52.499-52.5C132.999,851.516,109.492,828.011,80.5,828.011z"/>
	<g>
		<rect x="64.062" y="877.548" fill="#414042" width="32.868" height="5.979"/>
		<path fill="#414042" d="M107.656,880.528c0,0,0-2.77,0-3.563s0.152-1.238,0.797-1.238h-0.037c0.643,0,0.799,0.443,0.799,1.238
			c0,0.796,0,3.563,0,3.563s0,2.767,0,3.562c0,0.795-0.156,1.238-0.799,1.238h0.037c-0.645,0-0.797-0.443-0.797-1.238
			C107.656,883.294,107.656,880.528,107.656,880.528z"/>
		<path fill="#939598" d="M95.717,880.528c0,0,0-2.185,0-2.811c0-0.628,0.122-0.979,0.627-0.979h-0.03
			c0.506,0,0.625,0.352,0.625,0.979c0,0.626,0,2.811,0,2.811s0,2.181,0,2.809c0,0.626-0.119,0.977-0.625,0.977h0.03
			c-0.505,0-0.627-0.351-0.627-0.977C95.717,882.708,95.717,880.528,95.717,880.528z"/>
		<path fill="#939598" d="M64.062,880.528c0,0,0-2.185,0-2.811c0-0.628,0.119-0.979,0.621-0.979h-0.029
			c0.506,0,0.628,0.352,0.628,0.979c0,0.626,0,2.811,0,2.811s0,2.181,0,2.809c0,0.626-0.122,0.977-0.628,0.977h0.029
			c-0.502,0-0.621-0.351-0.621-0.977C64.062,882.708,64.062,880.528,64.062,880.528z"/>
		<path fill="#414042" d="M120.166,881.51c0,0.79-0.637,1.431-1.428,1.431h-8.096c-0.791,0-1.428-0.641-1.428-1.431v-1.942
			c0-0.788,0.637-1.431,1.428-1.431h8.096c0.791,0,1.428,0.643,1.428,1.431V881.51z"/>
		<path fill="#414042" d="M111.262,880.538c0,2.4-0.387,6.695-0.387,6.695h-2.172v-6.686v-0.021v-6.688h2.172
			C110.875,873.842,111.262,878.137,111.262,880.538z"/>
		<path fill="#414042" d="M99.439,897.335c-0.719-0.099-2.521-0.623-2.521-4.496c0-3.886,0-12.354,0-12.354s0-8.416,0-12.303
			c0-3.874,1.803-4.398,2.521-4.494c-0.006,0-0.012,0-0.018,0.002c0.719-0.101,2.52-0.063,2.52,3.991c0,4.041,0,12.8,0,12.8
			s0,8.819,0,12.86c0,4.058-1.801,4.091-2.52,3.99C99.428,897.333,99.434,897.335,99.439,897.335z"/>
		<path fill="#939598" d="M104.453,897.505c-0.715,0.083-2.512,0.205-2.512-3.912c0-4.123,0-13.112,0-13.112s0-8.931,0-13.054
			c0-4.114,1.797-3.995,2.512-3.912c-0.008-0.002-0.014-0.002-0.018-0.004c0.701,0.105,2.484,0.675,2.848,4.578
			c0.352,3.906,0.486,12.394,0.439,12.394c0.047,0-0.088,8.545-0.439,12.448c-0.363,3.903-2.146,4.474-2.848,4.58
			C104.439,897.507,104.445,897.507,104.453,897.505z"/>
		<path fill="#414042" d="M53.344,880.495c0,0,0,2.767,0,3.562c0,0.797-0.155,1.237-0.798,1.237h0.036
			c-0.642,0-0.795-0.44-0.795-1.237c0-0.795,0-3.562,0-3.562s0-2.771,0-3.564c0-0.797,0.153-1.239,0.795-1.239h-0.036
			c0.643,0,0.798,0.442,0.798,1.239C53.344,877.726,53.344,880.495,53.344,880.495z"/>
		<path fill="#414042" d="M40.836,879.511c0-0.791,0.637-1.43,1.426-1.43h8.096c0.79,0,1.43,0.639,1.43,1.43v1.943
			c0,0.787-0.64,1.428-1.43,1.428h-8.096c-0.789,0-1.426-0.641-1.426-1.428V879.511z"/>
		<path fill="#414042" d="M49.738,880.481c0-2.399,0.385-6.693,0.385-6.693h2.174v6.683v0.025v6.685h-2.174
			C50.123,887.18,49.738,882.882,49.738,880.481z"/>
		<path fill="#414042" d="M61.56,863.688c0.719,0.099,2.521,0.62,2.521,4.494c0,3.887,0,12.356,0,12.356s0,8.415,0,12.301
			c0,3.873-1.802,4.397-2.521,4.496c0.005,0,0.008-0.002,0.014-0.003c-0.718,0.099-2.516,0.064-2.516-3.991c0-4.041,0-12.8,0-12.8
			s0-8.819,0-12.86c0-4.057,1.798-4.092,2.516-3.991C61.568,863.688,61.565,863.688,61.56,863.688z"/>
		<path fill="#939598" d="M56.549,863.515c0.711-0.083,2.51-0.202,2.51,3.912c0,4.123,0,13.114,0,13.114s0,8.929,0,13.052
			c0,4.117-1.799,3.995-2.51,3.912c0.006,0.002,0.013,0.002,0.016,0.006c-0.705-0.106-2.486-0.677-2.848-4.58
			c-0.352-3.903-0.487-12.393-0.438-12.393c-0.053,0,0.086-8.543,0.438-12.449c0.361-3.903,2.143-4.472,2.848-4.578
			C56.561,863.513,56.555,863.515,56.549,863.515z"/>
		<path fill="none" stroke="#E900DD" stroke-width="0.34" stroke-miterlimit="10" d="M73.35,883.95"/>
	</g>
</g>
<g>
	<g>
		<path fill="#C6E3E5" d="M400.5,188c-28.992,0-52.5,23.505-52.5,52.5c0,28.994,23.508,52.5,52.5,52.5
			c28.994,0,52.5-23.506,52.5-52.5S429.494,188,400.5,188z"/>
	</g>
	<g>
		<g>
			
				<polyline fill="none" stroke="#414042" stroke-width="1.589" stroke-linecap="round" stroke-linejoin="round" stroke-miterlimit="10" points="
				407.525,270.648 400.64,270.648 393.754,270.648 			"/>
			
				<polyline fill="none" stroke="#414042" stroke-width="1.589" stroke-linecap="round" stroke-linejoin="round" stroke-miterlimit="10" points="
				407.525,273.717 400.64,273.717 393.754,273.717 			"/>
			
				<polyline fill="none" stroke="#414042" stroke-width="1.589" stroke-linecap="round" stroke-linejoin="round" stroke-miterlimit="10" points="
				405.935,276.784 400.64,276.784 395.342,276.784 			"/>
			
				<polyline fill="none" stroke="#414042" stroke-width="1.589" stroke-linecap="round" stroke-linejoin="round" stroke-miterlimit="10" points="
				404.347,279.852 400.64,279.852 396.932,279.852 			"/>
		</g>
		<g>
			<path fill="#414042" d="M393.85,237.14c-0.252,0-0.448,0.088-0.625,0.252c-0.164,0.175-0.239,0.373-0.252,0.614
				c0,0.252,0.076,0.45,0.23,0.615c0.164,0.164,0.373,0.241,0.613,0.241c0.241,0,0.45-0.077,0.627-0.241
				c0.176-0.165,0.272-0.362,0.272-0.615c0-0.241-0.089-0.438-0.265-0.614C394.289,237.229,394.102,237.14,393.85,237.14z"/>
			<path fill="#414042" d="M419.177,243.379c0-6.306-3.209-19.803-18.537-19.803c-15.33,0-18.539,13.497-18.539,19.803
				c0,6.307,8.846,15.143,8.846,16.813c0,1.671-0.328,4.144,3.014,6.816h6.682h6.681c3.342-2.673,3.014-5.146,3.014-6.816
				C410.333,258.521,419.177,249.686,419.177,243.379z M400.64,265.419h-1.181c-0.66-9.308-7.961-19.149-9.221-20.785
				c0.389-0.251,1.149-0.784,1.867-1.506c-0.361,2.306,1.637,2.333,2.872,1.038c0.572,1.204,2.353,1.124,3.291-0.28
				c0.113,1.532,1.772,1.399,2.844,0.256c0.266,0.51,0.739,0.861,1.477,0.884c1.055,0.028,1.857-0.265,2.598-1.3
				c0.293,1.657,2.396,1.752,3.438,0.203c0.086,1.137,1.076,1.325,2.014,0.857c-2.303,3.754-7.25,12.655-7.764,20.633H400.64z
				 M396.494,242.186c0.361-1.788,1.666-2.961,2.334-1.755l-0.492,2.544c-0.012,0.055-0.023,0.132-0.023,0.188
				C396.789,245.223,396.055,244.182,396.494,242.186z M406.835,242.229c0.383-1.775,1.676-2.96,2.346-1.743l-0.522,2.721
				C407.142,245.245,406.417,244.214,406.835,242.229z M406.742,265.419h-3.34c0.674-10.221,8.756-22.038,8.842-22.161
				c0.082-0.121,0.053-0.286-0.068-0.369c-0.119-0.082-0.285-0.053-0.367,0.068c-0.014,0.02-0.233,0.344-0.598,0.911
				c-0.588,0.599-1.381,0.848-1.207-0.06c0.252-1.262,0.482-2.238,0.822-3.916l0.09-0.417h-2.775
				c-1.963,0.066-2.83,1.832-2.981,3.597c-0.002,0.024,0.002,0.044,0,0.067c-0.521,0.822-1.383,1.436-2.205,1.052
				c-0.471-0.229-0.668-0.844-0.68-1.371c0.942,0.033,1.862-0.307,2.356-1.217c0.33-0.646,0.318-1.48-0.24-1.931
				c-0.627-0.526-2.053-0.252-2.885,1.042c-0.567,0.901-0.809,2.112-0.553,3.021c-0.587,0.683-1.46,1.008-1.268,0.028
				c0.263-1.284,0.887-4.475,1.283-6.482h-1.492l-0.526,2.589c-0.056-0.066-0.099-0.12-0.144-0.165c-0.94-0.779-3.718,0-4.002,3.322
				c-0.021,0.259-0.007,0.487,0.032,0.694c-0.604,0.699-1.521,1.04-1.327,0.03c0.252-1.294,0.504-2.423,0.854-4.277h-1.516
				l-0.545,2.62c-1.032,1.313-2.569,2.226-2.594,2.239c-0.066,0.039-0.113,0.104-0.125,0.181c-0.016,0.076,0.004,0.154,0.053,0.214
				c0.09,0.111,8.566,10.733,9.287,20.688h-4.391c-2.053-1.817-2.029-3.328-2.008-4.792c0.002-0.149,0.004-0.295,0.004-0.436
				c0-1.045-0.771-2.142-2.677-4.743c-2.454-3.354-6.168-8.426-6.168-12.069c0-1.502,0.235-6.763,3.265-11.397
				c2.953-4.522,7.559-6.816,13.687-6.816c6.127,0,10.73,2.293,13.688,6.816c3.024,4.635,3.262,9.896,3.262,11.397
				c0,3.645-3.713,8.715-6.168,12.069c-1.902,2.602-2.674,3.697-2.674,4.743c0,0.141,0,0.285,0.004,0.436
				C408.771,262.091,408.792,263.601,406.742,265.419z M402.304,242.306c0-0.033,0.017-0.077,0.017-0.12
				c0.116-0.615,0.313-1.107,0.547-1.459c0.395-0.625,0.877-0.834,1.096-0.669C404.236,240.276,404.039,242.36,402.304,242.306z"/>
		</g>
		<g>
			<path fill="#414042" d="M400.64,215.923c-0.525,0-0.955-0.427-0.955-0.954V200.53c0-0.526,0.43-0.953,0.955-0.953
				s0.953,0.427,0.953,0.953v14.438C401.593,215.495,401.166,215.923,400.64,215.923z"/>
		</g>
		<g>
			<g>
				<path fill="#414042" d="M377.34,242.339h-14.438c-0.527,0-0.953-0.427-0.953-0.953c0-0.527,0.426-0.954,0.953-0.954h14.438
					c0.527,0,0.953,0.427,0.953,0.954C378.293,241.912,377.867,242.339,377.34,242.339z"/>
			</g>
			<g>
				<path fill="#414042" d="M381.35,223.59c-0.221,0-0.443-0.078-0.625-0.235l-10.879-9.492c-0.396-0.346-0.438-0.947-0.092-1.345
					c0.346-0.396,0.947-0.438,1.346-0.091l10.879,9.491c0.396,0.346,0.438,0.948,0.091,1.345
					C381.881,223.479,381.617,223.59,381.35,223.59z"/>
			</g>
		</g>
		<g>
			<path fill="#414042" d="M438.099,242.339h-14.438c-0.525,0-0.953-0.427-0.953-0.953c0-0.527,0.428-0.954,0.953-0.954h14.438
				c0.525,0,0.953,0.427,0.953,0.954C439.052,241.912,438.625,242.339,438.099,242.339z"/>
		</g>
		<g>
			<path fill="#414042" d="M419.65,223.59c-0.267,0-0.531-0.111-0.72-0.327c-0.348-0.396-0.307-0.999,0.093-1.345l10.877-9.491
				c0.397-0.348,1-0.305,1.346,0.091c0.348,0.396,0.307,0.999-0.092,1.345l-10.877,9.492
				C420.095,223.512,419.873,223.59,419.65,223.59z"/>
		</g>
	</g>
</g>
<g>
	<g>
		<path fill="#BAACA3" d="M400.501,348C371.508,348,348,371.505,348,400.5c0,28.994,23.508,52.5,52.501,52.5
			C429.496,453,453,429.494,453,400.5C453,371.505,429.496,348,400.501,348z"/>
	</g>
	<g>
		<ellipse fill="#C6E3E5" cx="400.525" cy="400.5" rx="36.975" ry="37"/>
		<path fill="#FFE2CA" d="M396.26,413.879c0,0-0.789,2.655-3.168,2.655c-2.135,0-2.334-2.188-1.146-3.051
			C393.574,412.303,396.26,413.879,396.26,413.879z"/>
		<path fill="#FFE2CA" d="M390.098,410.573c-0.139,0.086-2.891,0.729-2.809,2.604c0.092,2.07,2.908,1.283,3.67,0.992
			c0.609-0.231,2.744-2.233,2.527-2.021L390.098,410.573z"/>
		<path fill="#FFE2CA" d="M390.395,409.861l-3.379-1.226c0,0-2.5,0.019-2.5,1.438c0,1.422,1.843,2.312,3.431,1.563
			C388.352,411.448,390.395,409.861,390.395,409.861z"/>
		<path fill="#C98659" d="M413.718,409.373c-0.059-0.15-1.283-5.602-2.67-10.175s-5.033-8.273-7.447-8.073
			c-2.414,0.201-4.056-1.384-5.493-1.384s-4.931,0.617-7.961,1.234c-3.028,0.616-5.03-0.874-5.03-0.874s-9.604,11.408-5.084,13.207
			s2.465,2.774,4.057,4.266c1.593,1.491,9.994,7.698,13.763,9.457c3.607,1.683,3.398-0.989,3.398-0.989
			c-1.978-0.556-4.185-3.029-4.273-3.134l0.246-0.217c0.021,0.024,1.95,2.398,3.994,3.041c4.107,1.194,3.258-1.337,2.871-1.632
			c-1.488-1.065-3.586-4.471-3.646-4.587l0.291-0.152c0.016,0.026,0.6,1.708,3.487,4.405c2.89,2.697,5.121,0.201,5.603-0.407
			c-2.002-1.425-5.06-5.63-5.188-5.81l0.267-0.19c0.03,0.043,3.625,4.722,5.114,5.733c1.65,1.123,2.58,1.701,4.07,0.353
			C415.188,412.521,413.902,409.85,413.718,409.373z"/>
		<path fill="#FFFFFF" d="M379.672,387.174c0.205,0,6.984,2.396,6.984,2.396l-6.984,19.049l-7.395-2.672L379.672,387.174z"/>
		<path fill="#414042" d="M383.299,385.666c-0.582-0.156-7.873-2.636-14.062-4.745c-3.628,5.724-5.736,12.506-5.736,19.784
			c0,3.138,0.396,6.183,1.129,9.092c3.97,1.562,7.263,2.851,7.716,3.002c1.231,0.411,1.78-0.137,2.123-0.685
			c0.342-0.55,8.832-24.051,8.832-24.051S384.326,385.939,383.299,385.666z"/>
		<path fill="#FFE2CA" d="M419.804,394.907c-0.104-0.053-4.412-1.861-6.981-1.723c-3.313,0.18-6.162-0.282-8.09-0.334
			c-1.927-0.051-3.156,0.438-4.493,0.873c-1.336,0.438-2.725,0.669-6.906,4.523c-2.519,2.133-0.412,3.57,1.746,3.57
			c1.357,0,2.517-0.206,3.438-0.898c0.925-0.693,2.464-2.235,4.059-2.235c1.592,0,7.961,5.27,11.145,10.688
			c0.129,0.025,4.008,0,4.008,0L419.804,394.907z"/>
		<polygon fill="#FFFFFF" points="418.751,393.186 415.72,393.186 415.72,414.102 420.548,413.484 418.804,393.799 		"/>
		<path fill="#414042" d="M437.449,400.705c0-3.08-0.383-6.068-1.092-8.931c-4.996-0.006-16.252-0.131-17.453-0.131
			c-1.539,0-1.129,1.079-1.129,1.9c0,0.822,1.182,22.66,1.182,23.178c0,0.822,0.051,1.027,1.797,0.873
			c1.029-0.091,7.715-0.539,13.074-0.901C436.148,411.854,437.449,406.432,437.449,400.705z"/>
	</g>
</g>
<g>
	<g>
		<path fill="#BAACA3" d="M400.5,28.001c-28.992,0-52.5,23.505-52.5,52.5C348,109.493,371.508,133,400.5,133S453,109.493,453,80.501
			C453,51.506,429.492,28.001,400.5,28.001z"/>
	</g>
	<g>
		<path fill="#E9D0D6" d="M425.255,77.057c-0.264,0-0.521,0.027-0.772,0.078c-0.431-1.221-0.984-2.396-1.658-3.511
			c0.188-0.169,0.383-0.32,0.563-0.504c3.494-3.494,5.832-6.818,3.55-9.104c-2.281-2.283-5.607,0.054-9.104,3.548
			c-0.08,0.081-0.143,0.171-0.225,0.253c-1.996-1.553-4.291-2.833-6.812-3.745c-0.24,1.562-1.578,2.758-3.203,2.758h-12.281
			c-1.625,0-2.965-1.196-3.204-2.758c-7.457,2.699-12.988,8.532-14.375,15.574c-1.089-0.17-2.166-0.487-3.109-1.041
			c1.547-1.714,1.547-4.568,1.547-6.055c0-1.943-1.738-3.251-3.356-3.251c-0.769,0-1.462,0.295-1.95,0.829
			c-0.535,0.583-0.809,1.396-0.809,2.422c0,2.394,0.615,4.333,1.832,5.79c-1.373,0.188-3.352-0.403-5.793-1.747
			c-0.375-0.212-0.857-0.072-1.071,0.311c-0.209,0.384-0.067,0.861,0.312,1.071c3.447,1.9,6.045,2.435,7.914,1.618
			c1.266,0.898,2.766,1.38,4.248,1.615c-0.064,0.622-0.109,1.256-0.109,1.896c0,5.627,2.629,10.721,6.881,14.444l-4.424,4.426
			c-1.137,1.135-1.137,2.978,0,4.114c1.138,1.136,2.98,1.136,4.115,0l5.236-5.236c3.594,1.83,7.772,2.9,12.257,2.9
			c5.024,0,9.688-1.325,13.553-3.588l5.922,5.924c1.138,1.136,2.98,1.136,4.115,0c1.137-1.135,1.137-2.979,0-4.114l-5.389-5.389
			c1.838-1.824,3.311-3.927,4.321-6.221c0.4,0.145,0.826,0.235,1.277,0.235c2.107,0,3.818-1.707,3.818-3.813V80.87
			C429.074,78.764,427.363,77.057,425.255,77.057z M373.373,77.63c-1.154-1.196-1.738-2.901-1.738-5.078
			c0-0.607,0.133-1.076,0.392-1.354c0.192-0.214,0.459-0.318,0.789-0.318c0.839,0,1.778,0.716,1.778,1.673
			C374.594,73.844,374.594,76.389,373.373,77.63z"/>
		<g>
			<path fill="#FFFFFF" d="M401.863,47.06c-4.357,0-7.887,3.532-7.887,7.892c0,4.358,3.528,7.891,7.887,7.891
				c4.36,0,7.893-3.532,7.893-7.891C409.755,50.592,406.224,47.06,401.863,47.06z M401.863,61.263c-3.482,0-6.311-2.825-6.311-6.312
				c0-3.487,2.827-6.313,6.311-6.313c3.489,0,6.313,2.825,6.313,6.313C408.177,58.438,405.353,61.263,401.863,61.263z"/>
			<g>
				<path fill="#FFFFFF" d="M401.515,57.317v-2.1c-0.655-0.186-1.134-0.47-1.438-0.849c-0.309-0.38-0.461-0.841-0.461-1.382
					c0-0.55,0.174-1.008,0.521-1.38c0.347-0.375,0.805-0.589,1.38-0.646v-0.496h0.728v0.496c0.529,0.064,0.953,0.245,1.266,0.544
					c0.314,0.3,0.517,0.7,0.605,1.2l-1.271,0.166c-0.076-0.396-0.276-0.662-0.6-0.803v1.96c0.803,0.217,1.346,0.5,1.639,0.844
					c0.291,0.347,0.438,0.79,0.438,1.332c0,0.604-0.187,1.112-0.552,1.525c-0.362,0.416-0.875,0.67-1.522,0.765v0.938h-0.729v-0.912
					c-0.579-0.07-1.048-0.287-1.407-0.647c-0.358-0.36-0.593-0.868-0.692-1.527l1.312-0.14c0.051,0.267,0.149,0.496,0.301,0.688
					C401.171,57.091,401.333,57.231,401.515,57.317z M401.515,52.056c-0.198,0.068-0.354,0.181-0.471,0.34
					c-0.119,0.16-0.176,0.338-0.176,0.532c0,0.177,0.053,0.343,0.16,0.493c0.104,0.152,0.27,0.275,0.485,0.368L401.515,52.056
					L401.515,52.056z M402.242,57.388c0.25-0.047,0.455-0.163,0.608-0.348c0.156-0.186,0.236-0.404,0.236-0.653
					c0-0.226-0.065-0.418-0.197-0.58c-0.131-0.161-0.348-0.286-0.647-0.373V57.388z"/>
			</g>
		</g>
	</g>
</g>
<polygon points="557,76 557,85 564,80.5 "/>
<polygon points="565,237 556,237 560.5,244 "/>
<g>
	<path fill="#E2DED5" d="M240.499,668.011c-28.992,0-52.5,23.506-52.5,52.5s23.508,52.5,52.5,52.5s52.5-23.506,52.5-52.5
		S269.491,668.011,240.499,668.011z"/>
	<g>
		<path fill="#9DBB73" d="M252.487,732.062c-4.219,0-4.148-1.435-5.828-1.435c-1.676,0-3.27,4.056-3.467,6.829
			c-0.195,2.76-0.945,19.381-0.789,19.535c0.152,0.152-2.848,0-2.848,0s0.35-5.981,0.578-9.771
			c0.229-3.791,0.293-7.287,0.293-10.104s-0.482-2.903-1.617-5.403c-1.139-2.504-3.527-0.347-6.783-0.347
			c-3.254,0-3.93-3.901-7.287-3.884c-3.361,0.018-5.832-1.836-8.104-4.946c-2.271-3.112,2.139-10.045,3.867-12.625
			c1.723-2.582,1.555-3.405,1.555-10.159c0-6.757,7.586-9.376,11.279-11.175c3.691-1.798,4.855-4.614,9.232-4.614
			c4.381,0,8.365,5.858,12,7.627c3.637,1.769,3.061,6.705,5.148,9.717c2.09,3.015,6.281,7.115,6.281,12.662
			C265.999,718.517,256.706,732.062,252.487,732.062z"/>
		<path fill="#E2DED5" d="M253.77,724.192c0,1.61-0.359,2.646-1.969,2.646c-1.611,0-1.971-0.779-1.971-2.391
			c0-1.612,1.094-1.643,1.971-0.984C251.862,723.454,253.77,722.065,253.77,724.192z"/>
		<path fill="#E2DED5" d="M241.985,690.166c0,1.609-0.359,2.646-1.971,2.646c-1.612,0-1.967-0.779-1.967-2.393
			s1.094-1.642,1.967-0.984C240.077,689.427,241.985,688.039,241.985,690.166z"/>
		<path fill="#E2DED5" d="M252.636,695.81c0,1.611-0.357,2.647-1.969,2.647s-1.969-0.78-1.969-2.393
			c0-1.611,1.092-1.642,1.969-0.983C250.727,695.071,252.636,693.683,252.636,695.81z"/>
		<path fill="#E2DED5" d="M230.517,710.513c-0.648,1.476-1.396,2.277-2.869,1.627c-1.475-0.65-1.49-1.51-0.836-2.982
			c0.65-1.475,1.664-1.061,2.199-0.105C229.069,709.067,231.376,708.565,230.517,710.513z"/>
		<path fill="#E2DED5" d="M243.948,716.667c-0.65,1.475-1.395,2.276-2.869,1.629c-1.475-0.651-1.486-1.51-0.834-2.983
			c0.646-1.474,1.66-1.06,2.195-0.104C242.503,715.222,244.806,714.722,243.948,716.667z"/>
		<path fill="#E2DED5" d="M234.569,698.691c-0.648,1.475-1.393,2.277-2.869,1.626c-1.473-0.648-1.486-1.509-0.836-2.98
			c0.65-1.477,1.664-1.061,2.199-0.106C233.122,697.245,235.429,696.745,234.569,698.691z"/>
		<path fill="#E2DED5" d="M226.421,719.583c0.324,1.578,0.184,2.664-1.396,2.988c-1.578,0.322-2.084-0.369-2.408-1.947
			c-0.326-1.576,0.74-1.826,1.73-1.359C224.405,719.243,225.993,717.499,226.421,719.583z"/>
		<path fill="#E2DED5" d="M247.831,703.44c0.322,1.577,0.184,2.663-1.396,2.987c-1.578,0.324-2.084-0.369-2.408-1.947
			c-0.326-1.577,0.74-1.825,1.729-1.359C245.813,703.099,247.401,701.356,247.831,703.44z"/>
		<path fill="#E2DED5" d="M258.989,710.479c0.324,1.578,0.184,2.664-1.396,2.99c-1.578,0.322-2.084-0.37-2.41-1.947
			c-0.324-1.578,0.742-1.827,1.732-1.359C256.974,710.14,258.561,708.396,258.989,710.479z"/>
		<path fill="#E2DED5" d="M241.056,731.393c0,0-3.328-3.169-3.131-4.193c0.195-1.024,4.535,0.574,6.76-0.358
			C246.907,725.907,243.579,730.519,241.056,731.393z"/>
	</g>
</g>
<g>
	<path fill="#E2DED5" d="M240.498,828.011c-28.992,0-52.498,23.505-52.498,52.5c0,28.994,23.506,52.5,52.498,52.5
		c28.996,0,52.502-23.506,52.502-52.5C293,851.516,269.494,828.011,240.498,828.011z"/>
	<g>
		
			<image overflow="visible" enable-background="new    " width="145" height="78" xlink:href="A6F1D19F26ECD8BF.png"  transform="matrix(0.9931 0 0 0.9872 168.4995 870.5107)">
		</image>
	</g>
	<g>
		<g>
			
				<image overflow="visible" opacity="0.5" enable-background="new    " width="30" height="30" xlink:href="A6F1D19F26ECD8BD.png"  transform="matrix(0.9333 0 0 0.9333 226.5664 883.5771)">
			</image>
			<g>
				<g>
					
						<linearGradient id="SVGID_1_" gradientUnits="userSpaceOnUse" x1="228.207" y1="728.291" x2="252.647" y2="728.291" gradientTransform="matrix(1 0 0 1 0 169)">
						<stop  offset="0" style="stop-color:#808184"/>
						<stop  offset="0.0552" style="stop-color:#D0D2D3"/>
						<stop  offset="0.1166" style="stop-color:#BBBDBF"/>
						<stop  offset="0.4663" style="stop-color:#E6E7E7"/>
						<stop  offset="0.8773" style="stop-color:#BBBDBF"/>
						<stop  offset="0.9571" style="stop-color:#D0D2D3"/>
						<stop  offset="1" style="stop-color:#6D6E70"/>
					</linearGradient>
					<path fill="url(#SVGID_1_)" d="M247.506,903.833l-0.658-16.601c0-1.077-2.77-2.584-3.922-2.584h-2.498h-2.5
						c-1.15,0-3.918,1.507-3.918,2.584l-0.662,16.601c-0.498,3.159-8.275,6.102-3.711,6.102h10.791h10.789
						C255.781,909.935,248.004,906.991,247.506,903.833z"/>
					
						<linearGradient id="SVGID_2_" gradientUnits="userSpaceOnUse" x1="240.4272" y1="740.6953" x2="240.4272" y2="715.4092" gradientTransform="matrix(1 0 0 1 0 169)">
						<stop  offset="0.0123" style="stop-color:#BBBDBF"/>
						<stop  offset="0.1043" style="stop-color:#BBBDBF"/>
						<stop  offset="0.1502" style="stop-color:#A0A1A4"/>
						<stop  offset="0.1963" style="stop-color:#808184"/>
						<stop  offset="0.2515" style="stop-color:#E6E7E7"/>
						<stop  offset="0.3681" style="stop-color:#BBBDBF"/>
						<stop  offset="0.4724" style="stop-color:#58595B"/>
					</linearGradient>
					<path fill="url(#SVGID_2_)" d="M247.506,903.593l-0.658-16.602c0-1.076-2.77-2.582-3.922-2.582h-2.498h-2.5
						c-1.15,0-3.918,1.506-3.918,2.582l-0.662,16.602c-0.498,3.158-8.275,6.103-3.711,6.103h10.791h10.789
						C255.781,909.694,248.004,906.751,247.506,903.593z"/>
				</g>
			</g>
		</g>
		<path fill="#231F20" d="M275.707,897.265c0,1.107-0.912,2.005-2.035,2.005h-66.344c-1.123,0-2.035-0.896-2.035-2.005v-39.002
			c0-1.106,0.912-2.006,2.035-2.006h66.344c1.123,0,2.035,0.898,2.035,2.006V897.265z"/>
		<rect x="208.174" y="858.89" fill="#8E8E8E" width="64.65" height="37.167"/>
		<g>
			<g>
				<g>
					<g>
						<defs>
							<rect id="SVGID_3_" x="239.791" y="896.785" width="1.287" height="1.678"/>
						</defs>
						<clipPath id="SVGID_4_">
							<use xlink:href="#SVGID_3_"  overflow="visible"/>
						</clipPath>
						<path clip-path="url(#SVGID_4_)" fill="#E6E7E7" d="M240.863,897.677c0-0.213,0.164-0.313,0.172-0.319
							c-0.092-0.146-0.236-0.162-0.289-0.166c-0.121-0.015-0.238,0.076-0.301,0.076s-0.16-0.074-0.262-0.072
							c-0.135,0.002-0.258,0.084-0.328,0.212c-0.137,0.256-0.033,0.637,0.104,0.846c0.066,0.103,0.145,0.217,0.248,0.212
							c0.098-0.005,0.139-0.068,0.258-0.068c0.119,0,0.156,0.068,0.262,0.066c0.107-0.003,0.176-0.104,0.242-0.206
							c0.074-0.119,0.107-0.232,0.109-0.237C241.076,898.015,240.865,897.931,240.863,897.677"/>
					</g>
				</g>
			</g>
			<path fill="#E6E7E7" d="M240.668,897.053c0.053-0.07,0.09-0.17,0.08-0.268c-0.078,0.003-0.176,0.056-0.232,0.126
				c-0.051,0.062-0.096,0.164-0.082,0.261C240.519,897.179,240.611,897.124,240.668,897.053"/>
		</g>
		
			<linearGradient id="SVGID_5_" gradientUnits="userSpaceOnUse" x1="240.6587" y1="729.3594" x2="281.7794" y2="696.0605" gradientTransform="matrix(1 0 0 1 0 169)">
			<stop  offset="0" style="stop-color:#FFFFFF;stop-opacity:0"/>
			<stop  offset="0.9104" style="stop-color:#FFFFFF;stop-opacity:0.9104"/>
			<stop  offset="1" style="stop-color:#FFFFFF"/>
		</linearGradient>
		<path opacity="0.25" fill="url(#SVGID_5_)" enable-background="new    " d="M273.672,856.257h-15.889l-16.387,43.013h32.275
			c1.123,0,2.035-0.896,2.035-2.005v-39.002C275.707,857.155,274.795,856.257,273.672,856.257z"/>
		
			<linearGradient id="SVGID_6_" gradientUnits="userSpaceOnUse" x1="240.167" y1="687.9883" x2="240.6893" y2="688.2544" gradientTransform="matrix(1 0 0 1 0 169)">
			<stop  offset="0" style="stop-color:#FFFFFF;stop-opacity:0"/>
			<stop  offset="1" style="stop-color:#FFFFFF"/>
		</linearGradient>
		<circle opacity="0.12" fill="url(#SVGID_6_)" enable-background="new    " cx="240.428" cy="857.122" r="0.293"/>
	</g>
</g>
<g>
	<g>
		<path fill="#E2DED5" d="M400.501,508C371.508,508,348,531.505,348,560.5c0,28.994,23.508,52.5,52.501,52.5
			C429.496,613,453,589.494,453,560.5C453,531.505,429.496,508,400.501,508z"/>
	</g>
	<g>
		<circle fill="#231F20" cx="400.389" cy="542.001" r="6.431"/>
		<g id="XMLID_3_">
			<g>
				<path d="M400.71,523.498c20.338,0.11,36.791,16.64,36.791,37c0,20.436-16.564,36.999-36.996,36.999c-0.052,0-0.104,0-0.156,0
					c-0.019,0-0.032,0-0.053,0c-10.119-0.11-18.296-8.351-18.296-18.499c0-10.132,8.153-18.369,18.263-18.493l0.48-0.007
					c10.104-0.127,18.26-8.361,18.26-18.5C419.003,531.855,410.832,523.609,400.71,523.498z"/>
			</g>
		</g>
		<path fill="none" stroke="#000000" stroke-width="0.9044" stroke-linecap="round" stroke-linejoin="round" d="M437.5,560.501
			c0,20.433-16.564,36.999-36.996,36.999c-20.435,0-37.003-16.566-37.003-36.999c0-20.436,16.568-37,37.003-37
			C420.935,523.501,437.5,540.066,437.5,560.501z"/>
		<circle fill="#E2DED5" cx="400.389" cy="578.998" r="6.431"/>
	</g>
</g>
<g>
	<path fill="#7A8080" d="M445.22,718.64c2.979,17.015-18.217,45.831-44.707,46.871c-26.494-2.433-47.846-21.196-44.705-46.871
		c3.311-27.08,21.525-44.44,44.377-43.052C430.316,679.061,439.259,688.782,445.22,718.64z"/>
	<g>
		<rect x="376.32" y="715.249" fill="#E6E7E8" width="48.358" height="7.5"/>
		<rect x="377.962" y="722.749" fill="#E6E7E8" width="45.075" height="23.04"/>
		<g>
			<path fill="#F9F9F9" d="M414.871,695.254c-7.605,0.405-11.744,11.835-11.744,11.835c-1.035,2.35-3.779,7.562,8.955,5.176
				c12.732-2.386,14.174-6.166,14.309-9.046C426.526,700.339,422.474,694.849,414.871,695.254z M419.257,706.396
				c-1.213,0.986-3.979,2.411-10.27,3.59c-1.945,0.363-3.558,0.549-4.787,0.549c-0.197,0-0.373-0.004-0.529-0.013
				c0.074-0.173,0.146-0.331,0.199-0.45l0.17-0.383l0.041-0.113c0.873-2.379,4.324-9.241,8.551-9.467
				c0.201-0.012,0.402-0.017,0.601-0.017c2.729,0,4.491,1.019,5.489,1.872c1.158,0.989,1.607,2.032,1.644,2.375
				C420.33,705.047,420.218,705.614,419.257,706.396z"/>
			<path fill="#F9F9F9" d="M374.609,703.219c0.135,2.88,1.573,6.66,14.31,9.046c12.735,2.386,9.989-2.827,8.954-5.176
				c0,0-4.139-11.43-11.744-11.835C378.524,694.849,374.475,700.339,374.609,703.219z M380.637,704.34
				c0.033-0.343,0.483-1.386,1.644-2.375c0.998-0.854,2.762-1.872,5.489-1.872c0.195,0,0.397,0.005,0.6,0.017
				c4.228,0.226,7.678,7.088,8.552,9.468l0.041,0.112l0.17,0.384c0.053,0.118,0.125,0.276,0.197,0.448
				c-0.156,0.011-0.33,0.015-0.527,0.015c-1.229,0-2.843-0.187-4.787-0.55c-6.291-1.179-9.059-2.604-10.271-3.591
				C380.781,705.614,380.672,705.047,380.637,704.34z"/>
			<circle fill="#F9F9F9" cx="400.499" cy="709.564" r="4.05"/>
		</g>
		<g>
			<g>
				<g>
					<defs>
						<rect id="SVGID_7_" x="377.962" y="722.749" width="45.075" height="23.04"/>
					</defs>
					<clipPath id="SVGID_8_">
						<use xlink:href="#SVGID_7_"  overflow="visible"/>
					</clipPath>
					<g clip-path="url(#SVGID_8_)">
						<g>
							
								<rect x="420.804" y="715.745" transform="matrix(0.7657 0.6432 -0.6432 0.7657 575.9458 -98.0792)" fill="#EF4D58" width="3.602" height="51.612"/>
						</g>
						<g>
							
								<rect x="415.063" y="710.997" transform="matrix(0.7661 0.6427 -0.6427 0.7661 571.4031 -95.4692)" fill="#EF4D58" width="3.602" height="52.605"/>
						</g>
						<g>
							
								<rect x="408.075" y="705.824" transform="matrix(0.766 0.6428 -0.6428 0.766 567.9944 -91.6429)" fill="#EF4D58" width="3.6" height="57.067"/>
						</g>
						<g>
							
								<rect x="400.178" y="700.35" transform="matrix(0.7662 0.6426 -0.6426 0.7662 564.7836 -87.0107)" fill="#EF4D58" width="3.6" height="64.75"/>
						</g>
						<g>
							
								<rect x="394.606" y="695.723" transform="matrix(0.766 0.6428 -0.6428 0.766 560.8171 -84.4495)" fill="#EF4D58" width="3.6" height="64.746"/>
						</g>
						<g>
							
								<rect x="388.99" y="691.107" transform="matrix(0.7659 0.643 -0.643 0.7659 556.6774 -81.8899)" fill="#EF4D58" width="3.6" height="64.752"/>
						</g>
						<g>
							
								<rect x="383.499" y="686.46" transform="matrix(0.7664 0.6424 -0.6424 0.7664 551.7677 -79.5798)" fill="#EF4D58" width="3.598" height="64.754"/>
						</g>
						<g>
							
								<rect x="379.228" y="682.158" transform="matrix(0.7659 0.6429 -0.6429 0.7659 547.3496 -78.1683)" fill="#EF4D58" width="3.597" height="60.909"/>
						</g>
					</g>
				</g>
			</g>
		</g>
		<g>
			<g>
				<g>
					<defs>
						<rect id="SVGID_9_" x="376.32" y="715.249" width="48.358" height="7.5"/>
					</defs>
					<clipPath id="SVGID_10_">
						<use xlink:href="#SVGID_9_"  overflow="visible"/>
					</clipPath>
					<g clip-path="url(#SVGID_10_)">
						<g>
							
								<rect x="425.196" y="717.337" transform="matrix(0.7664 0.6424 -0.6424 0.7664 575.5266 -101.2783)" fill="#EF4D58" width="3.601" height="46.467"/>
						</g>
						<g>
							
								<rect x="417.22" y="711.84" transform="matrix(0.7661 0.6427 -0.6427 0.7661 573.0366 -96.4341)" fill="#EF4D58" width="3.6" height="54.604"/>
						</g>
						<g>
							
								<rect x="411.532" y="707.147" transform="matrix(0.7661 0.6427 -0.6427 0.7661 568.8142 -93.8309)" fill="#EF4D58" width="3.6" height="54.992"/>
						</g>
						<g>
							
								<rect x="402.826" y="701.402" transform="matrix(0.766 0.6429 -0.6429 0.766 566.4214 -88.3993)" fill="#EF4D58" width="3.602" height="64.754"/>
						</g>
						<g>
							
								<rect x="397.26" y="696.686" transform="matrix(0.7664 0.6424 -0.6424 0.7664 561.6055 -86.0208)" fill="#EF4D58" width="3.601" height="64.751"/>
						</g>
						<g>
							
								<rect x="391.937" y="692.175" transform="matrix(0.7661 0.6427 -0.6427 0.7661 557.7443 -83.598)" fill="#EF4D58" width="3.6" height="64.748"/>
						</g>
						<g>
							
								<rect x="386.28" y="687.518" transform="matrix(0.7659 0.643 -0.643 0.7659 553.7635 -80.9822)" fill="#EF4D58" width="3.601" height="64.755"/>
						</g>
						<g>
							
								<rect x="380.903" y="682.92" transform="matrix(0.7661 0.6427 -0.6427 0.7661 549.2155 -78.6713)" fill="#EF4D58" width="3.6" height="64.747"/>
						</g>
					</g>
				</g>
			</g>
		</g>
		<rect x="395.641" y="714.649" fill="#F9F9F9" width="9.721" height="8.101"/>
		<rect x="396.359" y="722.749" fill="#F9F9F9" width="8.278" height="23.04"/>
		<rect x="377.962" y="722.749" fill="#231F20" fill-opacity="0.3" width="45.075" height="1.08"/>
	</g>
</g>
<g>
	<path fill="#FFFFFF" d="M389.501,877.387c0,2.104,0.818,4.084,2.308,5.57c1.487,1.487,3.468,2.309,5.569,2.309
		c1.873,0,3.646-0.653,5.062-1.848l1.289,1.288c-0.273,0.65-0.148,1.431,0.379,1.962l4.319,4.317c0.697,0.698,1.83,0.698,2.527,0
		l0.021-0.021c0.697-0.699,0.697-1.83,0-2.529l-4.319-4.317c-0.529-0.53-1.31-0.655-1.959-0.381l-1.291-1.289
		c2.598-3.092,2.446-7.726-0.459-10.631c-1.488-1.488-3.466-2.31-5.57-2.31c-2.104,0-4.082,0.82-5.57,2.31
		C390.319,873.305,389.501,875.282,389.501,877.387z M391.141,877.387c0-1.666,0.647-3.231,1.826-4.41
		c1.18-1.18,2.745-1.827,4.411-1.827s3.231,0.647,4.413,1.827c2.432,2.434,2.432,6.393,0,8.822
		c-1.182,1.181-2.747,1.828-4.413,1.828s-3.23-0.647-4.411-1.828C391.788,880.621,391.141,879.055,391.141,877.387z"/>
</g>
<g>
	<path fill="#414042" d="M538.503,875.016c0,2.104,0.818,4.084,2.308,5.57c1.487,1.487,3.468,2.309,5.569,2.309
		c1.873,0,3.646-0.653,5.062-1.848l1.289,1.288c-0.273,0.65-0.148,1.431,0.379,1.962l4.319,4.317c0.697,0.698,1.83,0.698,2.527,0
		l0.021-0.021c0.697-0.699,0.697-1.83,0-2.529l-4.319-4.317c-0.529-0.53-1.31-0.655-1.959-0.381l-1.291-1.289
		c2.598-3.092,2.446-7.726-0.459-10.631c-1.488-1.488-3.466-2.31-5.57-2.31c-2.104,0-4.082,0.82-5.57,2.31
		C539.321,870.934,538.503,872.911,538.503,875.016z M540.143,875.016c0-1.666,0.647-3.231,1.826-4.41
		c1.18-1.18,2.745-1.827,4.411-1.827s3.231,0.647,4.413,1.827c2.432,2.434,2.432,6.393,0,8.822
		c-1.182,1.181-2.747,1.828-4.413,1.828s-3.23-0.647-4.411-1.828C540.79,878.25,540.143,876.684,540.143,875.016z"/>
</g>
<polygon points="557,390.5 564,395 564,386 "/>
<g>
	<path fill="#67A7A5" d="M548.484,560.462h0.547c1.484,0,2.818,0.566,4.004,1.699c1.185,1.133,1.777,2.546,1.777,4.238
		c0,1.667-0.593,3.041-1.777,4.121c-1.186,1.081-2.65,1.621-4.395,1.621c-1.901,0-3.483-0.762-4.746-2.285
		c-1.264-1.523-1.895-3.691-1.895-6.504c0-2.578,0.553-4.993,1.66-7.246c1.106-2.252,2.461-4.036,4.062-5.352
		c1.602-1.314,3.027-1.973,4.277-1.973c0.833,0,1.484,0.248,1.953,0.742c0.469,0.495,0.703,1.133,0.703,1.914
		c0,1.146-0.508,1.992-1.523,2.539c-1.381,0.756-2.475,1.641-3.281,2.656C549.044,557.649,548.588,558.926,548.484,560.462z
		 M565.75,560.462h0.508c1.458,0,2.779,0.566,3.965,1.699c1.185,1.133,1.777,2.546,1.777,4.238c0,1.641-0.593,3.021-1.777,4.141
		c-1.186,1.12-2.65,1.68-4.395,1.68c-1.928,0-3.516-0.781-4.766-2.344s-1.875-3.736-1.875-6.523c0-2.005,0.325-3.893,0.977-5.664
		c0.65-1.771,1.49-3.313,2.52-4.629c1.028-1.314,2.135-2.356,3.32-3.125c1.185-0.768,2.246-1.152,3.184-1.152
		c0.859,0,1.517,0.241,1.973,0.723c0.455,0.482,0.684,1.127,0.684,1.934c0,1.172-0.508,2.019-1.523,2.539
		c-1.433,0.808-2.514,1.699-3.242,2.676C566.349,557.63,565.906,558.899,565.75,560.462z"/>
</g>
</svg>
