<svg xmlns="http://www.w3.org/2000/svg" xmlns:xlink="http://www.w3.org/1999/xlink" width="800" height="960" viewBox="0 0 800 960"><path opacity=".25" fill="#EB212E" d="M.5.5h1v1h-1zM799 959h1v1h-1z"/><path fill="#F9F9F9" d="M80 50c-16.568 0-30 13.432-30 30 0 16.567 13.432 30 30 30 16.57 0 30-13.433 30-30 0-16.568-13.43-30-30-30zm0 57c-14.888 0-27-12.112-27-27 0-14.386 11.307-26.175 25.5-26.956v40.358l-8.65-8.965-2.178 1.704 12.33 12.98 12.326-12.98-2.18-1.703-8.648 8.966v-40.36C95.693 53.826 107 65.614 107 80c0 14.888-12.112 27-27 27z"/><path fill="#414042" d="M239.998 50C223.432 50 210 63.432 210 80c0 16.567 13.432 30 29.998 30C256.568 110 270 96.567 270 80c0-16.568-13.432-30-30.002-30zm0 57C225.11 107 213 94.888 213 80c0-14.386 11.307-26.175 25.5-26.956v40.358l-8.65-8.965-2.178 1.704L240 99.12l12.328-12.978-2.18-1.704-8.648 8.966v-40.36c14.19.78 25.5 12.57 25.5 26.956 0 14.888-12.113 27-27.002 27z"/><g fill="#FFF"><path d="M83.257 230.588h1.3v4.886c0 .15.03.26.08.326.057.07.147.104.267.104.096 0 .218-.046.365-.134.143-.092.276-.204.4-.345v-4.838h1.3v6.372h-1.3v-.706c-.24.26-.49.46-.75.594-.26.133-.512.207-.756.207-.303 0-.526-.1-.68-.29-.152-.188-.228-.473-.228-.85v-5.327zM74.876 228.323l.952 3.453h.09l.91-3.453h1.487l-1.704 5.057v3.58h-1.464v-3.422l-1.746-5.215M81.686 230.89c-.345-.306-.786-.46-1.324-.46-.59 0-1.065.146-1.414.438-.35.29-.525.683-.525 1.176v3.304c0 .54.172.972.512 1.29.343.322.8.485 1.366.485.594 0 1.058-.156 1.397-.466.336-.313.502-.737.502-1.284v-3.292c0-.48-.17-.882-.514-1.19zm-.813 4.58c0 .17-.053.306-.156.403-.104.098-.243.146-.42.146-.17 0-.304-.046-.395-.147-.094-.097-.143-.23-.143-.404v-3.473c0-.14.052-.25.15-.337.1-.087.228-.128.386-.128.173 0 .312.04.418.128s.158.196.158.337v3.472zM86.612 243.366c-.184 0-.315.054-.396.16-.08.103-.12.278-.12.52v.584h1.022v-.583c0-.24-.04-.418-.12-.52-.078-.107-.21-.16-.386-.16zM82.625 243.346c-.082 0-.164.02-.244.057-.08.04-.16.1-.238.18v3.605c.094.094.185.165.273.204.09.04.183.063.28.063.14 0 .244-.04.312-.125.064-.082.098-.212.098-.397v-2.987c0-.196-.04-.344-.122-.445-.082-.103-.204-.154-.358-.154z"/><path d="M87.752 238.968H73.244c-2.306 0-4.17 1.873-4.17 4.178v3.356c0 2.305 1.864 4.177 4.17 4.177h14.508c2.304 0 4.175-1.873 4.175-4.178v-3.356c0-2.305-1.87-4.178-4.175-4.178zm-11.46 2.616h-1.35v6.702h-1.3v-6.702h-1.348v-1.144h3.998v1.144zm3.812 6.702h-1.156v-.64c-.215.235-.436.415-.668.537-.23.127-.455.185-.67.185-.27 0-.47-.082-.604-.26-.134-.173-.204-.428-.204-.773V242.5h1.156v4.437c0 .137.025.234.073.294.05.065.13.094.237.094.083 0 .19-.037.32-.118.132-.085.25-.188.36-.314V242.5h1.156v5.786zm4.192-1.195c0 .408-.09.72-.27.94-.18.22-.445.326-.786.326-.227 0-.428-.04-.604-.125-.176-.084-.346-.212-.495-.39v.444h-1.17v-7.846h1.17v2.525c.158-.172.322-.31.496-.4.177-.092.354-.137.533-.137.365 0 .645.122.838.367.194.25.287.606.287 1.083v3.215zm4.013-1.558h-2.214v1.088c0 .304.036.516.113.636.075.12.206.176.39.176.19 0 .327-.05.404-.15.074-.1.113-.32.113-.66v-.264h1.19v.296c0 .595-.142 1.04-.437 1.343-.287.3-.72.445-1.298.445-.517 0-.926-.153-1.224-.477-.295-.315-.446-.753-.446-1.313v-2.598c0-.5.164-.91.49-1.228.33-.314.75-.47 1.267-.47.53 0 .937.144 1.22.437.285.292.428.71.428 1.26v1.48z"/></g><path fill="#FFF" d="M80.5 223.75c8.684 0 15.75 7.064 15.75 15.75 0 8.685-7.066 15.75-15.75 15.75s-15.75-7.065-15.75-15.75c0-8.686 7.065-15.75 15.75-15.75m0-1.75c-9.665 0-17.5 7.836-17.5 17.5 0 9.666 7.835 17.5 17.5 17.5S98 249.166 98 239.5c0-9.664-7.835-17.5-17.5-17.5z"/><g fill="#414042"><path d="M243.257 230.588h1.3v4.886c0 .15.03.26.08.326.057.07.147.104.267.104.096 0 .218-.046.365-.134.143-.092.276-.204.4-.345v-4.838h1.3v6.372h-1.3v-.706c-.24.26-.49.46-.75.594-.26.133-.512.207-.756.207-.303 0-.526-.1-.68-.29-.152-.188-.228-.473-.228-.85v-5.327zM234.876 228.323l.95 3.453h.093l.908-3.453h1.486l-1.704 5.057v3.58h-1.465v-3.422l-1.746-5.215M241.685 230.89c-.345-.306-.786-.46-1.324-.46-.59 0-1.064.146-1.413.438-.35.29-.525.683-.525 1.176v3.304c0 .54.172.972.512 1.29.343.322.8.485 1.366.485.593 0 1.057-.156 1.396-.466.336-.313.502-.737.502-1.284v-3.292c0-.48-.17-.882-.513-1.19zm-.812 4.58c0 .17-.053.306-.156.403-.104.098-.243.146-.42.146-.17 0-.304-.046-.395-.147-.094-.097-.143-.23-.143-.404v-3.473c0-.14.052-.25.15-.337.1-.087.228-.128.386-.128.173 0 .312.04.418.128s.158.196.158.337v3.472zM246.61 243.366c-.183 0-.314.054-.395.16-.08.103-.12.278-.12.52v.584h1.022v-.583c0-.24-.04-.418-.12-.52-.077-.107-.21-.16-.386-.16zM242.625 243.346c-.082 0-.164.02-.244.057-.08.04-.16.1-.238.18v3.605c.094.094.185.165.273.204.09.04.183.063.28.063.14 0 .244-.04.312-.125.064-.082.098-.212.098-.397v-2.987c0-.196-.04-.344-.122-.445s-.205-.154-.358-.154z"/><path d="M247.752 238.968h-14.508c-2.306 0-4.17 1.873-4.17 4.178v3.356c0 2.305 1.864 4.177 4.17 4.177h14.508c2.304 0 4.175-1.873 4.175-4.178v-3.356c0-2.305-1.87-4.178-4.175-4.178zm-11.46 2.616h-1.35v6.702h-1.3v-6.702h-1.348v-1.144h3.998v1.144zm3.81 6.702h-1.155v-.64c-.215.235-.436.415-.668.537-.23.127-.456.185-.67.185-.27 0-.47-.082-.605-.26-.134-.173-.204-.428-.204-.773V242.5h1.157v4.437c0 .137.025.234.073.294.048.065.128.094.236.094.083 0 .19-.037.32-.118.132-.085.25-.188.36-.314V242.5h1.156v5.786zm4.194-1.195c0 .408-.09.72-.27.94-.18.22-.445.326-.786.326-.227 0-.428-.04-.604-.125-.176-.084-.346-.212-.495-.39v.444h-1.17v-7.846h1.17v2.525c.158-.172.322-.31.496-.4.177-.092.354-.137.533-.137.365 0 .645.122.838.367.194.25.287.606.287 1.083v3.215zm4.013-1.558h-2.214v1.088c0 .304.036.516.113.636.075.12.206.176.39.176.19 0 .327-.05.404-.15.074-.1.113-.32.113-.66v-.264h1.19v.296c0 .595-.142 1.04-.437 1.343-.287.3-.72.445-1.298.445-.517 0-.926-.153-1.224-.477-.295-.315-.446-.753-.446-1.313v-2.598c0-.5.164-.91.49-1.228.33-.314.75-.47 1.267-.47.53 0 .937.144 1.22.437.285.292.428.71.428 1.26v1.48z"/></g><path fill="#414042" d="M240.5 223.75c8.684 0 15.75 7.064 15.75 15.75 0 8.685-7.066 15.75-15.75 15.75s-15.75-7.065-15.75-15.75c0-8.686 7.064-15.75 15.75-15.75m0-1.75c-9.665 0-17.5 7.836-17.5 17.5 0 9.666 7.835 17.5 17.5 17.5s17.5-7.834 17.5-17.5c0-9.664-7.835-17.5-17.5-17.5z"/><path fill="#FFF" d="M84.25 400.506h-2.453v8.744h-3.633v-8.744h-1.728v-3.09h1.728v-1.998c0-1.433.68-3.67 3.667-3.67l2.692.012v3H82.57c-.32 0-.772.158-.772.84v1.817h2.77l-.318 3.09z"/><path fill="#FFF" d="M80.5 384.75c8.685 0 15.75 7.063 15.75 15.75 0 8.685-7.065 15.75-15.75 15.75-8.684 0-15.75-7.065-15.75-15.75 0-8.686 7.066-15.75 15.75-15.75m0-1.75c-9.664 0-17.5 7.836-17.5 17.5 0 9.666 7.835 17.5 17.5 17.5 9.666 0 17.5-7.834 17.5-17.5 0-9.664-7.834-17.5-17.5-17.5z"/><path fill="#414042" d="M244.248 400.506h-2.453v8.744h-3.633v-8.744h-1.73v-3.09h1.73v-1.998c0-1.433.68-3.67 3.666-3.67l2.69.012v3h-1.952s-.77.158-.77.84v1.817h2.77l-.318 3.09z"/><path fill="#414042" d="M240.498 384.75c8.686 0 15.752 7.063 15.752 15.75 0 8.685-7.066 15.75-15.752 15.75-8.684 0-15.75-7.065-15.75-15.75 0-8.686 7.066-15.75 15.75-15.75m0-1.75c-9.664 0-17.498 7.836-17.498 17.5 0 9.666 7.834 17.5 17.498 17.5 9.666 0 17.502-7.834 17.502-17.5 0-9.664-7.836-17.5-17.502-17.5z"/><path fill="#FFF" d="M80.5 544.75c8.685 0 15.75 7.063 15.75 15.75 0 8.686-7.065 15.75-15.75 15.75s-15.75-7.064-15.75-15.75 7.065-15.75 15.75-15.75m0-1.75c-9.664 0-17.5 7.836-17.5 17.5 0 9.666 7.835 17.5 17.5 17.5S98 570.166 98 560.5c0-9.664-7.836-17.5-17.5-17.5z"/><path fill="#FFF" d="M87.457 556.932c.01.153.01.31.01.463 0 4.745-3.61 10.217-10.214 10.217-2.028 0-3.915-.594-5.503-1.61.28.03.566.048.856.048 1.683 0 3.23-.57 4.458-1.534-1.57-.03-2.896-1.07-3.354-2.493.22.04.444.062.676.062.33 0 .646-.046.946-.125-1.64-.332-2.88-1.782-2.88-3.52v-.046c.485.27 1.04.43 1.626.448-.963-.645-1.597-1.743-1.597-2.99 0-.656.18-1.273.487-1.803 1.77 2.17 4.417 3.6 7.4 3.75-.06-.264-.092-.536-.092-.818 0-1.982 1.606-3.59 3.59-3.59 1.033 0 1.966.437 2.62 1.133.818-.16 1.587-.46 2.282-.87-.27.84-.837 1.54-1.58 1.984.728-.085 1.42-.28 2.063-.563-.48.717-1.09 1.35-1.793 1.855z"/><path fill="#414042" d="M240.5 544.75c8.685 0 15.75 7.063 15.75 15.75 0 8.686-7.065 15.75-15.75 15.75-8.686 0-15.75-7.064-15.75-15.75s7.064-15.75 15.75-15.75m0-1.75c-9.664 0-17.5 7.836-17.5 17.5 0 9.666 7.836 17.5 17.5 17.5s17.5-7.834 17.5-17.5c0-9.664-7.836-17.5-17.5-17.5z"/><path fill="#414042" d="M247.457 556.932c.01.153.012.31.012.463 0 4.745-3.61 10.217-10.216 10.217-2.028 0-3.915-.594-5.504-1.61.28.03.566.048.857.048 1.682 0 3.23-.57 4.457-1.534-1.57-.03-2.896-1.07-3.354-2.493.22.04.443.062.676.062.328 0 .645-.046.945-.125-1.64-.332-2.878-1.782-2.878-3.52v-.046c.484.27 1.038.43 1.625.448-.963-.645-1.596-1.743-1.596-2.99 0-.656.18-1.273.486-1.803 1.77 2.17 4.417 3.6 7.4 3.75-.06-.264-.093-.536-.093-.818 0-1.982 1.606-3.59 3.59-3.59 1.033 0 1.967.437 2.62 1.133.817-.16 1.587-.46 2.282-.87-.27.84-.838 1.54-1.58 1.984.727-.085 1.42-.28 2.062-.563-.478.717-1.087 1.35-1.79 1.855z"/><g fill="#FFF"><path d="M42.966 739.862c-.013-.01-.043-.028-.08-.056-.053-.034-.125-.084-.174-.12-2.12-1.574-3.246-4.268-3.543-8.473-.212-2.936-.043-5.967.12-8.898.038-.674.076-1.345.108-2.013l.04-.803.078-1.578.004-.086c.068-1.336.002-1.645-.17-1.826-.09-.093-.207-.145-.332-.145-.328 0-.52.294-.58.405-.248.424-.5 1.23-.694 1.88l-.04.133c-.107.312-.214.622-.32.935-.456 1.33-.927 2.708-1.48 4.018-.026.058-.053.124-.084.196-.265.642-1.066 2.576-1.85 2.612.552-2.25 1.03-4.46 1.034-6.72 0-2.648-.636-4.08-1.892-4.254-.074-.01-.15-.017-.22-.017-2.04 0-2.142 3.807-2.176 5.057v.058c-.06 2.136.08 4.77 1.646 6.385-.977 4.35-2.395 8.93-4.33 13.985-.06.15-.04.316.053.454.108.158.315.267.517.267.214 0 .393-.118.47-.31 0 0 .15-.385.208-.528.188-.48.372-.96.553-1.44.48-1.27.944-2.552 1.382-3.812 1.032-2.974 1.81-5.482 2.433-7.856.096.017.19.024.287.024 1.736 0 2.708-2.614 3.23-4.02.032-.09.062-.17.09-.244.292-.77.563-1.552.824-2.33-.01.08-.017.157-.024.235-.28 2.796-.567 5.687-.466 8.55.198 5.642 1.797 9.43 4.74 11.25l.12.074h.125c.372 0 .52-.432.538-.48.08-.24-.024-.424-.147-.512zm-10.68-18.534c.06-1.13.235-2.178.52-3.113 0-.004.002-.01.004-.015.238.938.247 1.948.232 2.854-.02 1.27-.126 2.495-.312 3.66-.492-1.11-.498-2.416-.445-3.386z"/><path d="M63.222 718.252c-.09-.195-.31-.405-.582-.405-.134 0-.258.053-.354.148-.18.187-4.847 4.994-7.657 7.877-.27-.558-.726-.898-1.294-.947-.052-.005-.104-.007-.156-.007-.648 0-1.21.335-1.705.63l-.184.107c-.147.086-.29.188-.428.286-.14.1-.36.257-.478.3-.003-.007-.006-.015-.01-.02.558-.527 1.19-1.13 1.81-1.73.085-.084.188-.18.3-.28.85-.78 2.273-2.09 1.514-3.358-.196-.31-.505-.48-.87-.48-1.43 0-3.477 2.636-3.496 2.662-.687.98-.98 1.98-.873 2.986-1.33 1.264-2.397 2.2-3.252 2.854-1.06.79-1.848 1.19-2.34 1.19h-.003c-.142 0-.42-.005-.51-.61 1.264-1.08 2.537-2.284 3.418-3.742.76-1.257.762-2.378.006-3.003l-.016-.015-.016-.01c-.24-.164-.5-.247-.775-.247-1.254 0-2.396 1.775-3.133 3.267-.398.806-.906 2.014-.83 3.37-.14.125-.282.245-.42.36-.16.13-.215.35-.142.554.076.21.292.424.56.424.1 0 .196-.03.276-.088.375.815 1.042.954 1.453.954.814 0 1.872-.504 3.144-1.5.32-.224 2.06-1.643 3.005-2.463.308.428.706.53 1.02.53.604 0 1.24-.373 1.853-.733.392-.23.797-.47 1.07-.527.013.01.07.085.093.264.035.25-.023.48-.06.53-.844.86-1.69 1.72-2.537 2.577-1.646 1.666-3.076 3.203-3.903 5.153-.746 1.76-.686 3.117.17 3.822.295.245.633.37 1.005.37.95 0 1.868-.82 2.562-1.532 2.868-2.95 4.452-6.596 4.46-10.264.01-.135.372-.47.526-.61.097-.088.188-.172.265-.253l1.34-1.42c.877-.93 1.755-1.856 2.637-2.78l3.47-3.64c.13-.146.155-.357.067-.55zM48.05 736.05c.223-.655.57-1.316 1.123-2.146 1.01-1.514 2.33-2.866 3.602-4.178l.235-.24c-.38 2.064-1.184 3.923-2.395 5.53l-.107.146c-1.678 2.276-2.338 2.52-2.544 2.52-.017 0-.028 0-.038-.005-.188-.288-.147-.836.123-1.627zm4.717-14.193c-.213.354-.773 1.055-2.193 2.427.143-.272.332-.56.566-.855.418-.53 1.176-1.284 1.627-1.573zM45.15 724.1c.02.47-.524 1.25-.748 1.575l-.074.105c-.387.565-.845 1.13-1.402 1.728.224-.596.538-1.157.824-1.63.296-.49 1.01-1.447 1.4-1.78zM77.03 729.39c-.148 0-.292.064-.407.186-.367.38-1.167 1.25-1.872 2.02-.6.655-1.223 1.334-1.344 1.452-1.122 1.092-2.85 2.662-4.876 3.693-.63.32-1.864.857-3.038.857-.867 0-1.5-.287-1.94-.877-.932-1.26-.703-3.234-.45-4.614.633-3.44 2.3-6.58 3.91-9.617l.357-.678c1.794-3.292 3.934-6.688 6.54-10.39 2.292-3.253 4.89-6.938 8.153-9.486l.053-.042c.943-.745 1.355-.855 1.516-.855h.035c.006.01.02.033.034.092.42 1.537-1.217 3.55-1.953 4.357-.15.145-.197.36-.123.56.08.21.28.354.5.354.128 0 .252-.05.35-.134 1.156-1 2.387-2.83 2.53-4.666.05-.668-.067-1.146-.362-1.467-.158-.17-.448-.374-.934-.374-1.12 0-2.574 1.073-2.853 1.287-3.65 2.78-6.625 6.715-9.013 9.876-4.968 6.576-9.524 13.104-10.694 20.633-.507 3.255.008 5.544 1.53 6.805.71.593 1.594.893 2.623.893.905 0 1.9-.23 2.966-.684 2.356-1.036 4.278-2.827 5.69-4.272.283-.29 2.88-3.203 3.46-4.12.11-.175.123-.38.032-.542-.083-.157-.243-.25-.418-.25zM110.615 713.4c-.256-.413-.678-.67-1.22-.74-.116-.016-.235-.022-.355-.022-1.277 0-2.538.858-3.48 1.77 1.136-3.926 2.274-8.235 2.594-12.594.013-.145-.032-.277-.126-.38-.096-.105-.233-.164-.385-.164-.305 0-.655.236-.69.62-.035.395-.083.81-.14 1.238-.113.835-.27 1.736-.478 2.755-.39 1.907-.915 3.953-1.6 6.255-.647 2.166-1.323 4.285-2.01 6.297-.764 2.234-.38 2.435-.165 2.545.063.03.13.048.202.048.365 0 .533-.32.982-1.18.483-.92 1.214-2.31 2.27-3.43.68-.72 2.32-2.125 3.043-2.125.092 0 .152.01.202.168.1.434-.155 1.175-.293 1.575-.28.812-.71 1.634-1.36 2.586-1.247 1.835-2.728 3.397-4.282 4.52l-.03.023c-.587.428-.907.574-1.067.626.018-.328.162-.694.28-.996.062-.157.136-.327.223-.514.072-.146.06-.318-.028-.462-.115-.187-.373-.323-.6-.323-.19 0-.36.102-.44.263l-.044.09c-.36.72-1.208 2.396-.113 3.063.194.113.414.17.653.17.852 0 1.757-.72 2.355-1.192.065-.053.125-.1.18-.143 1.716-1.327 4.77-4.072 5.915-7.53.186-.547.563-1.917.007-2.815z"/><path d="M102.516 717.745l.033-.072c.447-1.02.45-1.896.007-2.54-.356-.517-.955-.8-1.685-.8-.42 0-.878.093-1.293.265-1.286.532-2.244 1.624-3.013 2.823-.04-.595-.203-1.152-.672-1.45-.174-.11-.362-.167-.557-.167-.725 0-1.28.782-1.516 1.116-.707.995-1.232 2.108-1.74 3.187l-.132.28c-.463 1.002-.764 1.538-.955 1.824-.02-.307-.017-.73.014-1.147.02-.27.05-.542.082-.83.09-.802.186-1.627.04-2.432l-.005-.02c-.13-.563-.506-.93-.955-.93-.218 0-.43.086-.633.254-.358.3-.646.76-.89 1.265-.042-.364-.125-.703-.267-.986-.35-.686-.875-.785-1.16-.785-.466 0-.966.26-1.372.717-.728.818-1.273 1.8-1.744 2.828-.01-.42-.084-.718-.218-.915-.115-.17-.277-.276-.467-.31l-.02-.005-.06-.002c-.583 0-.892.708-1.077 1.132-.02.045-.036.082-.05.11-.172.355-.503 1.148-.854 1.99-.387.925-.825 1.974-1.005 2.314l-.057.11c-.355.702-.558.922-.656.99-.078-.19-.178-.767-.038-2.038l.062-.425c.16-1.08.227-1.527-.013-1.806-.1-.114-.24-.18-.393-.18-.432 0-.746.36-1.472 1.45-.396.594-.862 1.28-1.37 1.926-.75.955-1.887 2.396-3.237 2.586l-.08.003c-.277 0-.38-.106-.44-.202-.315-.5-.13-2.52 1.268-5.447.793-1.657 1.822-2.874 3.057-3.612.652-.392 1.34-.626 1.988-.683.093-.008.187-.012.277-.012.177 0 .354.017.533.048.026.005.054.008.083.008.256 0 .64-.197.686-.52.032-.23-.106-.436-.336-.507-.432-.146-.885-.223-1.347-.223-2.283 0-4.414 1.776-5.647 3.438-.66.888-1.217 1.917-1.81 3.337-.486 1.162-1.15 2.755-.953 4.257.124.936.683 1.584 1.617 1.88.24.077.49.115.743.115.88 0 1.79-.457 2.698-1.354 1.02-1.013 1.803-2.198 2.56-3.346.12-.184.24-.367.364-.553-.11 1.296.015 2.17.375 2.61.19.228.443.354.743.36 1.202 0 1.975-1.88 2.437-3.005.05-.123.096-.232.136-.327.142-.33.278-.668.41-.995.084-.212.17-.426.26-.64-.127 1.024-.336 2.04-.398 2.33-.034.13-.01.272.07.388.122.182.346.263.514.263.186 0 .344-.095.424-.25l.01-.02c.188-.372.655-1.294.905-1.816.564-1.188 1.936-3.653 2.654-4.346.068-.063.12-.103.152-.123.078.16.16.6.138 1.236l-.01.284c-.024.87-.067 2.33-.475 3.896-.036.145 0 .296.095.418.117.147.317.244.51.244.217 0 .403-.118.487-.31l.01-.027c.34-.96.723-1.88 1.09-2.77.21-.5.406-.977.59-1.44l.033-.088c.107-.277.198-.496.273-.666.02.535-.006 1.027-.036 1.58-.01.158-.018.32-.025.487l-.01.177c-.05.776-.142 2.22.85 2.497.057.016.117.022.178.022.71 0 1.366-1.062 2.4-3.15.072-.147.137-.278.19-.382.115-.227.223-.452.33-.682.2-.42.39-.812.617-1.19l.063-.104c.236-.39.62-1.024.87-1.182.054.107.128.4.12 1.188v.145c.005.267.005.535.005.804v.334c-.246.504-.485 1.042-.71 1.6-.82 2.022-1.47 4.227-1.934 6.557l-.068.338c-.343 1.707-.77 3.83-.352 5.613.164.695.62 1.146 1.167 1.146.454 0 .868-.312 1.137-.87.74-1.583.972-3.514 1.176-5.217.037-.3.072-.594.11-.882.273-2.104.462-4.16.56-6.112.004-.09.005-.187.005-.282.002-.228.003-.44.068-.597.16-.375.33-.742.5-1.09.205-.417.437-.843.706-1.302.654-1.11 1.68-2.6 3.037-2.677l.112-.002c.44 0 .52.16.548.212.243.48-.312 1.764-.8 2.438-.765 1.047-1.772 2.033-3.262 3.192-.13.1-.238.295-.152.552.063.188.28.49.592.49.1 0 .197-.032.277-.095l.015-.01.013-.014c.32-.29.66-.58.99-.86 1.26-1.072 2.564-2.18 3.323-3.787.01 0 .02-.02.03-.04zm-7.77 8.807c-.148 1.03-.314 2-.498 2.93-.07.352-.135.67-.196.956.063-.537.15-1.12.264-1.767.126-.716.27-1.423.43-2.118zM132.427 729.948c-.24 0-.58-.063-.71-.166-.233-.188-.228-.377-.152-.832.058-.354.13-.79-.14-1.185-.424-.613-1.12-.843-1.732-1.044-.17-.055-.328-.104-.474-.164-.146-.058-.28-.117-.39-.173.266-.15.616-.27.917-.373.18-.062.352-.12.505-.183l.118-.05c.774-.317 1.74-.715 2.28-1.454.46-.635.384-1.158.24-1.486-.638-1.458-3.92-1.86-3.952-1.864-1.556-.184-2.943-.406-4.138-1.284-1.118-.877-1.8-2.19-2.024-3.91-.03-.23-.053-.52-.065-.688l.22-.333c.293-.456.59-.938.882-1.43.602-1.02 1.16-2.05 1.658-3.064.66-1.343 1.39-2.912 1.732-4.557l.01-.055c.314-1.502.642-3.605-.12-4.543-.253-.312-.608-.477-1.026-.477-.04 0-.08 0-.12.004-1.583.113-2.32 2.31-2.76 3.618-.053.158-.1.302-.146.425-1.22 3.395-1.798 6.412-1.766 9.23.004.324.026.732.04.943-.282.428-.67.994-.937 1.346-.046.062-.096.128-.15.197-.204.27-.654.874-.903 1.038-.006-.016-.012-.027-.018-.04-.12-.274-.173-.603-.217-.913-.117-.823-.127-1.674-.123-2.32 0-.088-.002-.176-.004-.266-.007-.314-.015-.61.11-.81.24-.383.474-.768.694-1.146.462-.79.848-1.51 1.18-2.192.848-1.762 1.41-3.343 1.716-4.834l.013-.064c.132-.648.333-1.633-.16-2.306-.27-.367-.6-.443-.83-.443-.633 0-1.206.584-1.423.835-2.198 2.543-2.347 6.51-2.455 9.405-.02.57-.383 1.083-.765 1.628-.085.12-.17.24-.25.36-.514.772-1.053 1.522-1.603 2.232-.755.978-1.687 2.183-2.764 3.064.55-.75.97-1.465 1.28-2.168.08-.184.772-1.818.227-2.654-.135-.206-.4-.452-.898-.452-.053 0-.11.004-.168.01-1.024.104-1.86 1.188-2.3 2.17-.443.988-.715 2.494-.12 3.66-.407.494-.842.95-1.298 1.358-.145.118-.2.312-.14.5.062.19.296.458.577.458.104 0 .204-.034.287-.104.54-.454 1.045-.98 1.37-1.336.13.068.287.118.47.118.337 0 .697-.157 1.134-.495.306-.233.458-.356.69-.57 1.6-1.42 3.118-3.445 4.272-5.127.027.567.08 1.165.184 1.756.068.388.16.917.443 1.34.083.13.338.518.846.518.427 0 .8-.324 1.023-.52.475-.414.878-.886 1.272-1.405.383 1.65 1.128 2.925 2.22 3.79.635.504 1.39.9 2.242 1.18.486.16 1.428.346 1.716.395.16.027.45.066.68.1.138.02.25.033.282.04.574.103 1.07.235 1.51.408.762.3 1.112.615 1.132.707-.003.01-.024.043-.084.093-.48.388-1.08.612-1.72.854-.71.27-1.447.545-2.043 1.07-.487.43-.684.864-.587 1.293.195.863 1.518 1.24 2.483 1.516.222.063.433.124.538.168.533.222.523.276.47.582-.034.198-.082.47-.01.788.19.835.868 1.258 2.018 1.258.267 0 .476-.22.476-.498 0-.11-.034-.214-.098-.3-.088-.11-.226-.182-.377-.182zm-6.976-26.69c.114-.23.232-.47.378-.652l.005.062c.013.185-.006.946-.062 1.432-.13 1.143-.358 2.184-.698 3.186-.557 1.64-1.31 3.32-2.29 5.104.18-1.638.592-3.436 1.26-5.523.475-1.48.9-2.575 1.38-3.548l.03-.063zm-5.374 3.044c.193-.594.464-1.173.806-1.72l.048-.08c.214-.35.37-.568.484-.708-.026.256-.105.685-.295 1.396l-.035.132c-.217.84-.513 1.73-.906 2.723-.26.656-.565 1.336-.92 2.05l.008-.054c.186-1.392.452-2.616.808-3.738zm-8.654 12.527c.018-.632.24-1.295.534-1.772.268-.412.485-.68.652-.854-.168.746-.74 1.862-1.186 2.625z"/></g><path fill="#C6E3E5" d="M80.5 828.01c-28.993 0-52.5 23.506-52.5 52.5s23.507 52.5 52.5 52.5c28.992 0 52.5-23.506 52.5-52.5s-23.508-52.5-52.5-52.5z"/><path fill="#414042" d="M64.062 877.548H96.93v5.98H64.062zM107.656 880.528v-3.563s.152-1.238.797-1.238h-.037c.643 0 .8.443.8 1.238v7.125c0 .795-.157 1.238-.8 1.238h.037c-.645 0-.797-.443-.797-1.238v-3.562z"/><path fill="#939598" d="M95.717 880.528v-2.81c0-.63.122-.98.627-.98h-.03c.506 0 .625.352.625.98v5.62c0 .625-.12.976-.626.976h.03c-.505 0-.627-.35-.627-.977v-2.81zM64.062 880.528v-2.81c0-.63.12-.98.62-.98h-.028c.506 0 .628.352.628.98v5.62c0 .625-.122.976-.628.976h.03c-.503 0-.622-.35-.622-.977v-2.81z"/><path fill="#414042" d="M120.166 881.51c0 .79-.637 1.43-1.428 1.43h-8.096c-.79 0-1.428-.64-1.428-1.43v-1.942c0-.788.637-1.43 1.428-1.43h8.096c.79 0 1.428.642 1.428 1.43v1.942z"/><path fill="#414042" d="M111.262 880.538c0 2.4-.387 6.695-.387 6.695h-2.172v-13.396h2.172c0 .005.387 4.3.387 6.7zM99.44 897.335c-.72-.1-2.522-.623-2.522-4.496v-12.355-12.303c0-3.874 1.803-4.398 2.52-4.494-.005 0-.01 0-.017.002.72-.1 2.52-.063 2.52 3.99v25.66c0 4.06-1.8 4.092-2.52 3.99.008.003.014.005.02.005z"/><path fill="#939598" d="M104.453 897.505c-.715.083-2.512.205-2.512-3.912V880.48v-13.053c0-4.114 1.798-3.995 2.513-3.912-.008-.002-.014-.002-.018-.004.7.106 2.484.676 2.848 4.58.352 3.905.486 12.393.44 12.393.046 0-.09 8.545-.44 12.448-.363 3.904-2.146 4.475-2.848 4.58.004-.003.01-.003.018-.005z"/><path fill="#414042" d="M53.344 880.495v3.562c0 .797-.155 1.237-.798 1.237h.036c-.642 0-.795-.44-.795-1.237v-3.562-3.564c0-.796.153-1.238.795-1.238h-.036c.643 0 .798.442.798 1.24v3.563z"/><path fill="#414042" d="M40.836 879.51c0-.79.637-1.43 1.426-1.43h8.096c.79 0 1.43.64 1.43 1.43v1.944c0 .787-.64 1.428-1.43 1.428h-8.096c-.79 0-1.426-.64-1.426-1.428v-1.943z"/><path fill="#414042" d="M49.738 880.48c0-2.398.385-6.692.385-6.692h2.174V887.182h-2.174s-.385-4.298-.385-6.7zM61.56 863.688c.72.1 2.52.62 2.52 4.494v24.656c0 3.874-1.8 4.398-2.52 4.497.005 0 .008-.002.014-.003-.718.1-2.516.064-2.516-3.99v-12.8-12.86c0-4.058 1.798-4.093 2.516-3.992-.006-.002-.01-.002-.014-.002z"/><path fill="#939598" d="M56.55 863.515c.71-.083 2.51-.202 2.51 3.912v26.167c0 4.117-1.8 3.995-2.51 3.912.005.002.012.002.015.006-.705-.105-2.486-.676-2.848-4.58-.352-3.902-.487-12.392-.438-12.392-.054 0 .085-8.543.437-12.45.36-3.902 2.143-4.47 2.848-4.577-.004.003-.01.005-.016.005z"/><g><path fill="#C6E3E5" d="M400.5 188c-28.992 0-52.5 23.505-52.5 52.5 0 28.994 23.508 52.5 52.5 52.5 28.994 0 52.5-23.506 52.5-52.5S429.494 188 400.5 188z"/><g fill="none" stroke="#414042" stroke-width="1.589" stroke-linecap="round" stroke-linejoin="round" stroke-miterlimit="10"><path d="M407.525 270.648h-13.771M407.525 273.717h-13.771M405.935 276.784h-10.593M404.347 279.852h-7.415"/></g><g fill="#414042"><path d="M393.85 237.14c-.252 0-.448.088-.625.252-.164.175-.24.373-.252.614 0 .252.076.45.23.615.164.165.373.242.613.242s.45-.077.627-.24c.176-.166.272-.363.272-.616 0-.24-.09-.438-.265-.614-.16-.163-.348-.252-.6-.252z"/><path d="M419.177 243.38c0-6.307-3.21-19.804-18.537-19.804-15.33 0-18.54 13.497-18.54 19.803 0 6.306 8.847 15.142 8.847 16.812 0 1.67-.328 4.144 3.014 6.816h13.363c3.343-2.673 3.015-5.146 3.015-6.816-.005-1.67 8.84-10.506 8.84-16.813zm-18.537 22.04h-1.18c-.66-9.31-7.962-19.15-9.222-20.786.39-.25 1.15-.784 1.867-1.506-.36 2.306 1.637 2.333 2.872 1.038.572 1.204 2.353 1.124 3.29-.28.114 1.532 1.773 1.4 2.845.256.266.51.74.86 1.477.884 1.054.028 1.856-.265 2.597-1.3.293 1.657 2.396 1.752 3.438.203.086 1.136 1.076 1.324 2.014.856-2.304 3.754-7.25 12.655-7.765 20.633h-2.235zm-4.146-23.234c.36-1.788 1.666-2.96 2.334-1.755l-.492 2.545c-.012.055-.023.132-.023.188-1.524 2.06-2.258 1.02-1.82-.977zm10.34.043c.384-1.776 1.677-2.96 2.347-1.744l-.52 2.72c-1.518 2.04-2.243 1.008-1.825-.977zm-.092 23.19h-3.34c.674-10.222 8.756-22.04 8.842-22.162.082-.12.053-.286-.068-.37-.12-.08-.285-.052-.367.07-.015.02-.234.343-.6.91-.587.6-1.38.848-1.206-.06.252-1.262.482-2.238.822-3.916l.09-.417h-2.775c-1.962.066-2.83 1.832-2.98 3.597-.002.024.002.044 0 .067-.52.82-1.383 1.435-2.205 1.05-.47-.228-.668-.843-.68-1.37.942.033 1.862-.307 2.356-1.217.33-.646.32-1.48-.24-1.93-.626-.527-2.052-.253-2.884 1.04-.567.902-.81 2.113-.553 3.022-.587.683-1.46 1.008-1.268.028.263-1.284.887-4.475 1.283-6.482h-1.492l-.526 2.59c-.056-.066-.1-.12-.144-.165-.94-.78-3.718 0-4.002 3.322-.02.26-.007.487.032.694-.604.7-1.52 1.04-1.327.03.25-1.293.503-2.422.853-4.276h-1.516l-.545 2.62c-1.032 1.313-2.57 2.226-2.594 2.24-.066.038-.113.103-.125.18-.016.076.004.154.053.214.09.11 8.566 10.733 9.287 20.688h-4.39c-2.054-1.817-2.03-3.328-2.01-4.792.003-.15.005-.295.005-.436 0-1.045-.77-2.142-2.677-4.743-2.453-3.354-6.167-8.426-6.167-12.07 0-1.5.235-6.762 3.265-11.396 2.953-4.523 7.56-6.817 13.687-6.817s10.73 2.293 13.688 6.816c3.024 4.634 3.262 9.895 3.262 11.396 0 3.645-3.713 8.715-6.168 12.07-1.902 2.6-2.674 3.696-2.674 4.742 0 .14 0 .285.004.436.024 1.467.045 2.977-2.005 4.795zm-4.438-23.114c0-.033.017-.077.017-.12.117-.615.314-1.107.548-1.46.395-.624.877-.833 1.096-.668.272.218.075 2.302-1.66 2.248z"/></g><path fill="#414042" d="M400.64 215.923c-.525 0-.955-.427-.955-.954v-14.44c0-.526.43-.953.955-.953s.953.427.953.953v14.438c0 .527-.427.955-.953.955zM377.34 242.34h-14.438c-.527 0-.953-.428-.953-.954 0-.527.425-.954.952-.954h14.438c.527 0 .953.427.953.954 0 .526-.426.953-.953.953zM381.35 223.59c-.22 0-.443-.078-.625-.235l-10.88-9.492c-.395-.346-.437-.947-.09-1.345.345-.396.946-.438 1.345-.09l10.88 9.49c.395.346.437.948.09 1.345-.19.216-.453.327-.72.327zM438.1 242.34h-14.44c-.524 0-.952-.428-.952-.954 0-.527.428-.954.953-.954h14.44c.524 0 .952.427.952.954 0 .526-.427.953-.953.953z"/><g><path fill="#414042" d="M419.65 223.59c-.267 0-.53-.11-.72-.327-.348-.396-.307-1 .093-1.345l10.877-9.49c.397-.35 1-.306 1.346.09.348.396.307 1-.092 1.345l-10.877 9.492c-.182.157-.404.235-.627.235z"/></g></g><g><path fill="#BAACA3" d="M400.5 348c-28.992 0-52.5 23.505-52.5 52.5 0 28.994 23.508 52.5 52.5 52.5 28.996 0 52.5-23.506 52.5-52.5 0-28.995-23.504-52.5-52.5-52.5z"/><ellipse fill="#C6E3E5" cx="400.525" cy="400.5" rx="36.975" ry="37"/><path fill="#FFE2CA" d="M396.26 413.88s-.79 2.654-3.168 2.654c-2.135 0-2.334-2.188-1.146-3.05 1.628-1.18 4.314.395 4.314.395z"/><path fill="#FFE2CA" d="M390.098 410.573c-.14.086-2.89.73-2.81 2.604.093 2.07 2.91 1.283 3.67.992.61-.232 2.745-2.234 2.528-2.022l-3.388-1.575z"/><path fill="#FFE2CA" d="M390.395 409.86l-3.38-1.225s-2.5.02-2.5 1.438c0 1.422 1.844 2.312 3.432 1.563.405-.188 2.448-1.775 2.448-1.775z"/><path fill="#C98659" d="M413.718 409.373c-.06-.15-1.283-5.602-2.67-10.175s-5.033-8.273-7.447-8.073c-2.413.2-4.055-1.384-5.492-1.384s-4.93.618-7.96 1.235c-3.03.616-5.03-.874-5.03-.874s-9.605 11.41-5.085 13.208 2.465 2.774 4.057 4.266c1.593 1.49 9.994 7.698 13.763 9.457 3.607 1.684 3.398-.988 3.398-.988-1.977-.556-4.184-3.03-4.272-3.134l.246-.217c.02.025 1.95 2.4 3.994 3.042 4.107 1.194 3.258-1.337 2.87-1.632-1.487-1.065-3.585-4.47-3.645-4.587l.29-.152c.017.027.6 1.71 3.488 4.406 2.89 2.697 5.122.2 5.604-.407-2.002-1.426-5.06-5.63-5.188-5.81l.267-.19c.03.042 3.625 4.72 5.114 5.732 1.65 1.123 2.58 1.7 4.07.353 1.1-.924-.185-3.595-.37-4.072z"/><path fill="#FFF" d="M379.672 387.174c.205 0 6.984 2.396 6.984 2.396l-6.984 19.05-7.395-2.673 7.395-18.773z"/><path fill="#414042" d="M383.3 385.666c-.583-.156-7.874-2.636-14.063-4.745-3.628 5.725-5.736 12.507-5.736 19.785 0 3.138.397 6.183 1.13 9.092 3.97 1.562 7.263 2.85 7.716 3.002 1.23.41 1.78-.138 2.123-.686.34-.55 8.83-24.05 8.83-24.05s1.026-2.125 0-2.398z"/><path fill="#FFE2CA" d="M419.804 394.907c-.104-.053-4.412-1.86-6.98-1.723-3.314.18-6.163-.282-8.09-.334-1.928-.05-3.157.438-4.494.873-1.336.438-2.725.67-6.906 4.523-2.52 2.133-.412 3.57 1.746 3.57 1.357 0 2.517-.206 3.438-.898.925-.693 2.464-2.235 4.06-2.235 1.59 0 7.96 5.27 11.144 10.688.13.026 4.008 0 4.008 0l2.074-14.463z"/><path fill="#FFF" d="M418.75 393.186h-3.03v20.916l4.828-.618-1.744-19.685"/><path fill="#414042" d="M437.45 400.705c0-3.08-.384-6.068-1.093-8.93-4.996-.007-16.252-.132-17.453-.132-1.54 0-1.13 1.08-1.13 1.9 0 .822 1.183 22.66 1.183 23.178 0 .823.05 1.028 1.797.874 1.03-.09 7.715-.54 13.074-.9 2.32-4.84 3.62-10.262 3.62-15.99z"/></g><g><path fill="#BAACA3" d="M400.5 28C371.508 28 348 51.507 348 80.5c0 28.993 23.508 52.5 52.5 52.5S453 109.493 453 80.5c0-28.994-23.508-52.5-52.5-52.5z"/><path fill="#E9D0D6" d="M425.255 77.057c-.264 0-.52.027-.772.078-.43-1.22-.984-2.396-1.658-3.51.188-.17.383-.32.563-.505 3.494-3.494 5.832-6.818 3.55-9.104-2.28-2.283-5.607.054-9.104 3.548-.08.08-.143.17-.225.253-1.997-1.553-4.292-2.833-6.813-3.745-.24 1.562-1.578 2.758-3.203 2.758h-12.28c-1.626 0-2.966-1.196-3.205-2.758-7.458 2.7-12.99 8.532-14.376 15.574-1.09-.17-2.166-.487-3.11-1.04 1.548-1.715 1.548-4.57 1.548-6.056 0-1.943-1.738-3.25-3.356-3.25-.77 0-1.462.294-1.95.828-.535.583-.81 1.396-.81 2.422 0 2.394.616 4.333 1.833 5.79-1.374.188-3.353-.403-5.794-1.747-.375-.212-.857-.072-1.07.31-.21.385-.068.862.31 1.072 3.448 1.9 6.046 2.435 7.915 1.618 1.267.898 2.767 1.38 4.25 1.615-.065.622-.11 1.256-.11 1.896 0 5.627 2.63 10.72 6.88 14.444l-4.423 4.426c-1.137 1.135-1.137 2.978 0 4.114 1.138 1.136 2.98 1.136 4.115 0l5.236-5.236c3.594 1.83 7.772 2.9 12.257 2.9 5.024 0 9.688-1.325 13.553-3.588l5.922 5.924c1.138 1.136 2.98 1.136 4.115 0 1.137-1.135 1.137-2.98 0-4.114l-5.39-5.39c1.84-1.823 3.312-3.926 4.322-6.22.4.145.826.235 1.277.235 2.107 0 3.818-1.708 3.818-3.814V80.87c.002-2.106-1.71-3.813-3.817-3.813zm-51.882.573c-1.154-1.196-1.738-2.9-1.738-5.078 0-.607.133-1.076.392-1.354.192-.214.46-.318.79-.318.838 0 1.777.716 1.777 1.673 0 1.29 0 3.836-1.22 5.077z"/><path fill="#FFF" d="M401.863 47.06c-4.357 0-7.887 3.532-7.887 7.892 0 4.358 3.528 7.89 7.887 7.89 4.36 0 7.893-3.53 7.893-7.89 0-4.36-3.532-7.892-7.893-7.892zm0 14.203c-3.482 0-6.31-2.825-6.31-6.312 0-3.486 2.826-6.312 6.31-6.312 3.49 0 6.313 2.825 6.313 6.313 0 3.488-2.823 6.313-6.313 6.313z"/><path fill="#FFF" d="M401.515 57.317v-2.1c-.655-.186-1.134-.47-1.438-.85-.31-.38-.46-.84-.46-1.38 0-.55.173-1.01.52-1.38.347-.376.805-.59 1.38-.647v-.496h.728v.496c.53.064.953.245 1.266.544.315.3.518.7.606 1.2l-1.27.166c-.077-.396-.277-.662-.6-.803v1.96c.802.217 1.345.5 1.638.844.29.348.438.79.438 1.333 0 .604-.187 1.112-.552 1.525-.362.416-.875.67-1.522.765v.938h-.73v-.91c-.578-.07-1.047-.288-1.406-.648-.358-.36-.593-.868-.692-1.527l1.312-.14c.05.267.15.496.3.688.14.198.3.338.483.424zm0-5.26c-.198.067-.354.18-.47.34-.12.16-.177.337-.177.53 0 .178.053.344.16.494.104.153.27.276.485.37l.002-1.734zm.727 5.33c.25-.046.455-.162.608-.347.156-.186.236-.404.236-.653 0-.226-.065-.418-.197-.58-.132-.16-.35-.286-.648-.373v1.954z"/></g><path d="M557 76v9l7-4.5M565 237h-9l4.5 7"/><g><path fill="#E2DED5" d="M240.5 668.01c-28.993 0-52.5 23.507-52.5 52.5s23.507 52.5 52.5 52.5 52.5-23.505 52.5-52.5-23.51-52.5-52.5-52.5z"/><path fill="#9DBB73" d="M252.487 732.062c-4.22 0-4.148-1.435-5.828-1.435-1.677 0-3.27 4.056-3.468 6.83-.195 2.76-.945 19.38-.79 19.534.153.153-2.847 0-2.847 0s.35-5.98.578-9.77c.23-3.79.293-7.287.293-10.104s-.482-2.903-1.617-5.403c-1.14-2.504-3.528-.347-6.784-.347-3.254 0-3.93-3.9-7.287-3.884-3.362.018-5.833-1.836-8.105-4.946-2.27-3.112 2.14-10.045 3.867-12.625 1.723-2.58 1.555-3.404 1.555-10.158 0-6.757 7.586-9.376 11.28-11.175 3.69-1.798 4.854-4.614 9.23-4.614 4.382 0 8.366 5.858 12 7.627 3.638 1.77 3.062 6.705 5.15 9.717 2.09 3.015 6.28 7.115 6.28 12.662.002 4.547-9.29 18.092-13.51 18.092z"/><path fill="#E2DED5" d="M253.77 724.192c0 1.61-.36 2.646-1.97 2.646-1.61 0-1.97-.78-1.97-2.39 0-1.613 1.094-1.644 1.97-.985.062-.01 1.97-1.398 1.97.73zM241.985 690.166c0 1.61-.36 2.646-1.97 2.646-1.613 0-1.968-.78-1.968-2.393s1.094-1.643 1.967-.985c.063-.008 1.97-1.396 1.97.73zM252.636 695.81c0 1.61-.357 2.647-1.97 2.647s-1.968-.78-1.968-2.393c0-1.61 1.092-1.642 1.97-.983.06-.01 1.968-1.397 1.968.73zM230.517 710.513c-.648 1.476-1.396 2.277-2.87 1.627-1.474-.65-1.49-1.51-.835-2.982.65-1.475 1.664-1.06 2.2-.105.057.014 2.364-.488 1.505 1.46zM243.948 716.667c-.65 1.475-1.395 2.276-2.87 1.63-1.474-.652-1.485-1.51-.833-2.984.646-1.474 1.66-1.06 2.195-.104.063.012 2.366-.488 1.508 1.457zM234.57 698.69c-.65 1.476-1.394 2.278-2.87 1.627-1.473-.648-1.486-1.51-.836-2.98.65-1.477 1.664-1.06 2.2-.106.058.015 2.365-.485 1.505 1.46zM226.42 719.583c.325 1.578.185 2.664-1.395 2.988-1.578.323-2.084-.368-2.408-1.946-.326-1.576.74-1.826 1.73-1.36.058-.02 1.646-1.765 2.074.32zM247.83 703.44c.323 1.577.185 2.663-1.395 2.987-1.578.324-2.084-.37-2.408-1.947-.326-1.577.74-1.825 1.73-1.36.056-.02 1.644-1.764 2.074.32zM258.99 710.48c.323 1.577.183 2.663-1.397 2.99-1.578.32-2.084-.37-2.41-1.948-.324-1.578.742-1.827 1.732-1.36.06-.022 1.646-1.766 2.074.317zM241.056 731.393s-3.328-3.17-3.13-4.193c.194-1.024 4.534.574 6.76-.358 2.22-.935-1.107 3.677-3.63 4.55z"/></g><g><path fill="#E2DED5" d="M240.498 828.01c-28.992 0-52.498 23.506-52.498 52.5 0 28.995 23.506 52.5 52.498 52.5 28.996 0 52.502-23.505 52.502-52.5 0-28.994-23.506-52.5-52.502-52.5z"/><image overflow="visible" width="145" height="78" xlink:href="A6F1D19F26ECD8BF.png" transform="matrix(.993 0 0 .9872 168.5 870.51)"/><image overflow="visible" opacity=".5" width="30" height="30" xlink:href="A6F1D19F26ECD8BD.png" transform="translate(226.566 883.577) scale(.9333)"/><linearGradient id="a" gradientUnits="userSpaceOnUse" x1="228.207" y1="728.291" x2="252.647" y2="728.291" gradientTransform="translate(0 169)"><stop offset="0" stop-color="#808184"/><stop offset=".055" stop-color="#D0D2D3"/><stop offset=".117" stop-color="#BBBDBF"/><stop offset=".466" stop-color="#E6E7E7"/><stop offset=".877" stop-color="#BBBDBF"/><stop offset=".957" stop-color="#D0D2D3"/><stop offset="1" stop-color="#6D6E70"/></linearGradient><path fill="url(#a)" d="M247.506 903.833l-.658-16.6c0-1.078-2.77-2.585-3.922-2.585h-4.998c-1.15 0-3.918 1.507-3.918 2.584l-.662 16.6c-.498 3.16-8.275 6.103-3.71 6.103h21.58c4.563 0-3.214-2.944-3.712-6.102z"/><linearGradient id="b" gradientUnits="userSpaceOnUse" x1="240.427" y1="740.695" x2="240.427" y2="715.409" gradientTransform="translate(0 169)"><stop offset=".012" stop-color="#BBBDBF"/><stop offset=".104" stop-color="#BBBDBF"/><stop offset=".15" stop-color="#A0A1A4"/><stop offset=".196" stop-color="#808184"/><stop offset=".252" stop-color="#E6E7E7"/><stop offset=".368" stop-color="#BBBDBF"/><stop offset=".472" stop-color="#58595B"/></linearGradient><path fill="url(#b)" d="M247.506 903.593l-.658-16.602c0-1.075-2.77-2.58-3.922-2.58h-4.998c-1.15 0-3.918 1.505-3.918 2.58l-.662 16.603c-.498 3.158-8.275 6.103-3.71 6.103h21.58c4.563-.002-3.214-2.945-3.712-6.103z"/><path fill="#231F20" d="M275.707 897.265c0 1.107-.912 2.005-2.035 2.005h-66.344c-1.123 0-2.035-.896-2.035-2.005v-39.002c0-1.106.912-2.006 2.035-2.006h66.344c1.123 0 2.035.898 2.035 2.006v39.002z"/><path fill="#8E8E8E" d="M208.174 858.89h64.65v37.167h-64.65z"/><defs><path id="c" d="M239.79 896.785h1.288v1.678h-1.287z"/></defs><clipPath id="d"><use xlink:href="#c" overflow="visible"/></clipPath><path clip-path="url(#d)" fill="#E6E7E7" d="M240.863 897.677c0-.213.164-.313.172-.32-.092-.145-.236-.16-.29-.165-.12-.015-.237.076-.3.076s-.16-.074-.262-.072c-.135.002-.258.084-.328.212-.137.256-.033.637.104.846.065.103.144.217.247.212.098-.005.14-.068.258-.068.12 0 .156.068.262.066.107-.003.176-.104.242-.206.073-.12.106-.232.108-.237-.002-.005-.213-.09-.215-.343"/><path fill="#E6E7E7" d="M240.668 897.053c.053-.07.09-.17.08-.268-.078.003-.176.056-.232.126-.05.063-.096.165-.082.262.085.007.177-.048.234-.12"/><linearGradient id="e" gradientUnits="userSpaceOnUse" x1="240.659" y1="729.359" x2="281.779" y2="696.061" gradientTransform="translate(0 169)"><stop offset="0" stop-color="#FFF" stop-opacity="0"/><stop offset=".91" stop-color="#FFF" stop-opacity=".91"/><stop offset="1" stop-color="#FFF"/></linearGradient><path opacity=".25" fill="url(#e)" d="M273.672 856.257h-15.89l-16.386 43.013h32.275c1.124 0 2.036-.896 2.036-2.005v-39.002c0-1.108-.91-2.006-2.034-2.006z"/><linearGradient id="f" gradientUnits="userSpaceOnUse" x1="240.167" y1="687.988" x2="240.689" y2="688.254" gradientTransform="translate(0 169)"><stop offset="0" stop-color="#FFF" stop-opacity="0"/><stop offset="1" stop-color="#FFF"/></linearGradient><circle opacity=".12" fill="url(#f)" cx="240.428" cy="857.122" r=".293"/></g><g><path fill="#E2DED5" d="M400.5 508c-28.992 0-52.5 23.505-52.5 52.5 0 28.994 23.508 52.5 52.5 52.5 28.996 0 52.5-23.506 52.5-52.5 0-28.995-23.504-52.5-52.5-52.5z"/><circle fill="#231F20" cx="400.389" cy="542.001" r="6.431"/><path d="M400.71 523.498c20.338.11 36.79 16.64 36.79 37 0 20.436-16.563 37-36.995 37h-.21c-10.12-.11-18.296-8.352-18.296-18.5 0-10.132 8.153-18.37 18.263-18.493l.48-.007c10.104-.127 18.26-8.36 18.26-18.5 0-10.143-8.17-18.39-18.293-18.5z"/><path fill="none" stroke="#000" stroke-width=".904" stroke-linecap="round" stroke-linejoin="round" d="M437.5 560.5c0 20.434-16.564 37-36.996 37-20.435 0-37.003-16.566-37.003-37 0-20.435 16.57-37 37.004-37 20.43 0 36.996 16.566 36.996 37z"/><circle fill="#E2DED5" cx="400.389" cy="578.998" r="6.431"/></g><g><path fill="#7A8080" d="M445.22 718.64c2.98 17.015-18.217 45.83-44.707 46.87-26.494-2.432-47.846-21.195-44.705-46.87 3.31-27.08 21.525-44.44 44.377-43.052 30.13 3.473 39.074 13.194 45.035 43.052z"/><path fill="#E6E7E8" d="M376.32 715.25h48.358v7.5H376.32zM377.962 722.75h45.075v23.04h-45.075z"/><g fill="#F9F9F9"><path d="M414.87 695.254c-7.604.405-11.743 11.835-11.743 11.835-1.035 2.35-3.78 7.56 8.955 5.175 12.732-2.386 14.174-6.166 14.31-9.046.134-2.88-3.918-8.37-11.52-7.966zm4.387 11.142c-1.213.986-3.98 2.41-10.27 3.59-1.945.363-3.558.55-4.787.55-.197 0-.373-.005-.53-.014.075-.173.147-.33.2-.45l.17-.383.04-.114c.874-2.38 4.325-9.24 8.552-9.467.2-.013.402-.018.6-.018 2.73 0 4.492 1.02 5.49 1.872 1.158.99 1.607 2.032 1.644 2.375-.036.707-.148 1.274-1.11 2.056zM374.61 703.22c.134 2.88 1.572 6.66 14.31 9.045 12.734 2.386 9.988-2.827 8.953-5.176 0 0-4.14-11.43-11.744-11.836-7.606-.405-11.655 5.085-11.52 7.965zm6.027 1.12c.033-.343.483-1.386 1.644-2.375 1-.854 2.763-1.872 5.49-1.872.195 0 .397.005.6.017 4.228.226 7.678 7.088 8.552 9.468l.04.112.17.384c.054.118.126.276.198.448-.156.01-.33.015-.527.015-1.23 0-2.843-.187-4.787-.55-6.29-1.18-9.06-2.604-10.27-3.59-.965-.783-1.074-1.35-1.11-2.057z"/><circle cx="400.499" cy="709.564" r="4.05"/></g><defs><path id="g" d="M377.962 722.75h45.075v23.04h-45.075z"/></defs><clipPath id="h"><use xlink:href="#g" overflow="visible"/></clipPath><g clip-path="url(#h)"><path fill="#EF4D58" d="M437.788 720.628l2.758 2.317-33.197 39.52-2.76-2.318zM432.425 715.987l2.76 2.315-33.81 40.3-2.76-2.315zM426.876 711.33l2.758 2.313-36.683 43.713-2.756-2.314zM421.355 706.752l2.758 2.313-41.608 49.612-2.758-2.314zM415.875 702.127l2.757 2.314-41.62 49.597-2.756-2.315zM410.223 697.55l2.757 2.314-41.635 49.594-2.757-2.315zM404.7 692.883l2.757 2.31-41.598 49.63-2.76-2.313zM399.24 688.102l2.756 2.313-39.16 46.65-2.753-2.313z"/></g><defs><path id="i" d="M376.32 715.25h48.358v7.5H376.32z"/></defs><clipPath id="j"><use xlink:href="#i" overflow="visible"/></clipPath><g clip-path="url(#j)"><path fill="#EF4D58" d="M440.58 721.635l2.76 2.313-29.85 35.612-2.76-2.313zM435.17 717.054l2.757 2.314-35.094 41.832-2.758-2.314zM429.605 712.406l2.758 2.314-35.343 42.13-2.758-2.315zM424.055 707.85l2.76 2.317-41.63 49.602-2.76-2.317zM418.514 703.12l2.76 2.312-41.596 49.626-2.76-2.314zM413.146 698.575l2.758 2.314-41.613 49.602-2.757-2.313zM407.54 693.966l2.76 2.315-41.638 49.597-2.758-2.315zM402.113 689.32l2.758 2.314-41.612 49.602-2.758-2.313z"/></g><path fill="#F9F9F9" d="M395.64 714.65h9.722v8.1h-9.72zM396.36 722.75h8.277v23.04h-8.278z"/><path fill="#231F20" fill-opacity=".3" d="M377.962 722.75h45.075v1.08h-45.075z"/></g><g><path fill="#FFF" d="M389.5 877.387c0 2.104.82 4.084 2.31 5.57 1.486 1.487 3.467 2.31 5.568 2.31 1.873 0 3.646-.654 5.062-1.85l1.29 1.29c-.274.65-.15 1.43.378 1.96l4.32 4.318c.696.698 1.83.698 2.526 0l.02-.02c.698-.7.698-1.83 0-2.53l-4.318-4.317c-.53-.53-1.31-.655-1.96-.38l-1.29-1.29c2.598-3.092 2.446-7.726-.46-10.63-1.487-1.49-3.465-2.31-5.57-2.31-2.103 0-4.08.82-5.57 2.31-1.487 1.487-2.305 3.464-2.305 5.57zm1.64 0c0-1.666.648-3.23 1.827-4.41 1.18-1.18 2.745-1.827 4.41-1.827s3.232.647 4.414 1.827c2.433 2.434 2.433 6.393 0 8.822-1.18 1.18-2.746 1.827-4.412 1.827s-3.23-.647-4.41-1.828c-1.18-1.18-1.827-2.745-1.827-4.413z"/></g><g><path fill="#414042" d="M538.503 875.016c0 2.104.818 4.084 2.308 5.57 1.488 1.487 3.47 2.31 5.57 2.31 1.873 0 3.646-.654 5.062-1.85l1.29 1.29c-.274.65-.15 1.43.378 1.96l4.32 4.318c.696.698 1.83.698 2.526 0l.02-.02c.698-.7.698-1.83 0-2.53l-4.318-4.317c-.53-.53-1.31-.655-1.96-.38l-1.29-1.29c2.598-3.092 2.446-7.726-.46-10.63-1.487-1.49-3.465-2.31-5.57-2.31-2.103 0-4.08.82-5.57 2.31-1.487 1.487-2.305 3.464-2.305 5.57zm1.64 0c0-1.666.647-3.23 1.826-4.41 1.18-1.18 2.744-1.827 4.41-1.827s3.23.646 4.413 1.826c2.432 2.434 2.432 6.393 0 8.822-1.182 1.18-2.747 1.828-4.413 1.828s-3.23-.647-4.41-1.828c-1.18-1.178-1.827-2.744-1.827-4.412z"/></g><path d="M557 390.5l7 4.5v-9"/><g><path fill="#67A7A5" d="M548.484 560.462h.547c1.485 0 2.82.566 4.005 1.7 1.185 1.132 1.777 2.545 1.777 4.237 0 1.666-.593 3.04-1.777 4.12-1.186 1.08-2.65 1.62-4.395 1.62-1.9 0-3.483-.76-4.746-2.284-1.264-1.523-1.895-3.69-1.895-6.504 0-2.578.552-4.993 1.66-7.246 1.105-2.252 2.46-4.036 4.06-5.352 1.603-1.314 3.028-1.973 4.278-1.973.833 0 1.484.25 1.953.743.47.495.704 1.133.704 1.914 0 1.146-.508 1.992-1.523 2.54-1.38.755-2.474 1.64-3.28 2.655-.806 1.017-1.262 2.294-1.366 3.83zm17.266 0h.508c1.458 0 2.78.566 3.965 1.7 1.185 1.132 1.777 2.545 1.777 4.237 0 1.64-.593 3.02-1.777 4.14-1.186 1.12-2.65 1.68-4.395 1.68-1.928 0-3.516-.78-4.766-2.344s-1.875-3.736-1.875-6.523c0-2.005.325-3.893.977-5.664.65-1.772 1.49-3.314 2.52-4.63 1.028-1.314 2.135-2.356 3.32-3.125 1.185-.768 2.246-1.152 3.184-1.152.86 0 1.517.24 1.973.723.456.482.685 1.127.685 1.934 0 1.172-.508 2.02-1.523 2.54-1.433.807-2.514 1.698-3.242 2.675-.73.975-1.174 2.244-1.33 3.807z"/></g></svg>