<?xml version="1.0" encoding="UTF-8" standalone="no"?>
<svg width="965px" height="960px" viewBox="0 0 965 960" version="1.1" xmlns="http://www.w3.org/2000/svg" xmlns:xlink="http://www.w3.org/1999/xlink">
    <!-- Generator: Sketch 40.3 (33839) - http://www.bohemiancoding.com/sketch -->
    <title>sprite</title>
    <desc>Created with Sketch.</desc>
    <defs>
        <linearGradient x1="-0.00232798157%" y1="49.9980227%" x2="99.9985223%" y2="49.9980227%" id="linearGradient-1">
            <stop stop-color="#808184" offset="0%"></stop>
            <stop stop-color="#D0D2D3" offset="5.5%"></stop>
            <stop stop-color="#BBBDBF" offset="11.7%"></stop>
            <stop stop-color="#E6E7E7" offset="46.6%"></stop>
            <stop stop-color="#BBBDBF" offset="87.7%"></stop>
            <stop stop-color="#D0D2D3" offset="95.7%"></stop>
            <stop stop-color="#6D6E70" offset="100%"></stop>
        </linearGradient>
        <linearGradient x1="49.9980972%" y1="99.9920905%" x2="49.9980972%" y2="-0.00790951515%" id="linearGradient-2">
            <stop stop-color="#BBBDBF" offset="1.2%"></stop>
            <stop stop-color="#BBBDBF" offset="10.4%"></stop>
            <stop stop-color="#A0A1A4" offset="15%"></stop>
            <stop stop-color="#808184" offset="19.6%"></stop>
            <stop stop-color="#E6E7E7" offset="25.2%"></stop>
            <stop stop-color="#BBBDBF" offset="36.8%"></stop>
            <stop stop-color="#58595B" offset="47.2%"></stop>
        </linearGradient>
        <polygon id="path-3" points="0.79 0.785 2.078 0.785 2.078 2.463 0.791 2.463"></polygon>
        <linearGradient x1="-2.14799918%" y1="97.8820357%" x2="117.696949%" y2="20.4682305%" id="linearGradient-5">
            <stop stop-color="#FFFFFF" stop-opacity="0" offset="0%"></stop>
            <stop stop-color="#FFFFFF" stop-opacity="0.91" offset="91%"></stop>
            <stop stop-color="#FFFFFF" offset="100%"></stop>
        </linearGradient>
        <linearGradient x1="5.46075085%" y1="27.1331058%" x2="94.5392491%" y2="72.5255973%" id="linearGradient-6">
            <stop stop-color="#FFFFFF" stop-opacity="0" offset="0%"></stop>
            <stop stop-color="#FFFFFF" offset="100%"></stop>
        </linearGradient>
        <polygon id="path-7" points="0.962 0.75 46.037 0.75 46.037 23.79 0.962 23.79"></polygon>
        <polygon id="path-9" points="0.32 0.25 48.678 0.25 48.678 7.75 0.32 7.75"></polygon>
    </defs>
    <g id="Page-1" stroke="none" stroke-width="1" fill="none" fill-rule="evenodd">
        <g id="sprite">
            <path d="M0.5,0.5 L1.5,0.5 L1.5,1.5 L0.5,1.5 L0.5,0.5 Z M799,959 L800,959 L800,960 L799,960 L799,959 Z" id="Shape" fill="#EB212E" opacity="0.25"></path>
            <path d="M80,50 C63.432,50 50,63.432 50,80 C50,96.567 63.432,110 80,110 C96.57,110 110,96.567 110,80 C110,63.432 96.57,50 80,50 L80,50 Z M80,107 C65.112,107 53,94.888 53,80 C53,65.614 64.307,53.825 78.5,53.044 L78.5,93.402 L69.85,84.437 L67.672,86.141 L80.002,99.121 L92.328,86.141 L90.148,84.438 L81.5,93.404 L81.5,53.044 C95.693,53.826 107,65.614 107,80 C107,94.888 94.888,107 80,107 L80,107 Z" id="Shape" fill="#F9F9F9"></path>
            <path d="M239.998,50 C223.432,50 210,63.432 210,80 C210,96.567 223.432,110 239.998,110 C256.568,110 270,96.567 270,80 C270,63.432 256.568,50 239.998,50 L239.998,50 Z M239.998,107 C225.11,107 213,94.888 213,80 C213,65.614 224.307,53.825 238.5,53.044 L238.5,93.402 L229.85,84.437 L227.672,86.141 L240,99.12 L252.328,86.142 L250.148,84.438 L241.5,93.404 L241.5,53.044 C255.69,53.824 267,65.614 267,80 C267,94.888 254.887,107 239.998,107 L239.998,107 Z" id="Shape" fill="#414042"></path>
            <g id="Group" transform="translate(69.000000, 228.000000)" fill="#FFFFFF">
                <path d="M14.257,2.588 L15.557,2.588 L15.557,7.474 C15.557,7.624 15.587,7.734 15.637,7.8 C15.694,7.87 15.784,7.904 15.904,7.904 C16,7.904 16.122,7.858 16.269,7.77 C16.412,7.678 16.545,7.566 16.669,7.425 L16.669,2.587 L17.969,2.587 L17.969,8.959 L16.669,8.959 L16.669,8.253 C16.429,8.513 16.179,8.713 15.919,8.847 C15.659,8.98 15.407,9.054 15.163,9.054 C14.86,9.054 14.637,8.954 14.483,8.764 C14.331,8.576 14.255,8.291 14.255,7.914 L14.255,2.587 L14.257,2.588 Z M5.876,0.323 L6.828,3.776 L6.918,3.776 L7.828,0.323 L9.315,0.323 L7.611,5.38 L7.611,8.96 L6.147,8.96 L6.147,5.538 L4.401,0.323 L5.876,0.323 Z M12.686,2.89 C12.341,2.584 11.9,2.43 11.362,2.43 C10.772,2.43 10.297,2.576 9.948,2.868 C9.598,3.158 9.423,3.551 9.423,4.044 L9.423,7.348 C9.423,7.888 9.595,8.32 9.935,8.638 C10.278,8.96 10.735,9.123 11.301,9.123 C11.895,9.123 12.359,8.967 12.698,8.657 C13.034,8.344 13.2,7.92 13.2,7.373 L13.2,4.081 C13.2,3.601 13.03,3.199 12.686,2.891 L12.686,2.89 Z M11.873,7.47 C11.873,7.64 11.82,7.776 11.717,7.873 C11.613,7.971 11.474,8.019 11.297,8.019 C11.127,8.019 10.993,7.973 10.902,7.872 C10.808,7.775 10.759,7.642 10.759,7.468 L10.759,3.995 C10.759,3.855 10.811,3.745 10.909,3.658 C11.009,3.571 11.137,3.53 11.295,3.53 C11.468,3.53 11.607,3.57 11.713,3.658 C11.819,3.746 11.871,3.854 11.871,3.995 L11.871,7.467 L11.873,7.47 Z M17.612,15.366 C17.428,15.366 17.297,15.42 17.216,15.526 C17.136,15.629 17.096,15.804 17.096,16.046 L17.096,16.63 L18.118,16.63 L18.118,16.047 C18.118,15.807 18.078,15.629 17.998,15.527 C17.92,15.42 17.788,15.367 17.612,15.367 L17.612,15.366 Z M13.625,15.346 C13.543,15.346 13.461,15.366 13.381,15.403 C13.301,15.443 13.221,15.503 13.143,15.583 L13.143,19.188 C13.237,19.282 13.328,19.353 13.416,19.392 C13.506,19.432 13.599,19.455 13.696,19.455 C13.836,19.455 13.94,19.415 14.008,19.33 C14.072,19.248 14.106,19.118 14.106,18.933 L14.106,15.946 C14.106,15.75 14.066,15.602 13.984,15.501 C13.902,15.398 13.78,15.347 13.626,15.347 L13.625,15.346 Z" id="Shape"></path>
                <path d="M18.752,10.968 L4.244,10.968 C1.938,10.968 0.074,12.841 0.074,15.146 L0.074,18.502 C0.074,20.807 1.938,22.679 4.244,22.679 L18.752,22.679 C21.056,22.679 22.927,20.806 22.927,18.501 L22.927,15.145 C22.927,12.84 21.057,10.967 18.752,10.967 L18.752,10.968 Z M7.292,13.584 L5.942,13.584 L5.942,20.286 L4.642,20.286 L4.642,13.584 L3.294,13.584 L3.294,12.44 L7.292,12.44 L7.292,13.584 L7.292,13.584 Z M11.104,20.286 L9.948,20.286 L9.948,19.646 C9.733,19.881 9.512,20.061 9.28,20.183 C9.05,20.31 8.825,20.368 8.61,20.368 C8.34,20.368 8.14,20.286 8.006,20.108 C7.872,19.935 7.802,19.68 7.802,19.335 L7.802,14.5 L8.958,14.5 L8.958,18.937 C8.958,19.074 8.983,19.171 9.031,19.231 C9.081,19.296 9.161,19.325 9.268,19.325 C9.351,19.325 9.458,19.288 9.588,19.207 C9.72,19.122 9.838,19.019 9.948,18.893 L9.948,14.5 L11.104,14.5 L11.104,20.286 L11.104,20.286 Z M15.296,19.091 C15.296,19.499 15.206,19.811 15.026,20.031 C14.846,20.251 14.581,20.357 14.24,20.357 C14.013,20.357 13.812,20.317 13.636,20.232 C13.46,20.148 13.29,20.02 13.141,19.842 L13.141,20.286 L11.971,20.286 L11.971,12.44 L13.141,12.44 L13.141,14.965 C13.299,14.793 13.463,14.655 13.637,14.565 C13.814,14.473 13.991,14.428 14.17,14.428 C14.535,14.428 14.815,14.55 15.008,14.795 C15.202,15.045 15.295,15.401 15.295,15.878 L15.295,19.093 L15.296,19.091 Z M19.309,17.533 L17.095,17.533 L17.095,18.621 C17.095,18.925 17.131,19.137 17.208,19.257 C17.283,19.377 17.414,19.433 17.598,19.433 C17.788,19.433 17.925,19.383 18.002,19.283 C18.076,19.183 18.115,18.963 18.115,18.623 L18.115,18.359 L19.305,18.359 L19.305,18.655 C19.305,19.25 19.163,19.695 18.868,19.998 C18.581,20.298 18.148,20.443 17.57,20.443 C17.053,20.443 16.644,20.29 16.346,19.966 C16.051,19.651 15.9,19.213 15.9,18.653 L15.9,16.055 C15.9,15.555 16.064,15.145 16.39,14.827 C16.72,14.513 17.14,14.357 17.657,14.357 C18.187,14.357 18.594,14.501 18.877,14.794 C19.162,15.086 19.305,15.504 19.305,16.054 L19.305,17.534 L19.309,17.533 Z" id="Shape"></path>
            </g>
            <path d="M80.5,223.75 C89.184,223.75 96.25,230.814 96.25,239.5 C96.25,248.185 89.184,255.25 80.5,255.25 C71.816,255.25 64.75,248.185 64.75,239.5 C64.75,230.814 71.815,223.75 80.5,223.75 L80.5,223.75 Z M80.5,222 C70.835,222 63,229.836 63,239.5 C63,249.166 70.835,257 80.5,257 C90.165,257 98,249.166 98,239.5 C98,229.836 90.165,222 80.5,222 L80.5,222 Z" id="Shape" fill="#FFFFFF"></path>
            <g id="Group" transform="translate(229.000000, 228.000000)" fill="#414042">
                <path d="M14.257,2.588 L15.557,2.588 L15.557,7.474 C15.557,7.624 15.587,7.734 15.637,7.8 C15.694,7.87 15.784,7.904 15.904,7.904 C16,7.904 16.122,7.858 16.269,7.77 C16.412,7.678 16.545,7.566 16.669,7.425 L16.669,2.587 L17.969,2.587 L17.969,8.959 L16.669,8.959 L16.669,8.253 C16.429,8.513 16.179,8.713 15.919,8.847 C15.659,8.98 15.407,9.054 15.163,9.054 C14.86,9.054 14.637,8.954 14.483,8.764 C14.331,8.576 14.255,8.291 14.255,7.914 L14.255,2.587 L14.257,2.588 Z M5.876,0.323 L6.826,3.776 L6.919,3.776 L7.827,0.323 L9.313,0.323 L7.609,5.38 L7.609,8.96 L6.144,8.96 L6.144,5.538 L4.398,0.323 L5.876,0.323 Z M12.685,2.89 C12.34,2.584 11.899,2.43 11.361,2.43 C10.771,2.43 10.297,2.576 9.948,2.868 C9.598,3.158 9.423,3.551 9.423,4.044 L9.423,7.348 C9.423,7.888 9.595,8.32 9.935,8.638 C10.278,8.96 10.735,9.123 11.301,9.123 C11.894,9.123 12.358,8.967 12.697,8.657 C13.033,8.344 13.199,7.92 13.199,7.373 L13.199,4.081 C13.199,3.601 13.029,3.199 12.686,2.891 L12.685,2.89 Z M11.873,7.47 C11.873,7.64 11.82,7.776 11.717,7.873 C11.613,7.971 11.474,8.019 11.297,8.019 C11.127,8.019 10.993,7.973 10.902,7.872 C10.808,7.775 10.759,7.642 10.759,7.468 L10.759,3.995 C10.759,3.855 10.811,3.745 10.909,3.658 C11.009,3.571 11.137,3.53 11.295,3.53 C11.468,3.53 11.607,3.57 11.713,3.658 C11.819,3.746 11.871,3.854 11.871,3.995 L11.871,7.467 L11.873,7.47 Z M17.61,15.366 C17.427,15.366 17.296,15.42 17.215,15.526 C17.135,15.629 17.095,15.804 17.095,16.046 L17.095,16.63 L18.117,16.63 L18.117,16.047 C18.117,15.807 18.077,15.629 17.997,15.527 C17.92,15.42 17.787,15.367 17.611,15.367 L17.61,15.366 Z M13.625,15.346 C13.543,15.346 13.461,15.366 13.381,15.403 C13.301,15.443 13.221,15.503 13.143,15.583 L13.143,19.188 C13.237,19.282 13.328,19.353 13.416,19.392 C13.506,19.432 13.599,19.455 13.696,19.455 C13.836,19.455 13.94,19.415 14.008,19.33 C14.072,19.248 14.106,19.118 14.106,18.933 L14.106,15.946 C14.106,15.75 14.066,15.602 13.984,15.501 C13.902,15.4 13.779,15.347 13.626,15.347 L13.625,15.346 Z" id="Shape"></path>
                <path d="M18.752,10.968 L4.244,10.968 C1.938,10.968 0.074,12.841 0.074,15.146 L0.074,18.502 C0.074,20.807 1.938,22.679 4.244,22.679 L18.752,22.679 C21.056,22.679 22.927,20.806 22.927,18.501 L22.927,15.145 C22.927,12.84 21.057,10.967 18.752,10.967 L18.752,10.968 Z M7.292,13.584 L5.942,13.584 L5.942,20.286 L4.642,20.286 L4.642,13.584 L3.294,13.584 L3.294,12.44 L7.292,12.44 L7.292,13.584 L7.292,13.584 Z M11.102,20.286 L9.947,20.286 L9.947,19.646 C9.732,19.881 9.511,20.061 9.279,20.183 C9.049,20.31 8.823,20.368 8.609,20.368 C8.339,20.368 8.139,20.286 8.004,20.108 C7.87,19.935 7.8,19.68 7.8,19.335 L7.8,14.5 L8.957,14.5 L8.957,18.937 C8.957,19.074 8.982,19.171 9.03,19.231 C9.078,19.296 9.158,19.325 9.266,19.325 C9.349,19.325 9.456,19.288 9.586,19.207 C9.718,19.122 9.836,19.019 9.946,18.893 L9.946,14.5 L11.102,14.5 L11.102,20.286 L11.102,20.286 Z M15.296,19.091 C15.296,19.499 15.206,19.811 15.026,20.031 C14.846,20.251 14.581,20.357 14.24,20.357 C14.013,20.357 13.812,20.317 13.636,20.232 C13.46,20.148 13.29,20.02 13.141,19.842 L13.141,20.286 L11.971,20.286 L11.971,12.44 L13.141,12.44 L13.141,14.965 C13.299,14.793 13.463,14.655 13.637,14.565 C13.814,14.473 13.991,14.428 14.17,14.428 C14.535,14.428 14.815,14.55 15.008,14.795 C15.202,15.045 15.295,15.401 15.295,15.878 L15.295,19.093 L15.296,19.091 Z M19.309,17.533 L17.095,17.533 L17.095,18.621 C17.095,18.925 17.131,19.137 17.208,19.257 C17.283,19.377 17.414,19.433 17.598,19.433 C17.788,19.433 17.925,19.383 18.002,19.283 C18.076,19.183 18.115,18.963 18.115,18.623 L18.115,18.359 L19.305,18.359 L19.305,18.655 C19.305,19.25 19.163,19.695 18.868,19.998 C18.581,20.298 18.148,20.443 17.57,20.443 C17.053,20.443 16.644,20.29 16.346,19.966 C16.051,19.651 15.9,19.213 15.9,18.653 L15.9,16.055 C15.9,15.555 16.064,15.145 16.39,14.827 C16.72,14.513 17.14,14.357 17.657,14.357 C18.187,14.357 18.594,14.501 18.877,14.794 C19.162,15.086 19.305,15.504 19.305,16.054 L19.305,17.534 L19.309,17.533 Z" id="Shape"></path>
            </g>
            <path d="M240.5,223.75 C249.184,223.75 256.25,230.814 256.25,239.5 C256.25,248.185 249.184,255.25 240.5,255.25 C231.816,255.25 224.75,248.185 224.75,239.5 C224.75,230.814 231.814,223.75 240.5,223.75 L240.5,223.75 Z M240.5,222 C230.835,222 223,229.836 223,239.5 C223,249.166 230.835,257 240.5,257 C250.165,257 258,249.166 258,239.5 C258,229.836 250.165,222 240.5,222 L240.5,222 Z" id="Shape" fill="#414042"></path>
            <path d="M84.25,400.506 L81.797,400.506 L81.797,409.25 L78.164,409.25 L78.164,400.506 L76.436,400.506 L76.436,397.416 L78.164,397.416 L78.164,395.418 C78.164,393.985 78.844,391.748 81.831,391.748 L84.523,391.76 L84.523,394.76 L82.57,394.76 C82.25,394.76 81.798,394.918 81.798,395.6 L81.798,397.417 L84.568,397.417 L84.25,400.507 L84.25,400.506 Z" id="Shape" fill="#FFFFFF"></path>
            <path d="M80.5,384.75 C89.185,384.75 96.25,391.813 96.25,400.5 C96.25,409.185 89.185,416.25 80.5,416.25 C71.816,416.25 64.75,409.185 64.75,400.5 C64.75,391.814 71.816,384.75 80.5,384.75 L80.5,384.75 Z M80.5,383 C70.836,383 63,390.836 63,400.5 C63,410.166 70.835,418 80.5,418 C90.166,418 98,410.166 98,400.5 C98,390.836 90.166,383 80.5,383 L80.5,383 Z" id="Shape" fill="#FFFFFF"></path>
            <path d="M244.248,400.506 L241.795,400.506 L241.795,409.25 L238.162,409.25 L238.162,400.506 L236.432,400.506 L236.432,397.416 L238.162,397.416 L238.162,395.418 C238.162,393.985 238.842,391.748 241.828,391.748 L244.518,391.76 L244.518,394.76 L242.566,394.76 C242.566,394.76 241.796,394.918 241.796,395.6 L241.796,397.417 L244.566,397.417 L244.248,400.507 L244.248,400.506 Z" id="Shape" fill="#414042"></path>
            <path d="M240.498,384.75 C249.184,384.75 256.25,391.813 256.25,400.5 C256.25,409.185 249.184,416.25 240.498,416.25 C231.814,416.25 224.748,409.185 224.748,400.5 C224.748,391.814 231.814,384.75 240.498,384.75 L240.498,384.75 Z M240.498,383 C230.834,383 223,390.836 223,400.5 C223,410.166 230.834,418 240.498,418 C250.164,418 258,410.166 258,400.5 C258,390.836 250.164,383 240.498,383 L240.498,383 Z" id="Shape" fill="#414042"></path>
            <path d="M80.5,544.75 C89.185,544.75 96.25,551.813 96.25,560.5 C96.25,569.186 89.185,576.25 80.5,576.25 C71.815,576.25 64.75,569.186 64.75,560.5 C64.75,551.814 71.815,544.75 80.5,544.75 L80.5,544.75 Z M80.5,543 C70.836,543 63,550.836 63,560.5 C63,570.166 70.835,578 80.5,578 C90.165,578 98,570.166 98,560.5 C98,550.836 90.164,543 80.5,543 L80.5,543 Z" id="Shape" fill="#FFFFFF"></path>
            <path d="M87.457,556.932 C87.467,557.085 87.467,557.242 87.467,557.395 C87.467,562.14 83.857,567.612 77.253,567.612 C75.225,567.612 73.338,567.018 71.75,566.002 C72.03,566.032 72.316,566.05 72.606,566.05 C74.289,566.05 75.836,565.48 77.064,564.516 C75.494,564.486 74.168,563.446 73.71,562.023 C73.93,562.063 74.154,562.085 74.386,562.085 C74.716,562.085 75.032,562.039 75.332,561.96 C73.692,561.628 72.452,560.178 72.452,558.44 L72.452,558.394 C72.937,558.664 73.492,558.824 74.078,558.842 C73.115,558.197 72.481,557.099 72.481,555.852 C72.481,555.196 72.661,554.579 72.968,554.049 C74.738,556.219 77.385,557.649 80.368,557.799 C80.308,557.535 80.276,557.263 80.276,556.981 C80.276,554.999 81.882,553.391 83.866,553.391 C84.899,553.391 85.832,553.828 86.486,554.524 C87.304,554.364 88.073,554.064 88.768,553.654 C88.498,554.494 87.931,555.194 87.188,555.638 C87.916,555.553 88.608,555.358 89.251,555.075 C88.771,555.792 88.161,556.425 87.458,556.93 L87.457,556.932 Z" id="Shape" fill="#FFFFFF"></path>
            <path d="M240.5,544.75 C249.185,544.75 256.25,551.813 256.25,560.5 C256.25,569.186 249.185,576.25 240.5,576.25 C231.814,576.25 224.75,569.186 224.75,560.5 C224.75,551.814 231.814,544.75 240.5,544.75 L240.5,544.75 Z M240.5,543 C230.836,543 223,550.836 223,560.5 C223,570.166 230.836,578 240.5,578 C250.164,578 258,570.166 258,560.5 C258,550.836 250.164,543 240.5,543 L240.5,543 Z" id="Shape" fill="#414042"></path>
            <path d="M247.457,556.932 C247.467,557.085 247.469,557.242 247.469,557.395 C247.469,562.14 243.859,567.612 237.253,567.612 C235.225,567.612 233.338,567.018 231.749,566.002 C232.029,566.032 232.315,566.05 232.606,566.05 C234.288,566.05 235.836,565.48 237.063,564.516 C235.493,564.486 234.167,563.446 233.709,562.023 C233.929,562.063 234.152,562.085 234.385,562.085 C234.713,562.085 235.03,562.039 235.33,561.96 C233.69,561.628 232.452,560.178 232.452,558.44 L232.452,558.394 C232.936,558.664 233.49,558.824 234.077,558.842 C233.114,558.197 232.481,557.099 232.481,555.852 C232.481,555.196 232.661,554.579 232.967,554.049 C234.737,556.219 237.384,557.649 240.367,557.799 C240.307,557.535 240.274,557.263 240.274,556.981 C240.274,554.999 241.88,553.391 243.864,553.391 C244.897,553.391 245.831,553.828 246.484,554.524 C247.301,554.364 248.071,554.064 248.766,553.654 C248.496,554.494 247.928,555.194 247.186,555.638 C247.913,555.553 248.606,555.358 249.248,555.075 C248.77,555.792 248.161,556.425 247.458,556.93 L247.457,556.932 Z" id="Shape" fill="#414042"></path>
            <g id="Group" transform="translate(27.000000, 699.000000)" fill="#FFFFFF">
                <path d="M15.966,40.862 C15.953,40.852 15.923,40.834 15.886,40.806 C15.833,40.772 15.761,40.722 15.712,40.686 C13.592,39.112 12.466,36.418 12.169,32.213 C11.957,29.277 12.126,26.246 12.289,23.315 C12.327,22.641 12.365,21.97 12.397,21.302 L12.437,20.499 L12.515,18.921 L12.519,18.835 C12.587,17.499 12.521,17.19 12.349,17.009 C12.259,16.916 12.142,16.864 12.017,16.864 C11.689,16.864 11.497,17.158 11.437,17.269 C11.189,17.693 10.937,18.499 10.743,19.149 L10.703,19.282 C10.596,19.594 10.489,19.904 10.383,20.217 C9.927,21.547 9.456,22.925 8.903,24.235 C8.877,24.293 8.85,24.359 8.819,24.431 C8.554,25.073 7.753,27.007 6.969,27.043 C7.521,24.793 7.999,22.583 8.003,20.323 C8.003,17.675 7.367,16.243 6.111,16.069 C6.037,16.059 5.961,16.052 5.891,16.052 C3.851,16.052 3.749,19.859 3.715,21.109 L3.715,21.167 C3.655,23.303 3.795,25.937 5.361,27.552 C4.384,31.902 2.966,36.482 1.031,41.537 C0.971,41.687 0.991,41.853 1.084,41.991 C1.192,42.149 1.399,42.258 1.601,42.258 C1.815,42.258 1.994,42.14 2.071,41.948 C2.071,41.948 2.221,41.563 2.279,41.42 C2.467,40.94 2.651,40.46 2.832,39.98 C3.312,38.71 3.776,37.428 4.214,36.168 C5.246,33.194 6.024,30.686 6.647,28.312 C6.743,28.329 6.837,28.336 6.934,28.336 C8.67,28.336 9.642,25.722 10.164,24.316 C10.196,24.226 10.226,24.146 10.254,24.072 C10.546,23.302 10.817,22.52 11.078,21.742 C11.068,21.822 11.061,21.899 11.054,21.977 C10.774,24.773 10.487,27.664 10.588,30.527 C10.786,36.169 12.385,39.957 15.328,41.777 L15.448,41.851 L15.573,41.851 C15.945,41.851 16.093,41.419 16.111,41.371 C16.191,41.131 16.087,40.947 15.964,40.859 L15.966,40.862 Z M5.286,22.328 C5.346,21.198 5.521,20.15 5.806,19.215 C5.806,19.211 5.808,19.205 5.81,19.2 C6.048,20.138 6.057,21.148 6.042,22.054 C6.022,23.324 5.916,24.549 5.73,25.714 C5.238,24.604 5.232,23.298 5.285,22.328 L5.286,22.328 Z" id="Shape"></path>
                <path d="M36.222,19.252 C36.132,19.057 35.912,18.847 35.64,18.847 C35.506,18.847 35.382,18.9 35.286,18.995 C35.106,19.182 30.439,23.989 27.629,26.872 C27.359,26.314 26.903,25.974 26.335,25.925 C26.283,25.92 26.231,25.918 26.179,25.918 C25.531,25.918 24.969,26.253 24.474,26.548 L24.29,26.655 C24.143,26.741 24,26.843 23.862,26.941 C23.722,27.041 23.502,27.198 23.384,27.241 C23.381,27.234 23.378,27.226 23.374,27.221 C23.932,26.694 24.564,26.091 25.184,25.491 C25.269,25.407 25.372,25.311 25.484,25.211 C26.334,24.431 27.757,23.121 26.998,21.853 C26.802,21.543 26.493,21.373 26.128,21.373 C24.698,21.373 22.651,24.009 22.632,24.035 C21.945,25.015 21.652,26.015 21.759,27.021 C20.429,28.285 19.362,29.221 18.507,29.875 C17.447,30.665 16.659,31.065 16.167,31.065 L16.164,31.065 C16.022,31.065 15.744,31.06 15.654,30.455 C16.918,29.375 18.191,28.171 19.072,26.713 C19.832,25.456 19.834,24.335 19.078,23.71 L19.062,23.695 L19.046,23.685 C18.806,23.521 18.546,23.438 18.271,23.438 C17.017,23.438 15.875,25.213 15.138,26.705 C14.74,27.511 14.232,28.719 14.308,30.075 C14.168,30.2 14.026,30.32 13.888,30.435 C13.728,30.565 13.673,30.785 13.746,30.989 C13.822,31.199 14.038,31.413 14.306,31.413 C14.406,31.413 14.502,31.383 14.582,31.325 C14.957,32.14 15.624,32.279 16.035,32.279 C16.849,32.279 17.907,31.775 19.179,30.779 C19.499,30.555 21.239,29.136 22.184,28.316 C22.492,28.744 22.89,28.846 23.204,28.846 C23.808,28.846 24.444,28.473 25.057,28.113 C25.449,27.883 25.854,27.643 26.127,27.586 C26.14,27.596 26.197,27.671 26.22,27.85 C26.255,28.1 26.197,28.33 26.16,28.38 C25.316,29.24 24.47,30.1 23.623,30.957 C21.977,32.623 20.547,34.16 19.72,36.11 C18.974,37.87 19.034,39.227 19.89,39.932 C20.185,40.177 20.523,40.302 20.895,40.302 C21.845,40.302 22.763,39.482 23.457,38.77 C26.325,35.82 27.909,32.174 27.917,28.506 C27.927,28.371 28.289,28.036 28.443,27.896 C28.54,27.808 28.631,27.724 28.708,27.643 L30.048,26.223 C30.925,25.293 31.803,24.367 32.685,23.443 L36.155,19.803 C36.285,19.657 36.31,19.446 36.222,19.253 L36.222,19.252 Z M21.05,37.05 C21.273,36.395 21.62,35.734 22.173,34.904 C23.183,33.39 24.503,32.038 25.775,30.726 L26.01,30.486 C25.63,32.55 24.826,34.409 23.615,36.016 L23.508,36.162 C21.83,38.438 21.17,38.682 20.964,38.682 C20.947,38.682 20.936,38.682 20.926,38.677 C20.738,38.389 20.779,37.841 21.049,37.05 L21.05,37.05 Z M25.767,22.857 C25.554,23.211 24.994,23.912 23.574,25.284 C23.717,25.012 23.906,24.724 24.14,24.429 C24.558,23.899 25.316,23.145 25.767,22.856 L25.767,22.857 Z M18.15,25.1 C18.17,25.57 17.626,26.35 17.402,26.675 L17.328,26.78 C16.941,27.345 16.483,27.91 15.926,28.508 C16.15,27.912 16.464,27.351 16.75,26.878 C17.046,26.388 17.76,25.431 18.15,25.098 L18.15,25.1 Z M50.03,30.39 C49.882,30.39 49.738,30.454 49.623,30.576 C49.256,30.956 48.456,31.826 47.751,32.596 C47.151,33.251 46.528,33.93 46.407,34.048 C45.285,35.14 43.557,36.71 41.531,37.741 C40.901,38.061 39.667,38.598 38.493,38.598 C37.626,38.598 36.993,38.311 36.553,37.721 C35.621,36.461 35.85,34.487 36.103,33.107 C36.736,29.667 38.403,26.527 40.013,23.49 L40.37,22.812 C42.164,19.52 44.304,16.124 46.91,12.422 C49.202,9.169 51.8,5.484 55.063,2.936 L55.116,2.894 C56.059,2.149 56.471,2.039 56.632,2.039 L56.667,2.039 C56.673,2.049 56.687,2.072 56.701,2.131 C57.121,3.668 55.484,5.681 54.748,6.488 C54.598,6.633 54.551,6.848 54.625,7.048 C54.705,7.258 54.905,7.402 55.125,7.402 C55.253,7.402 55.377,7.352 55.475,7.268 C56.631,6.268 57.862,4.438 58.005,2.602 C58.055,1.934 57.938,1.456 57.643,1.135 C57.485,0.965 57.195,0.761 56.709,0.761 C55.589,0.761 54.135,1.834 53.856,2.048 C50.206,4.828 47.231,8.763 44.843,11.924 C39.875,18.5 35.319,25.028 34.149,32.557 C33.642,35.812 34.157,38.101 35.679,39.362 C36.389,39.955 37.273,40.255 38.302,40.255 C39.207,40.255 40.202,40.025 41.268,39.571 C43.624,38.535 45.546,36.744 46.958,35.299 C47.241,35.009 49.838,32.096 50.418,31.179 C50.528,31.004 50.541,30.799 50.45,30.637 C50.367,30.48 50.207,30.387 50.032,30.387 L50.03,30.39 Z M83.615,14.4 C83.359,13.987 82.937,13.73 82.395,13.66 C82.279,13.644 82.16,13.638 82.04,13.638 C80.763,13.638 79.502,14.496 78.56,15.408 C79.696,11.482 80.834,7.173 81.154,2.814 C81.167,2.669 81.122,2.537 81.028,2.434 C80.932,2.329 80.795,2.27 80.643,2.27 C80.338,2.27 79.988,2.506 79.953,2.89 C79.918,3.285 79.87,3.7 79.813,4.128 C79.7,4.963 79.543,5.864 79.335,6.883 C78.945,8.79 78.42,10.836 77.735,13.138 C77.088,15.304 76.412,17.423 75.725,19.435 C74.961,21.669 75.345,21.87 75.56,21.98 C75.623,22.01 75.69,22.028 75.762,22.028 C76.127,22.028 76.295,21.708 76.744,20.848 C77.227,19.928 77.958,18.538 79.014,17.418 C79.694,16.698 81.334,15.293 82.057,15.293 C82.149,15.293 82.209,15.303 82.259,15.461 C82.359,15.895 82.104,16.636 81.966,17.036 C81.686,17.848 81.256,18.67 80.606,19.622 C79.359,21.457 77.878,23.019 76.324,24.142 L76.294,24.165 C75.707,24.593 75.387,24.739 75.227,24.791 C75.245,24.463 75.389,24.097 75.507,23.795 C75.569,23.638 75.643,23.468 75.73,23.281 C75.802,23.135 75.79,22.963 75.702,22.819 C75.587,22.632 75.329,22.496 75.102,22.496 C74.912,22.496 74.742,22.598 74.662,22.759 L74.618,22.849 C74.258,23.569 73.41,25.245 74.505,25.912 C74.699,26.025 74.919,26.082 75.158,26.082 C76.01,26.082 76.915,25.362 77.513,24.89 C77.578,24.837 77.638,24.79 77.693,24.747 C79.409,23.42 82.463,20.675 83.608,17.217 C83.794,16.67 84.171,15.3 83.615,14.402 L83.615,14.4 Z" id="Shape"></path>
                <path d="M75.516,18.745 L75.549,18.673 C75.996,17.653 75.999,16.777 75.556,16.133 C75.2,15.616 74.601,15.333 73.871,15.333 C73.451,15.333 72.993,15.426 72.578,15.598 C71.292,16.13 70.334,17.222 69.565,18.421 C69.525,17.826 69.362,17.269 68.893,16.971 C68.719,16.861 68.531,16.804 68.336,16.804 C67.611,16.804 67.056,17.586 66.82,17.92 C66.113,18.915 65.588,20.028 65.08,21.107 L64.948,21.387 C64.485,22.389 64.184,22.925 63.993,23.211 C63.973,22.904 63.976,22.481 64.007,22.064 C64.027,21.794 64.057,21.522 64.089,21.234 C64.179,20.432 64.275,19.607 64.129,18.802 L64.124,18.782 C63.994,18.219 63.618,17.852 63.169,17.852 C62.951,17.852 62.739,17.938 62.536,18.106 C62.178,18.406 61.89,18.866 61.646,19.371 C61.604,19.007 61.521,18.668 61.379,18.385 C61.029,17.699 60.504,17.6 60.219,17.6 C59.753,17.6 59.253,17.86 58.847,18.317 C58.119,19.135 57.574,20.117 57.103,21.145 C57.093,20.725 57.019,20.427 56.885,20.23 C56.77,20.06 56.608,19.954 56.418,19.92 L56.398,19.915 L56.338,19.913 C55.755,19.913 55.446,20.621 55.261,21.045 C55.241,21.09 55.225,21.127 55.211,21.155 C55.039,21.51 54.708,22.303 54.357,23.145 C53.97,24.07 53.532,25.119 53.352,25.459 L53.295,25.569 C52.94,26.271 52.737,26.491 52.639,26.559 C52.561,26.369 52.461,25.792 52.601,24.521 L52.663,24.096 C52.823,23.016 52.89,22.569 52.65,22.29 C52.55,22.176 52.41,22.11 52.257,22.11 C51.825,22.11 51.511,22.47 50.785,23.56 C50.389,24.154 49.923,24.84 49.415,25.486 C48.665,26.441 47.528,27.882 46.178,28.072 L46.098,28.075 C45.821,28.075 45.718,27.969 45.658,27.873 C45.343,27.373 45.528,25.353 46.926,22.426 C47.719,20.769 48.748,19.552 49.983,18.814 C50.635,18.422 51.323,18.188 51.971,18.131 C52.064,18.123 52.158,18.119 52.248,18.119 C52.425,18.119 52.602,18.136 52.781,18.167 C52.807,18.172 52.835,18.175 52.864,18.175 C53.12,18.175 53.504,17.978 53.55,17.655 C53.582,17.425 53.444,17.219 53.214,17.148 C52.782,17.002 52.329,16.925 51.867,16.925 C49.584,16.925 47.453,18.701 46.22,20.363 C45.56,21.251 45.003,22.28 44.41,23.7 C43.924,24.862 43.26,26.455 43.457,27.957 C43.581,28.893 44.14,29.541 45.074,29.837 C45.314,29.914 45.564,29.952 45.817,29.952 C46.697,29.952 47.607,29.495 48.515,28.598 C49.535,27.585 50.318,26.4 51.075,25.252 C51.195,25.068 51.315,24.885 51.439,24.699 C51.329,25.995 51.454,26.869 51.814,27.309 C52.004,27.537 52.257,27.663 52.557,27.669 C53.759,27.669 54.532,25.789 54.994,24.664 C55.044,24.541 55.09,24.432 55.13,24.337 C55.272,24.007 55.408,23.669 55.54,23.342 C55.624,23.13 55.71,22.916 55.8,22.702 C55.673,23.726 55.464,24.742 55.402,25.032 C55.368,25.162 55.392,25.304 55.472,25.42 C55.594,25.602 55.818,25.683 55.986,25.683 C56.172,25.683 56.33,25.588 56.41,25.433 L56.42,25.413 C56.608,25.041 57.075,24.119 57.325,23.597 C57.889,22.409 59.261,19.944 59.979,19.251 C60.047,19.188 60.099,19.148 60.131,19.128 C60.209,19.288 60.291,19.728 60.269,20.364 L60.259,20.648 C60.235,21.518 60.192,22.978 59.784,24.544 C59.748,24.689 59.784,24.84 59.879,24.962 C59.996,25.109 60.196,25.206 60.389,25.206 C60.606,25.206 60.792,25.088 60.876,24.896 L60.886,24.869 C61.226,23.909 61.609,22.989 61.976,22.099 C62.186,21.599 62.382,21.122 62.566,20.659 L62.599,20.571 C62.706,20.294 62.797,20.075 62.872,19.905 C62.892,20.44 62.866,20.932 62.836,21.485 C62.826,21.643 62.818,21.805 62.811,21.972 L62.801,22.149 C62.751,22.925 62.659,24.369 63.651,24.646 C63.708,24.662 63.768,24.668 63.829,24.668 C64.539,24.668 65.195,23.606 66.229,21.518 C66.301,21.371 66.366,21.24 66.419,21.136 C66.534,20.909 66.642,20.684 66.749,20.454 C66.949,20.034 67.139,19.642 67.366,19.264 L67.429,19.16 C67.665,18.77 68.049,18.136 68.299,17.978 C68.353,18.085 68.427,18.378 68.419,19.166 L68.419,19.311 C68.424,19.578 68.424,19.846 68.424,20.115 L68.424,20.449 C68.178,20.953 67.939,21.491 67.714,22.049 C66.894,24.071 66.244,26.276 65.78,28.606 L65.712,28.944 C65.369,30.651 64.942,32.774 65.36,34.557 C65.524,35.252 65.98,35.703 66.527,35.703 C66.981,35.703 67.395,35.391 67.664,34.833 C68.404,33.25 68.636,31.319 68.84,29.616 C68.877,29.316 68.912,29.022 68.95,28.734 C69.223,26.63 69.412,24.574 69.51,22.622 C69.514,22.532 69.515,22.435 69.515,22.34 C69.517,22.112 69.518,21.9 69.583,21.743 C69.743,21.368 69.913,21.001 70.083,20.653 C70.288,20.236 70.52,19.81 70.789,19.351 C71.443,18.241 72.469,16.751 73.826,16.674 L73.938,16.672 C74.378,16.672 74.458,16.832 74.486,16.884 C74.729,17.364 74.174,18.648 73.686,19.322 C72.921,20.369 71.914,21.355 70.424,22.514 C70.294,22.614 70.186,22.809 70.272,23.066 C70.335,23.254 70.552,23.556 70.864,23.556 C70.964,23.556 71.061,23.524 71.141,23.461 L71.156,23.451 L71.169,23.437 C71.489,23.147 71.829,22.857 72.159,22.577 C73.419,21.505 74.723,20.397 75.482,18.79 C75.492,18.79 75.502,18.77 75.512,18.75 L75.516,18.745 Z M67.746,27.552 C67.598,28.582 67.432,29.552 67.248,30.482 C67.178,30.834 67.113,31.152 67.052,31.438 C67.115,30.901 67.202,30.318 67.316,29.671 C67.442,28.955 67.586,28.248 67.746,27.553 L67.746,27.552 Z M105.427,30.948 C105.187,30.948 104.847,30.885 104.717,30.782 C104.484,30.594 104.489,30.405 104.565,29.95 C104.623,29.596 104.695,29.16 104.425,28.765 C104.001,28.152 103.305,27.922 102.693,27.721 C102.523,27.666 102.365,27.617 102.219,27.557 C102.073,27.499 101.939,27.44 101.829,27.384 C102.095,27.234 102.445,27.114 102.746,27.011 C102.926,26.949 103.098,26.891 103.251,26.828 L103.369,26.778 C104.143,26.461 105.109,26.063 105.649,25.324 C106.109,24.689 106.033,24.166 105.889,23.838 C105.251,22.38 101.969,21.978 101.937,21.974 C100.381,21.79 98.994,21.568 97.799,20.69 C96.681,19.813 95.999,18.5 95.775,16.78 C95.745,16.55 95.722,16.26 95.71,16.092 L95.93,15.759 C96.223,15.303 96.52,14.821 96.812,14.329 C97.414,13.309 97.972,12.279 98.47,11.265 C99.13,9.922 99.86,8.353 100.202,6.708 L100.212,6.653 C100.526,5.151 100.854,3.048 100.092,2.11 C99.839,1.798 99.484,1.633 99.066,1.633 C99.026,1.633 98.986,1.633 98.946,1.637 C97.363,1.75 96.626,3.947 96.186,5.255 C96.133,5.413 96.086,5.557 96.04,5.68 C94.82,9.075 94.242,12.092 94.274,14.91 C94.278,15.234 94.3,15.642 94.314,15.853 C94.032,16.281 93.644,16.847 93.377,17.199 C93.331,17.261 93.281,17.327 93.227,17.396 C93.023,17.666 92.573,18.27 92.324,18.434 C92.318,18.418 92.312,18.407 92.306,18.394 C92.186,18.12 92.133,17.791 92.089,17.481 C91.972,16.658 91.962,15.807 91.966,15.161 C91.966,15.073 91.964,14.985 91.962,14.895 C91.955,14.581 91.947,14.285 92.072,14.085 C92.312,13.702 92.546,13.317 92.766,12.939 C93.228,12.149 93.614,11.429 93.946,10.747 C94.794,8.985 95.356,7.404 95.662,5.913 L95.675,5.849 C95.807,5.201 96.008,4.216 95.515,3.543 C95.245,3.176 94.915,3.1 94.685,3.1 C94.052,3.1 93.479,3.684 93.262,3.935 C91.064,6.478 90.915,10.445 90.807,13.34 C90.787,13.91 90.424,14.423 90.042,14.968 C89.957,15.088 89.872,15.208 89.792,15.328 C89.278,16.1 88.739,16.85 88.189,17.56 C87.434,18.538 86.502,19.743 85.425,20.624 C85.975,19.874 86.395,19.159 86.705,18.456 C86.785,18.272 87.477,16.638 86.932,15.802 C86.797,15.596 86.532,15.35 86.034,15.35 C85.981,15.35 85.924,15.354 85.866,15.36 C84.842,15.464 84.006,16.548 83.566,17.53 C83.123,18.518 82.851,20.024 83.446,21.19 C83.039,21.684 82.604,22.14 82.148,22.548 C82.003,22.666 81.948,22.86 82.008,23.048 C82.07,23.238 82.304,23.506 82.585,23.506 C82.689,23.506 82.789,23.472 82.872,23.402 C83.412,22.948 83.917,22.422 84.242,22.066 C84.372,22.134 84.529,22.184 84.712,22.184 C85.049,22.184 85.409,22.027 85.846,21.689 C86.152,21.456 86.304,21.333 86.536,21.119 C88.136,19.699 89.654,17.674 90.808,15.992 C90.835,16.559 90.888,17.157 90.992,17.748 C91.06,18.136 91.152,18.665 91.435,19.088 C91.518,19.218 91.773,19.606 92.281,19.606 C92.708,19.606 93.081,19.282 93.304,19.086 C93.779,18.672 94.182,18.2 94.576,17.681 C94.959,19.331 95.704,20.606 96.796,21.471 C97.431,21.975 98.186,22.371 99.038,22.651 C99.524,22.811 100.466,22.997 100.754,23.046 C100.914,23.073 101.204,23.112 101.434,23.146 C101.572,23.166 101.684,23.179 101.716,23.186 C102.29,23.289 102.786,23.421 103.226,23.594 C103.988,23.894 104.338,24.209 104.358,24.301 C104.355,24.311 104.334,24.344 104.274,24.394 C103.794,24.782 103.194,25.006 102.554,25.248 C101.844,25.518 101.107,25.793 100.511,26.318 C100.024,26.748 99.827,27.182 99.924,27.611 C100.119,28.474 101.442,28.851 102.407,29.127 C102.629,29.19 102.84,29.251 102.945,29.295 C103.478,29.517 103.468,29.571 103.415,29.877 C103.381,30.075 103.333,30.347 103.405,30.665 C103.595,31.5 104.273,31.923 105.423,31.923 C105.69,31.923 105.899,31.703 105.899,31.425 C105.899,31.315 105.865,31.211 105.801,31.125 C105.713,31.015 105.575,30.943 105.424,30.943 L105.427,30.948 Z M98.451,4.258 C98.565,4.028 98.683,3.788 98.829,3.606 L98.834,3.668 C98.847,3.853 98.828,4.614 98.772,5.1 C98.642,6.243 98.414,7.284 98.074,8.286 C97.517,9.926 96.764,11.606 95.784,13.39 C95.964,11.752 96.376,9.954 97.044,7.867 C97.519,6.387 97.944,5.292 98.424,4.319 L98.454,4.256 L98.451,4.258 Z M93.077,7.302 C93.27,6.708 93.541,6.129 93.883,5.582 L93.931,5.502 C94.145,5.152 94.301,4.934 94.415,4.794 C94.389,5.05 94.31,5.479 94.12,6.19 L94.085,6.322 C93.868,7.162 93.572,8.052 93.179,9.045 C92.919,9.701 92.614,10.381 92.259,11.095 L92.267,11.041 C92.453,9.649 92.719,8.425 93.075,7.303 L93.077,7.302 Z M84.423,19.829 C84.441,19.197 84.663,18.534 84.957,18.057 C85.225,17.645 85.442,17.377 85.609,17.203 C85.441,17.949 84.869,19.065 84.423,19.828 L84.423,19.829 Z" id="Shape"></path>
            </g>
            <path d="M80.5,828.01 C51.507,828.01 28,851.516 28,880.51 C28,909.504 51.507,933.01 80.5,933.01 C109.492,933.01 133,909.504 133,880.51 C133,851.516 109.492,828.01 80.5,828.01 L80.5,828.01 Z" id="Shape" fill="#C6E3E5"></path>
            <path d="M64.062,877.548 L96.93,877.548 L96.93,883.528 L64.062,883.528 L64.062,877.548 Z M107.656,880.528 L107.656,876.965 C107.656,876.965 107.808,875.727 108.453,875.727 L108.416,875.727 C109.059,875.727 109.216,876.17 109.216,876.965 L109.216,884.09 C109.216,884.885 109.059,885.328 108.416,885.328 L108.453,885.328 C107.808,885.328 107.656,884.885 107.656,884.09 L107.656,880.528 L107.656,880.528 Z" id="Shape" fill="#414042"></path>
            <path d="M95.717,880.528 L95.717,877.718 C95.717,877.088 95.839,876.738 96.344,876.738 L96.314,876.738 C96.82,876.738 96.939,877.09 96.939,877.718 L96.939,883.338 C96.939,883.963 96.819,884.314 96.313,884.314 L96.343,884.314 C95.838,884.314 95.716,883.964 95.716,883.337 L95.716,880.527 L95.717,880.528 Z M64.062,880.528 L64.062,877.718 C64.062,877.088 64.182,876.738 64.682,876.738 L64.654,876.738 C65.16,876.738 65.282,877.09 65.282,877.718 L65.282,883.338 C65.282,883.963 65.16,884.314 64.654,884.314 L64.684,884.314 C64.181,884.314 64.062,883.964 64.062,883.337 L64.062,880.527 L64.062,880.528 Z" id="Shape" fill="#939598"></path>
            <path d="M120.166,881.51 C120.166,882.3 119.529,882.94 118.738,882.94 L110.642,882.94 C109.852,882.94 109.214,882.3 109.214,881.51 L109.214,879.568 C109.214,878.78 109.851,878.138 110.642,878.138 L118.738,878.138 C119.528,878.138 120.166,878.78 120.166,879.568 L120.166,881.51 L120.166,881.51 Z" id="Shape" fill="#414042"></path>
            <path d="M111.262,880.538 C111.262,882.938 110.875,887.233 110.875,887.233 L108.703,887.233 L108.703,873.837 L110.875,873.837 C110.875,873.842 111.262,878.137 111.262,880.537 L111.262,880.538 Z M99.44,897.335 C98.72,897.235 96.918,896.712 96.918,892.839 L96.918,880.484 L96.918,868.181 C96.918,864.307 98.721,863.783 99.438,863.687 C99.433,863.687 99.428,863.687 99.421,863.689 C100.141,863.589 101.941,863.626 101.941,867.679 L101.941,893.339 C101.941,897.399 100.141,897.431 99.421,897.329 C99.429,897.332 99.435,897.334 99.441,897.334 L99.44,897.335 Z" id="Shape" fill="#414042"></path>
            <path d="M104.453,897.505 C103.738,897.588 101.941,897.71 101.941,893.593 L101.941,880.48 L101.941,867.427 C101.941,863.313 103.739,863.432 104.454,863.515 C104.446,863.513 104.44,863.513 104.436,863.511 C105.136,863.617 106.92,864.187 107.284,868.091 C107.636,871.996 107.77,880.484 107.724,880.484 C107.77,880.484 107.634,889.029 107.284,892.932 C106.921,896.836 105.138,897.407 104.436,897.512 C104.44,897.509 104.446,897.509 104.454,897.507 L104.453,897.505 Z" id="Shape" fill="#939598"></path>
            <path d="M53.344,880.495 L53.344,884.057 C53.344,884.854 53.189,885.294 52.546,885.294 L52.582,885.294 C51.94,885.294 51.787,884.854 51.787,884.057 L51.787,880.495 L51.787,876.931 C51.787,876.135 51.94,875.693 52.582,875.693 L52.546,875.693 C53.189,875.693 53.344,876.135 53.344,876.933 L53.344,880.496 L53.344,880.495 Z" id="Shape" fill="#414042"></path>
            <path d="M40.836,879.51 C40.836,878.72 41.473,878.08 42.262,878.08 L50.358,878.08 C51.148,878.08 51.788,878.72 51.788,879.51 L51.788,881.454 C51.788,882.241 51.148,882.882 50.358,882.882 L42.262,882.882 C41.472,882.882 40.836,882.242 40.836,881.454 L40.836,879.511 L40.836,879.51 Z" id="Shape" fill="#414042"></path>
            <path d="M49.738,880.48 C49.738,878.082 50.123,873.788 50.123,873.788 L52.297,873.788 L52.297,887.182 L50.123,887.182 C50.123,887.182 49.738,882.884 49.738,880.482 L49.738,880.48 Z M61.56,863.688 C62.28,863.788 64.08,864.308 64.08,868.182 L64.08,892.838 C64.08,896.712 62.28,897.236 61.56,897.335 C61.565,897.335 61.568,897.333 61.574,897.332 C60.856,897.432 59.058,897.396 59.058,893.342 L59.058,880.542 L59.058,867.682 C59.058,863.624 60.856,863.589 61.574,863.69 C61.568,863.688 61.564,863.688 61.56,863.688 L61.56,863.688 Z" id="Shape" fill="#414042"></path>
            <path d="M56.55,863.515 C57.26,863.432 59.06,863.313 59.06,867.427 L59.06,893.594 C59.06,897.711 57.26,897.589 56.55,897.506 C56.555,897.508 56.562,897.508 56.565,897.512 C55.86,897.407 54.079,896.836 53.717,892.932 C53.365,889.03 53.23,880.54 53.279,880.54 C53.225,880.54 53.364,871.997 53.716,868.09 C54.076,864.188 55.859,863.62 56.564,863.513 C56.56,863.516 56.554,863.518 56.548,863.518 L56.55,863.515 Z" id="Shape" fill="#939598"></path>
            <g id="Group" transform="translate(348.000000, 188.000000)">
                <path d="M52.5,0 C23.508,0 0,23.505 0,52.5 C0,81.494 23.508,105 52.5,105 C81.494,105 105,81.494 105,52.5 C105,23.506 81.494,0 52.5,0 L52.5,0 Z" id="Shape" fill="#C6E3E5"></path>
                <g transform="translate(45.000000, 82.000000)" id="Shape" stroke="#414042" stroke-width="1.589">
                    <path d="M14.525,0.648 L0.754,0.648 M14.525,3.717 L0.754,3.717 M12.935,6.784 L2.342,6.784 M11.347,9.852 L3.932,9.852"></path>
                </g>
                <g transform="translate(34.000000, 35.000000)" id="Shape" fill="#414042">
                    <path d="M11.85,14.14 C11.598,14.14 11.402,14.228 11.225,14.392 C11.061,14.567 10.985,14.765 10.973,15.006 C10.973,15.258 11.049,15.456 11.203,15.621 C11.367,15.786 11.576,15.863 11.816,15.863 C12.056,15.863 12.266,15.786 12.443,15.623 C12.619,15.457 12.715,15.26 12.715,15.007 C12.715,14.767 12.625,14.569 12.45,14.393 C12.29,14.23 12.102,14.141 11.85,14.141 L11.85,14.14 Z"></path>
                    <path d="M37.177,20.38 C37.177,14.073 33.967,0.576 18.64,0.576 C3.31,0.576 0.1,14.073 0.1,20.379 C0.1,26.685 8.947,35.521 8.947,37.191 C8.947,38.861 8.619,41.335 11.961,44.007 L25.324,44.007 C28.667,41.334 28.339,38.861 28.339,37.191 C28.334,35.521 37.179,26.685 37.179,20.378 L37.177,20.38 Z M18.64,42.42 L17.46,42.42 C16.8,33.11 9.498,23.27 8.238,21.634 C8.628,21.384 9.388,20.85 10.105,20.128 C9.745,22.434 11.742,22.461 12.977,21.166 C13.549,22.37 15.33,22.29 16.267,20.886 C16.381,22.418 18.04,22.286 19.112,21.142 C19.378,21.652 19.852,22.002 20.589,22.026 C21.643,22.054 22.445,21.761 23.186,20.726 C23.479,22.383 25.582,22.478 26.624,20.929 C26.71,22.065 27.7,22.253 28.638,21.785 C26.334,25.539 21.388,34.44 20.873,42.418 L18.638,42.418 L18.64,42.42 Z M14.494,19.186 C14.854,17.398 16.16,16.226 16.828,17.431 L16.336,19.976 C16.324,20.031 16.313,20.108 16.313,20.164 C14.789,22.224 14.055,21.184 14.493,19.187 L14.494,19.186 Z M24.834,19.229 C25.218,17.453 26.511,16.269 27.181,17.485 L26.661,20.205 C25.143,22.245 24.418,21.213 24.836,19.228 L24.834,19.229 Z M24.742,42.419 L21.402,42.419 C22.076,32.197 30.158,20.379 30.244,20.257 C30.326,20.137 30.297,19.971 30.176,19.887 C30.056,19.807 29.891,19.835 29.809,19.957 C29.794,19.977 29.575,20.3 29.209,20.867 C28.622,21.467 27.829,21.715 28.003,20.807 C28.255,19.545 28.485,18.569 28.825,16.891 L28.915,16.474 L26.14,16.474 C24.178,16.54 23.31,18.306 23.16,20.071 C23.158,20.095 23.162,20.115 23.16,20.138 C22.64,20.958 21.777,21.573 20.955,21.188 C20.485,20.96 20.287,20.345 20.275,19.818 C21.217,19.851 22.137,19.511 22.631,18.601 C22.961,17.955 22.951,17.121 22.391,16.671 C21.765,16.144 20.339,16.418 19.507,17.711 C18.94,18.613 18.697,19.824 18.954,20.733 C18.367,21.416 17.494,21.741 17.686,20.761 C17.949,19.477 18.573,16.286 18.969,14.279 L17.477,14.279 L16.951,16.869 C16.895,16.803 16.851,16.749 16.807,16.704 C15.867,15.924 13.089,16.704 12.805,20.026 C12.785,20.286 12.798,20.513 12.837,20.72 C12.233,21.42 11.317,21.76 11.51,20.75 C11.76,19.457 12.013,18.328 12.363,16.474 L10.847,16.474 L10.302,19.094 C9.27,20.407 7.732,21.32 7.708,21.334 C7.642,21.372 7.595,21.437 7.583,21.514 C7.567,21.59 7.587,21.668 7.636,21.728 C7.726,21.838 16.202,32.461 16.923,42.416 L12.533,42.416 C10.479,40.599 10.503,39.088 10.523,37.624 C10.526,37.474 10.528,37.329 10.528,37.188 C10.528,36.143 9.758,35.046 7.851,32.445 C5.398,29.091 1.684,24.019 1.684,20.375 C1.684,18.875 1.919,13.613 4.949,8.979 C7.902,4.456 12.509,2.162 18.636,2.162 C24.763,2.162 29.366,4.455 32.324,8.978 C35.348,13.612 35.586,18.873 35.586,20.374 C35.586,24.019 31.873,29.089 29.418,32.444 C27.516,35.044 26.744,36.14 26.744,37.186 C26.744,37.326 26.744,37.471 26.748,37.622 C26.772,39.089 26.793,40.599 24.743,42.417 L24.742,42.419 Z M20.304,19.305 C20.304,19.272 20.321,19.228 20.321,19.185 C20.438,18.57 20.635,18.078 20.869,17.725 C21.264,17.101 21.746,16.892 21.965,17.057 C22.237,17.275 22.04,19.359 20.305,19.305 L20.304,19.305 Z"></path>
                </g>
                <path d="M52.64,27.923 C52.115,27.923 51.685,27.496 51.685,26.969 L51.685,12.529 C51.685,12.003 52.115,11.576 52.64,11.576 C53.165,11.576 53.593,12.003 53.593,12.529 L53.593,26.967 C53.593,27.494 53.166,27.922 52.64,27.922 L52.64,27.923 Z M29.34,54.34 L14.902,54.34 C14.375,54.34 13.949,53.912 13.949,53.386 C13.949,52.859 14.374,52.432 14.901,52.432 L29.339,52.432 C29.866,52.432 30.292,52.859 30.292,53.386 C30.292,53.912 29.866,54.339 29.339,54.339 L29.34,54.34 Z M33.35,35.59 C33.13,35.59 32.907,35.512 32.725,35.355 L21.845,25.863 C21.45,25.517 21.408,24.916 21.755,24.518 C22.1,24.122 22.701,24.08 23.1,24.428 L33.98,33.918 C34.375,34.264 34.417,34.866 34.07,35.263 C33.88,35.479 33.617,35.59 33.35,35.59 L33.35,35.59 Z M90.1,54.34 L75.66,54.34 C75.136,54.34 74.708,53.912 74.708,53.386 C74.708,52.859 75.136,52.432 75.661,52.432 L90.101,52.432 C90.625,52.432 91.053,52.859 91.053,53.386 C91.053,53.912 90.626,54.339 90.1,54.339 L90.1,54.34 Z" id="Shape" fill="#414042"></path>
                <path d="M71.65,35.59 C71.383,35.59 71.12,35.48 70.93,35.263 C70.582,34.867 70.623,34.263 71.023,33.918 L81.9,24.428 C82.297,24.078 82.9,24.122 83.246,24.518 C83.594,24.914 83.553,25.518 83.154,25.863 L72.277,35.355 C72.095,35.512 71.873,35.59 71.65,35.59 L71.65,35.59 Z" id="Shape" fill="#414042"></path>
            </g>
            <g id="Group" transform="translate(348.000000, 348.000000)">
                <path d="M52.5,0 C23.508,0 0,23.505 0,52.5 C0,81.494 23.508,105 52.5,105 C81.496,105 105,81.494 105,52.5 C105,23.505 81.496,0 52.5,0 L52.5,0 Z" id="Shape" fill="#BAACA3"></path>
                <ellipse id="Oval" fill="#C6E3E5" cx="52.525" cy="52.5" rx="36.975" ry="37"></ellipse>
                <path d="M48.26,65.88 C48.26,65.88 47.47,68.534 45.092,68.534 C42.957,68.534 42.758,66.346 43.946,65.484 C45.574,64.304 48.26,65.879 48.26,65.879 L48.26,65.88 Z" id="Shape" fill="#FFE2CA"></path>
                <path d="M42.098,62.573 C41.958,62.659 39.208,63.303 39.288,65.177 C39.381,67.247 42.198,66.46 42.958,66.169 C43.568,65.937 45.703,63.935 45.486,64.147 L42.098,62.572 L42.098,62.573 Z" id="Shape" fill="#FFE2CA"></path>
                <path d="M42.395,61.86 L39.015,60.635 C39.015,60.635 36.515,60.655 36.515,62.073 C36.515,63.495 38.359,64.385 39.947,63.636 C40.352,63.448 42.395,61.861 42.395,61.861 L42.395,61.86 Z" id="Shape" fill="#FFE2CA"></path>
                <path d="M65.718,61.373 C65.658,61.223 64.435,55.771 63.048,51.198 C61.661,46.625 58.015,42.925 55.601,43.125 C53.188,43.325 51.546,41.741 50.109,41.741 C48.672,41.741 45.179,42.359 42.149,42.976 C39.119,43.592 37.119,42.102 37.119,42.102 C37.119,42.102 27.514,53.512 32.034,55.31 C36.554,57.108 34.499,58.084 36.091,59.576 C37.684,61.066 46.085,67.274 49.854,69.033 C53.461,70.717 53.252,68.045 53.252,68.045 C51.275,67.489 49.068,65.015 48.98,64.911 L49.226,64.694 C49.246,64.719 51.176,67.094 53.22,67.736 C57.327,68.93 56.478,66.399 56.09,66.104 C54.603,65.039 52.505,61.634 52.445,61.517 L52.735,61.365 C52.752,61.392 53.335,63.075 56.223,65.771 C59.113,68.468 61.345,65.971 61.827,65.364 C59.825,63.938 56.767,59.734 56.639,59.554 L56.906,59.364 C56.936,59.406 60.531,64.084 62.02,65.096 C63.67,66.219 64.6,66.796 66.09,65.449 C67.19,64.525 65.905,61.854 65.72,61.377 L65.718,61.373 Z" id="Shape" fill="#C98659"></path>
                <path d="M31.672,39.174 C31.877,39.174 38.656,41.57 38.656,41.57 L31.672,60.62 L24.277,57.947 L31.672,39.174 L31.672,39.174 Z" id="Shape" fill="#FFFFFF"></path>
                <path d="M35.3,37.666 C34.717,37.51 27.426,35.03 21.237,32.921 C17.609,38.646 15.501,45.428 15.501,52.706 C15.501,55.844 15.898,58.889 16.631,61.798 C20.601,63.36 23.894,64.648 24.347,64.8 C25.577,65.21 26.127,64.662 26.47,64.114 C26.81,63.564 35.3,40.064 35.3,40.064 C35.3,40.064 36.326,37.939 35.3,37.666 L35.3,37.666 Z" id="Shape" fill="#414042"></path>
                <path d="M71.804,46.907 C71.7,46.854 67.392,45.047 64.824,45.184 C61.51,45.364 58.661,44.902 56.734,44.85 C54.806,44.8 53.577,45.288 52.24,45.723 C50.904,46.161 49.515,46.393 45.334,50.246 C42.814,52.379 44.922,53.816 47.08,53.816 C48.437,53.816 49.597,53.61 50.518,52.918 C51.443,52.225 52.982,50.683 54.578,50.683 C56.168,50.683 62.538,55.953 65.722,61.371 C65.852,61.397 69.73,61.371 69.73,61.371 L71.804,46.908 L71.804,46.907 Z" id="Shape" fill="#FFE2CA"></path>
                <polyline id="Shape" fill="#FFFFFF" points="70.75 45.186 67.72 45.186 67.72 66.102 72.548 65.484 70.804 45.799"></polyline>
                <path d="M89.45,52.705 C89.45,49.625 89.066,46.637 88.357,43.775 C83.361,43.768 72.105,43.643 70.904,43.643 C69.364,43.643 69.774,44.723 69.774,45.543 C69.774,46.365 70.957,68.203 70.957,68.721 C70.957,69.544 71.007,69.749 72.754,69.595 C73.784,69.505 80.469,69.055 85.828,68.695 C88.148,63.855 89.448,58.433 89.448,52.705 L89.45,52.705 Z" id="Shape" fill="#414042"></path>
            </g>
            <g id="Group" transform="translate(348.000000, 28.000000)">
                <path d="M52.5,0 C23.508,0 0,23.507 0,52.5 C0,81.493 23.508,105 52.5,105 C81.492,105 105,81.493 105,52.5 C105,23.506 81.492,0 52.5,0 L52.5,0 Z" id="Shape" fill="#BAACA3"></path>
                <path d="M77.255,49.057 C76.991,49.057 76.735,49.084 76.483,49.135 C76.053,47.915 75.499,46.739 74.825,45.625 C75.013,45.455 75.208,45.305 75.388,45.12 C78.882,41.626 81.22,38.302 78.938,36.016 C76.658,33.733 73.331,36.07 69.834,39.564 C69.754,39.644 69.691,39.734 69.609,39.817 C67.612,38.264 65.317,36.984 62.796,36.072 C62.556,37.634 61.218,38.83 59.593,38.83 L47.313,38.83 C45.687,38.83 44.347,37.634 44.108,36.072 C36.65,38.772 31.118,44.604 29.732,51.646 C28.642,51.476 27.566,51.159 26.622,50.606 C28.17,48.891 28.17,46.036 28.17,44.55 C28.17,42.607 26.432,41.3 24.814,41.3 C24.044,41.3 23.352,41.594 22.864,42.128 C22.329,42.711 22.054,43.524 22.054,44.55 C22.054,46.944 22.67,48.883 23.887,50.34 C22.513,50.528 20.534,49.937 18.093,48.593 C17.718,48.381 17.236,48.521 17.023,48.903 C16.813,49.288 16.955,49.765 17.333,49.975 C20.781,51.875 23.379,52.41 25.248,51.593 C26.515,52.491 28.015,52.973 29.498,53.208 C29.433,53.83 29.388,54.464 29.388,55.104 C29.388,60.731 32.018,65.824 36.268,69.548 L31.845,73.974 C30.708,75.109 30.708,76.952 31.845,78.088 C32.983,79.224 34.825,79.224 35.96,78.088 L41.196,72.852 C44.79,74.682 48.968,75.752 53.453,75.752 C58.477,75.752 63.141,74.427 67.006,72.164 L72.928,78.088 C74.066,79.224 75.908,79.224 77.043,78.088 C78.18,76.953 78.18,75.108 77.043,73.974 L71.653,68.584 C73.493,66.761 74.965,64.658 75.975,62.364 C76.375,62.509 76.801,62.599 77.252,62.599 C79.359,62.599 81.07,60.891 81.07,58.785 L81.07,52.87 C81.072,50.764 79.36,49.057 77.253,49.057 L77.255,49.057 Z M25.373,49.63 C24.219,48.434 23.635,46.73 23.635,44.552 C23.635,43.945 23.768,43.476 24.027,43.198 C24.219,42.984 24.487,42.88 24.817,42.88 C25.655,42.88 26.594,43.596 26.594,44.553 C26.594,45.843 26.594,48.389 25.374,49.63 L25.373,49.63 Z" id="Shape" fill="#E9D0D6"></path>
                <path d="M53.863,19.06 C49.506,19.06 45.976,22.592 45.976,26.952 C45.976,31.31 49.504,34.842 53.863,34.842 C58.223,34.842 61.756,31.312 61.756,26.952 C61.756,22.592 58.224,19.06 53.863,19.06 L53.863,19.06 Z M53.863,33.263 C50.381,33.263 47.553,30.438 47.553,26.951 C47.553,23.465 50.379,20.639 53.863,20.639 C57.353,20.639 60.176,23.464 60.176,26.952 C60.176,30.44 57.353,33.265 53.863,33.265 L53.863,33.263 Z" id="Shape" fill="#FFFFFF"></path>
                <path d="M53.515,29.317 L53.515,27.217 C52.86,27.031 52.381,26.747 52.077,26.367 C51.767,25.987 51.617,25.527 51.617,24.987 C51.617,24.437 51.79,23.977 52.137,23.607 C52.484,23.231 52.942,23.017 53.517,22.96 L53.517,22.464 L54.245,22.464 L54.245,22.96 C54.775,23.024 55.198,23.205 55.511,23.504 C55.826,23.804 56.029,24.204 56.117,24.704 L54.847,24.87 C54.77,24.474 54.57,24.208 54.247,24.067 L54.247,26.027 C55.049,26.244 55.592,26.527 55.885,26.871 C56.175,27.219 56.323,27.661 56.323,28.204 C56.323,28.808 56.136,29.316 55.771,29.729 C55.409,30.145 54.896,30.399 54.249,30.494 L54.249,31.432 L53.519,31.432 L53.519,30.522 C52.941,30.452 52.472,30.234 52.113,29.874 C51.755,29.514 51.52,29.006 51.421,28.347 L52.733,28.207 C52.783,28.474 52.883,28.703 53.033,28.895 C53.173,29.093 53.333,29.233 53.516,29.319 L53.515,29.317 Z M53.515,24.057 C53.317,24.124 53.161,24.237 53.045,24.397 C52.925,24.557 52.868,24.734 52.868,24.927 C52.868,25.105 52.921,25.271 53.028,25.421 C53.132,25.574 53.298,25.697 53.513,25.791 L53.515,24.057 L53.515,24.057 Z M54.242,29.387 C54.492,29.341 54.697,29.225 54.85,29.04 C55.006,28.854 55.086,28.636 55.086,28.387 C55.086,28.161 55.021,27.969 54.889,27.807 C54.757,27.647 54.539,27.521 54.241,27.434 L54.241,29.388 L54.242,29.387 Z" id="Shape" fill="#FFFFFF"></path>
            </g>
            <path d="M557,76 L557,85 L564,80.5 M565,237 L556,237 L560.5,244" id="Shape" fill="#000000"></path>
            <path d="M957,76 L957,85 L964,80.5 M965,237 L956,237 L960.5,244" id="Shape" fill="#000000"></path>
            <g id="Group" transform="translate(188.000000, 668.000000)">
                <path d="M52.5,0.01 C23.507,0.01 0,23.517 0,52.51 C0,81.503 23.507,105.01 52.5,105.01 C81.493,105.01 105,81.505 105,52.51 C105,23.515 81.49,0.01 52.5,0.01 L52.5,0.01 Z" id="Shape" fill="#E2DED5"></path>
                <path d="M64.487,64.062 C60.267,64.062 60.339,62.627 58.659,62.627 C56.982,62.627 55.389,66.683 55.191,69.457 C54.996,72.217 54.246,88.837 54.401,88.991 C54.554,89.144 51.554,88.991 51.554,88.991 C51.554,88.991 51.904,83.011 52.132,79.221 C52.362,75.431 52.425,71.934 52.425,69.117 C52.425,66.3 51.943,66.214 50.808,63.714 C49.668,61.21 47.28,63.367 44.024,63.367 C40.77,63.367 40.094,59.467 36.737,59.483 C33.375,59.501 30.904,57.647 28.632,54.537 C26.362,51.425 30.772,44.492 32.499,41.912 C34.222,39.332 34.054,38.508 34.054,31.754 C34.054,24.997 41.64,22.378 45.334,20.579 C49.024,18.781 50.188,15.965 54.564,15.965 C58.946,15.965 62.93,21.823 66.564,23.592 C70.202,25.362 69.626,30.297 71.714,33.309 C73.804,36.324 77.994,40.424 77.994,45.971 C77.996,50.518 68.704,64.063 64.484,64.063 L64.487,64.062 Z" id="Shape" fill="#9DBB73"></path>
                <path d="M65.77,56.192 C65.77,57.802 65.41,58.838 63.8,58.838 C62.19,58.838 61.83,58.058 61.83,56.448 C61.83,54.835 62.924,54.804 63.8,55.463 C63.862,55.453 65.77,54.065 65.77,56.193 L65.77,56.192 Z M53.985,22.166 C53.985,23.776 53.625,24.812 52.015,24.812 C50.402,24.812 50.047,24.032 50.047,22.419 C50.047,20.806 51.141,20.776 52.014,21.434 C52.077,21.426 53.984,20.038 53.984,22.164 L53.985,22.166 Z M64.636,27.81 C64.636,29.42 64.279,30.457 62.666,30.457 C61.053,30.457 60.698,29.677 60.698,28.064 C60.698,26.454 61.79,26.422 62.668,27.081 C62.728,27.071 64.636,25.684 64.636,27.811 L64.636,27.81 Z M42.517,42.513 C41.869,43.989 41.121,44.79 39.647,44.14 C38.173,43.49 38.157,42.63 38.812,41.158 C39.462,39.683 40.476,40.098 41.012,41.053 C41.069,41.067 43.376,40.565 42.517,42.513 L42.517,42.513 Z M55.948,48.667 C55.298,50.142 54.553,50.943 53.078,50.297 C51.604,49.645 51.593,48.787 52.245,47.313 C52.891,45.839 53.905,46.253 54.44,47.209 C54.503,47.221 56.806,46.721 55.948,48.666 L55.948,48.667 Z M46.57,30.69 C45.92,32.166 45.176,32.968 43.7,32.317 C42.227,31.669 42.214,30.807 42.864,29.337 C43.514,27.86 44.528,28.277 45.064,29.231 C45.122,29.246 47.429,28.746 46.569,30.691 L46.57,30.69 Z M38.42,51.583 C38.745,53.161 38.605,54.247 37.025,54.571 C35.447,54.894 34.941,54.203 34.617,52.625 C34.291,51.049 35.357,50.799 36.347,51.265 C36.405,51.245 37.993,49.5 38.421,51.585 L38.42,51.583 Z M59.83,35.44 C60.153,37.017 60.015,38.103 58.435,38.427 C56.857,38.751 56.351,38.057 56.027,36.48 C55.701,34.903 56.767,34.655 57.757,35.12 C57.813,35.1 59.401,33.356 59.831,35.44 L59.83,35.44 Z M70.99,42.48 C71.313,44.057 71.173,45.143 69.593,45.47 C68.015,45.79 67.509,45.1 67.183,43.522 C66.859,41.944 67.925,41.695 68.915,42.162 C68.975,42.14 70.561,40.396 70.989,42.479 L70.99,42.48 Z M53.056,63.393 C53.056,63.393 49.728,60.223 49.926,59.2 C50.12,58.176 54.46,59.774 56.686,58.842 C58.906,57.907 55.579,62.519 53.056,63.392 L53.056,63.393 Z" id="Shape" fill="#E2DED5"></path>
            </g>
            <g id="Group" transform="translate(188.000000, 828.000000)">
                <path d="M52.498,0.01 C23.506,0.01 0,23.516 0,52.51 C0,81.505 23.506,105.01 52.498,105.01 C81.494,105.01 105,81.505 105,52.51 C105,23.516 81.494,0.01 52.498,0.01 L52.498,0.01 Z" id="Shape" fill="#E2DED5"></path>
                <path d="M59.506,75.833 L58.848,59.233 C58.848,58.155 56.078,56.648 54.926,56.648 L49.928,56.648 C48.778,56.648 46.01,58.155 46.01,59.232 L45.348,75.832 C44.85,78.992 37.073,81.935 41.638,81.935 L63.218,81.935 C67.781,81.935 60.004,78.991 59.506,75.833 L59.506,75.833 Z" id="Shape" fill="url(#linearGradient-1)"></path>
                <path d="M59.506,75.593 L58.848,58.991 C58.848,57.916 56.078,56.411 54.926,56.411 L49.928,56.411 C48.778,56.411 46.01,57.916 46.01,58.991 L45.348,75.594 C44.85,78.752 37.073,81.697 41.638,81.697 L63.218,81.697 C67.781,81.695 60.004,78.752 59.506,75.594 L59.506,75.593 Z" id="Shape" fill="url(#linearGradient-2)"></path>
                <path d="M87.707,69.265 C87.707,70.372 86.795,71.27 85.672,71.27 L19.328,71.27 C18.205,71.27 17.293,70.374 17.293,69.265 L17.293,30.263 C17.293,29.157 18.205,28.257 19.328,28.257 L85.672,28.257 C86.795,28.257 87.707,29.155 87.707,30.263 L87.707,69.265 L87.707,69.265 Z" id="Shape" fill="#231F20"></path>
                <polygon id="Shape" fill="#8E8E8E" points="20.174 30.89 84.824 30.89 84.824 68.057 20.174 68.057"></polygon>
                <g id="Clipped" transform="translate(51.000000, 68.000000)">
                    <mask id="mask-4" fill="white">
                        <use xlink:href="#path-3"></use>
                    </mask>
                    <g id="c"></g>
                    <path d="M1.863,1.677 C1.863,1.464 2.027,1.364 2.035,1.357 C1.943,1.212 1.799,1.197 1.745,1.192 C1.625,1.177 1.508,1.268 1.445,1.268 C1.382,1.268 1.285,1.194 1.183,1.196 C1.048,1.198 0.925,1.28 0.855,1.408 C0.718,1.664 0.822,2.045 0.959,2.254 C1.024,2.357 1.103,2.471 1.206,2.466 C1.304,2.461 1.346,2.398 1.464,2.398 C1.584,2.398 1.62,2.466 1.726,2.464 C1.833,2.461 1.902,2.36 1.968,2.258 C2.041,2.138 2.074,2.026 2.076,2.021 C2.074,2.016 1.863,1.931 1.861,1.678" id="Shape" fill="#E6E7E7" mask="url(#mask-4)"></path>
                </g>
                <path d="M52.668,69.053 C52.721,68.983 52.758,68.883 52.748,68.785 C52.67,68.788 52.572,68.841 52.516,68.911 C52.466,68.974 52.42,69.076 52.434,69.173 C52.519,69.18 52.611,69.125 52.668,69.053" id="Shape" fill="#E6E7E7"></path>
                <path d="M85.672,28.257 L69.782,28.257 L53.396,71.27 L85.671,71.27 C86.795,71.27 87.707,70.374 87.707,69.265 L87.707,30.263 C87.707,29.155 86.797,28.257 85.673,28.257 L85.672,28.257 Z" id="Shape" fill="url(#linearGradient-5)" opacity="0.25"></path>
                <circle id="Oval" fill="url(#linearGradient-6)" opacity="0.12" cx="52.428" cy="29.122" r="0.293"></circle>
            </g>
            <g id="Group" transform="translate(348.000000, 508.000000)">
                <path d="M52.5,0 C23.508,0 0,23.505 0,52.5 C0,81.494 23.508,105 52.5,105 C81.496,105 105,81.494 105,52.5 C105,23.505 81.496,0 52.5,0 L52.5,0 Z" id="Shape" fill="#E2DED5"></path>
                <circle id="Oval" fill="#231F20" cx="52.389" cy="34.001" r="6.431"></circle>
                <path d="M52.71,15.498 C73.048,15.608 89.5,32.138 89.5,52.498 C89.5,72.934 72.937,89.498 52.505,89.498 L52.295,89.498 C42.175,89.388 33.999,81.146 33.999,70.998 C33.999,60.866 42.152,52.628 52.262,52.505 L52.742,52.498 C62.846,52.371 71.002,44.138 71.002,33.998 C71.002,23.855 62.832,15.608 52.709,15.498 L52.71,15.498 Z" id="Shape" fill="#000000"></path>
                <path d="M89.5,52.5 C89.5,72.934 72.936,89.5 52.504,89.5 C32.069,89.5 15.501,72.934 15.501,52.5 C15.501,32.065 32.071,15.5 52.505,15.5 C72.935,15.5 89.501,32.066 89.501,52.5 L89.5,52.5 Z" id="Shape" stroke="#000000" stroke-width="0.904"></path>
                <circle id="Oval" fill="#E2DED5" cx="52.389" cy="70.998" r="6.431"></circle>
            </g>
            <g id="Group" transform="translate(355.000000, 675.000000)">
                <path d="M90.22,43.64 C93.2,60.655 72.003,89.47 45.513,90.51 C19.019,88.078 -2.333,69.315 0.808,43.64 C4.118,16.56 22.333,-0.8 45.185,0.588 C75.315,4.061 84.259,13.782 90.22,43.64 L90.22,43.64 Z" id="Shape" fill="#7A8080"></path>
                <path d="M21.32,40.25 L69.678,40.25 L69.678,47.75 L21.32,47.75 L21.32,40.25 Z M22.962,47.75 L68.037,47.75 L68.037,70.79 L22.962,70.79 L22.962,47.75 Z" id="Shape" fill="#E6E7E8"></path>
                <g transform="translate(19.000000, 20.000000)" fill="#F9F9F9">
                    <path d="M40.87,0.254 C33.266,0.659 29.127,12.089 29.127,12.089 C28.092,14.439 25.347,19.649 38.082,17.264 C50.814,14.878 52.256,11.098 52.392,8.218 C52.526,5.338 48.474,-0.152 40.872,0.252 L40.87,0.254 Z M45.257,11.396 C44.044,12.382 41.277,13.806 34.987,14.986 C33.042,15.349 31.429,15.536 30.2,15.536 C30.003,15.536 29.827,15.531 29.67,15.522 C29.745,15.349 29.817,15.192 29.87,15.072 L30.04,14.689 L30.08,14.575 C30.954,12.195 34.405,5.335 38.632,5.108 C38.832,5.095 39.034,5.09 39.232,5.09 C41.962,5.09 43.724,6.11 44.722,6.962 C45.88,7.952 46.329,8.994 46.366,9.337 C46.33,10.044 46.218,10.611 45.256,11.393 L45.257,11.396 Z M0.61,8.22 C0.744,11.1 2.182,14.88 14.92,17.265 C27.654,19.651 24.908,14.438 23.873,12.089 C23.873,12.089 19.733,0.659 12.129,0.253 C4.523,-0.152 0.474,5.338 0.609,8.218 L0.61,8.22 Z M6.637,9.34 C6.67,8.997 7.12,7.954 8.281,6.965 C9.281,6.111 11.044,5.093 13.771,5.093 C13.966,5.093 14.168,5.098 14.371,5.11 C18.599,5.336 22.049,12.198 22.923,14.578 L22.963,14.69 L23.133,15.074 C23.187,15.192 23.259,15.35 23.331,15.522 C23.175,15.532 23.001,15.537 22.804,15.537 C21.574,15.537 19.961,15.35 18.017,14.987 C11.727,13.807 8.957,12.383 7.747,11.397 C6.782,10.614 6.673,10.047 6.637,9.34 L6.637,9.34 Z" id="Shape"></path>
                    <circle id="Oval" cx="26.499" cy="14.564" r="4.05"></circle>
                </g>
                <g id="Clipped" transform="translate(22.000000, 47.000000)">
                    <mask id="mask-8" fill="white">
                        <use xlink:href="#path-7"></use>
                    </mask>
                    <g id="g"></g>
                    <path d="M60.788,-1.372 L63.546,0.945 L30.349,40.465 L27.589,38.147 L60.788,-1.372 Z M55.425,-6.013 L58.185,-3.698 L24.375,36.602 L21.615,34.287 L55.425,-6.013 Z M49.876,-10.67 L52.634,-8.357 L15.951,35.356 L13.195,33.042 L49.876,-10.67 Z M44.355,-15.248 L47.113,-12.935 L5.505,36.677 L2.747,34.363 L44.355,-15.248 Z M38.875,-19.873 L41.632,-17.559 L0.012,32.038 L-2.744,29.723 L38.875,-19.873 Z M33.223,-24.45 L35.98,-22.136 L-5.655,27.458 L-8.412,25.143 L33.223,-24.45 Z M27.7,-29.117 L30.457,-26.807 L-11.141,22.823 L-13.901,20.51 L27.7,-29.117 Z M22.24,-33.898 L24.996,-31.585 L-14.164,15.065 L-16.917,12.752 L22.24,-33.898 Z" id="Shape" fill="#EF4D58" mask="url(#mask-8)"></path>
                </g>
                <g id="Clipped" transform="translate(21.000000, 40.000000)">
                    <mask id="mask-10" fill="white">
                        <use xlink:href="#path-9"></use>
                    </mask>
                    <g id="i"></g>
                    <path d="M64.58,6.635 L67.34,8.948 L37.49,44.56 L34.73,42.247 L64.58,6.635 Z M59.17,2.054 L61.927,4.368 L26.833,46.2 L24.075,43.886 L59.17,2.054 Z M53.605,-2.594 L56.363,-0.28 L21.02,41.85 L18.262,39.535 L53.605,-2.594 Z M48.055,-7.15 L50.815,-4.833 L9.185,44.769 L6.425,42.452 L48.055,-7.15 Z M42.514,-11.88 L45.274,-9.568 L3.678,40.058 L0.918,37.744 L42.514,-11.88 Z M37.146,-16.425 L39.904,-14.111 L-1.709,35.491 L-4.466,33.178 L37.146,-16.425 Z M31.54,-21.034 L34.3,-18.719 L-7.338,30.878 L-10.096,28.563 L31.54,-21.034 Z M26.113,-25.68 L28.871,-23.366 L-12.741,26.236 L-15.499,23.923 L26.113,-25.68 Z" id="Shape" fill="#EF4D58" mask="url(#mask-10)"></path>
                </g>
                <path d="M40.64,39.65 L50.362,39.65 L50.362,47.75 L40.642,47.75 L40.64,39.65 Z M41.36,47.75 L49.637,47.75 L49.637,70.79 L41.359,70.79 L41.36,47.75 Z" id="Shape" fill="#F9F9F9"></path>
                <polygon id="Shape" fill-opacity="0.3" fill="#231F20" points="22.962 47.75 68.037 47.75 68.037 48.83 22.962 48.83"></polygon>
            </g>
            <path d="M389.5,877.387 C389.5,879.491 390.32,881.471 391.81,882.957 C393.296,884.444 395.277,885.267 397.378,885.267 C399.251,885.267 401.024,884.613 402.44,883.417 L403.73,884.707 C403.456,885.357 403.58,886.137 404.108,886.667 L408.428,890.985 C409.124,891.683 410.258,891.683 410.954,890.985 L410.974,890.965 C411.672,890.265 411.672,889.135 410.974,888.435 L406.656,884.118 C406.126,883.588 405.346,883.463 404.696,883.738 L403.406,882.448 C406.004,879.356 405.852,874.722 402.946,871.818 C401.459,870.328 399.481,869.508 397.376,869.508 C395.273,869.508 393.296,870.328 391.806,871.818 C390.319,873.305 389.501,875.282 389.501,877.388 L389.5,877.387 Z M391.14,877.387 C391.14,875.721 391.788,874.157 392.967,872.977 C394.147,871.797 395.712,871.15 397.377,871.15 C399.042,871.15 400.609,871.797 401.791,872.977 C404.224,875.411 404.224,879.37 401.791,881.799 C400.611,882.979 399.045,883.626 397.379,883.626 C395.713,883.626 394.149,882.979 392.969,881.798 C391.789,880.618 391.142,879.053 391.142,877.385 L391.14,877.387 Z" id="Shape" fill="#FFFFFF"></path>
            <path d="M538.503,875.016 C538.503,877.12 539.321,879.1 540.811,880.586 C542.299,882.073 544.281,882.896 546.381,882.896 C548.254,882.896 550.027,882.242 551.443,881.046 L552.733,882.336 C552.459,882.986 552.583,883.766 553.111,884.296 L557.431,888.614 C558.127,889.312 559.261,889.312 559.957,888.614 L559.977,888.594 C560.675,887.894 560.675,886.764 559.977,886.064 L555.659,881.747 C555.129,881.217 554.349,881.092 553.699,881.367 L552.409,880.077 C555.007,876.985 554.855,872.351 551.949,869.447 C550.462,867.957 548.484,867.137 546.379,867.137 C544.276,867.137 542.299,867.957 540.809,869.447 C539.322,870.934 538.504,872.911 538.504,875.017 L538.503,875.016 Z M540.143,875.016 C540.143,873.35 540.79,871.786 541.969,870.606 C543.149,869.426 544.713,868.779 546.379,868.779 C548.045,868.779 549.609,869.425 550.792,870.605 C553.224,873.039 553.224,876.998 550.792,879.427 C549.61,880.607 548.045,881.255 546.379,881.255 C544.713,881.255 543.149,880.608 541.969,879.427 C540.789,878.249 540.142,876.683 540.142,875.015 L540.143,875.016 Z" id="Shape" fill="#414042"></path>
            <polyline id="Shape" fill="#000000" points="557 390.5 564 395 564 386"></polyline>
            <path d="M548.484,560.462 L549.031,560.462 C550.516,560.462 551.851,561.028 553.036,562.162 C554.221,563.294 554.813,564.707 554.813,566.399 C554.813,568.065 554.22,569.439 553.036,570.519 C551.85,571.599 550.386,572.139 548.641,572.139 C546.741,572.139 545.158,571.379 543.895,569.855 C542.631,568.332 542,566.165 542,563.351 C542,560.773 542.552,558.358 543.66,556.105 C544.765,553.853 546.12,552.069 547.72,550.753 C549.323,549.439 550.748,548.78 551.998,548.78 C552.831,548.78 553.482,549.03 553.951,549.523 C554.421,550.018 554.655,550.656 554.655,551.437 C554.655,552.583 554.147,553.429 553.132,553.977 C551.752,554.732 550.658,555.617 549.852,556.632 C549.046,557.649 548.59,558.926 548.486,560.462 L548.484,560.462 Z M565.75,560.462 L566.258,560.462 C567.716,560.462 569.038,561.028 570.223,562.162 C571.408,563.294 572,564.707 572,566.399 C572,568.039 571.407,569.419 570.223,570.539 C569.037,571.659 567.573,572.219 565.828,572.219 C563.9,572.219 562.312,571.439 561.062,569.875 C559.812,568.311 559.187,566.139 559.187,563.352 C559.187,561.347 559.512,559.459 560.164,557.688 C560.814,555.916 561.654,554.374 562.684,553.058 C563.712,551.744 564.819,550.702 566.004,549.933 C567.189,549.165 568.25,548.781 569.188,548.781 C570.048,548.781 570.705,549.021 571.161,549.504 C571.617,549.986 571.846,550.631 571.846,551.438 C571.846,552.61 571.338,553.458 570.323,553.978 C568.89,554.785 567.809,555.676 567.081,556.653 C566.351,557.628 565.907,558.897 565.751,560.46 L565.75,560.462 Z" id="Shape" fill="#67A7A5"></path>
        </g>
    </g>
</svg>